<svg width="365" height="467" viewBox="0 0 365 467" fill="none" xmlns="http://www.w3.org/2000/svg">
<path d="M76.0407 370.746C76.0407 374.35 74.6553 377.527 71.8844 380.277C69.1136 383.027 65.6553 385.162 61.5094 386.683C57.3636 388.204 53.3011 389.058 49.3219 389.246C48.7386 393.933 48.3115 397.475 48.0407 399.871C47.7907 402.267 47.6657 403.985 47.6657 405.027C47.6657 405.985 47.3011 406.787 46.5719 407.433C45.8636 408.079 44.9469 408.402 43.8219 408.402C42.8428 408.402 42.0199 408.131 41.3532 407.59C40.7074 407.069 40.3844 406.402 40.3844 405.59C40.3844 405.402 40.3949 405.256 40.4157 405.152C40.4365 404.965 40.5303 404.475 40.6969 403.683C41.2386 401.017 41.7803 398.142 42.3219 395.058C42.8844 391.954 43.4469 388.173 44.0094 383.715C44.3636 380.756 44.7074 378.09 45.0407 375.715C45.1449 374.944 45.3949 372.944 45.7907 369.715C46.2074 366.485 46.4782 364.121 46.6032 362.621L46.2282 362.683C45.3324 362.683 44.6032 362.381 44.0407 361.777C43.499 361.152 43.2282 360.381 43.2282 359.465C43.2282 358.11 43.8949 357.121 45.2282 356.496C46.5615 355.871 48.5199 355.558 51.1032 355.558C55.2074 355.558 59.124 355.996 62.8532 356.871C66.5824 357.725 69.7074 359.287 72.2282 361.558C74.7699 363.808 76.0407 366.871 76.0407 370.746ZM50.0094 383.84C52.5303 383.652 55.3636 383.017 58.5094 381.933C61.6553 380.85 64.3636 379.34 66.6344 377.402C68.9261 375.465 70.0719 373.204 70.0719 370.621C70.0719 367.642 68.6449 365.423 65.7907 363.965C62.9365 362.506 58.7282 361.777 53.1657 361.777H52.8532C52.1032 367.027 51.1553 374.36 50.0094 383.777V383.84ZM90.4557 408.402C89.5182 408.402 88.7161 408.121 88.0494 407.558C87.4036 407.017 87.0807 406.371 87.0807 405.621C87.0807 405.246 87.1328 404.777 87.2369 404.215C87.3411 403.652 87.4661 403.037 87.6119 402.371C88.0703 400.35 88.4557 398.319 88.7682 396.277C89.4765 391.902 90.1119 387.433 90.6744 382.871C91.6536 374.954 92.289 369.277 92.5807 365.84C92.8932 362.381 93.0807 359.735 93.1432 357.902C93.1849 357.11 93.2161 356.642 93.2369 356.496C93.3411 355.662 93.7161 355.017 94.3619 354.558C95.0078 354.079 95.8619 353.84 96.9244 353.84C97.8828 353.84 98.6744 354.121 99.2994 354.683C99.9244 355.225 100.237 355.912 100.237 356.746C100.237 357.037 100.091 357.819 99.7994 359.09C99.4453 360.465 99.1744 361.725 98.9869 362.871C98.6119 365.183 98.1744 368.11 97.6744 371.652C97.1953 375.194 96.7474 378.777 96.3307 382.402C95.2057 392.34 94.5703 399.287 94.4244 403.246C94.3411 404.496 94.2786 405.308 94.2369 405.683C94.1328 406.517 93.7474 407.173 93.0807 407.652C92.414 408.152 91.539 408.402 90.4557 408.402ZM143.558 373.215C143.558 373.652 143.454 374.287 143.246 375.121C143.058 375.954 142.944 376.444 142.902 376.59C142.527 378.11 142.308 379.058 142.246 379.433C141.704 382.079 141.079 385.881 140.371 390.84C139.683 395.798 139.339 399.027 139.339 400.527C139.339 401.194 139.402 402.048 139.527 403.09C139.652 404.09 139.714 404.85 139.714 405.371C139.714 406.267 139.433 406.996 138.871 407.558C138.329 408.121 137.6 408.402 136.683 408.402C135.475 408.402 134.589 407.985 134.027 407.152C133.485 406.298 133.214 405.173 133.214 403.777C133.214 402.569 133.298 401.194 133.464 399.652C131.923 402.444 130.11 404.652 128.027 406.277C125.944 407.902 123.85 408.715 121.746 408.715C119.475 408.715 117.527 408.152 115.902 407.027C114.298 405.902 113.069 404.246 112.214 402.058C111.36 399.85 110.933 397.173 110.933 394.027C110.933 389.819 111.746 385.871 113.371 382.183C114.996 378.496 117.183 375.558 119.933 373.371C122.704 371.162 125.714 370.058 128.964 370.058C130.631 370.058 132.089 370.381 133.339 371.027C134.61 371.652 135.714 372.61 136.652 373.902C136.819 372.715 137.225 371.819 137.871 371.215C138.537 370.61 139.423 370.308 140.527 370.308C141.36 370.308 142.069 370.59 142.652 371.152C143.256 371.715 143.558 372.402 143.558 373.215ZM122.246 403.433C123.642 403.433 125.173 402.746 126.839 401.371C128.506 399.975 130.069 398.131 131.527 395.84C133.006 393.548 134.173 391.121 135.027 388.558L135.246 387.027C135.725 383.485 136.069 380.454 136.277 377.933C136.089 377.996 135.892 378.027 135.683 378.027C135.142 378.027 134.631 377.808 134.152 377.371C133.339 376.6 132.548 376.017 131.777 375.621C131.027 375.204 130.142 374.996 129.121 374.996C126.996 374.996 124.954 375.912 122.996 377.746C121.058 379.579 119.496 381.996 118.308 384.996C117.121 387.996 116.527 391.131 116.527 394.402C116.527 397.506 116.996 399.787 117.933 401.246C118.892 402.704 120.329 403.433 122.246 403.433ZM168.223 408.715C165.765 408.715 163.629 408.162 161.817 407.058C160.004 405.954 158.598 404.329 157.598 402.183C156.598 400.037 156.098 397.444 156.098 394.402C156.098 390.194 156.786 386.225 158.161 382.496C159.536 378.767 161.504 375.767 164.067 373.496C166.65 371.204 169.65 370.058 173.067 370.058C174.754 370.058 176.39 370.517 177.973 371.433C179.577 372.35 180.869 373.517 181.848 374.933C182.848 376.35 183.348 377.756 183.348 379.152C183.348 379.777 183.202 380.34 182.911 380.84C182.64 381.34 182.286 381.735 181.848 382.027C181.411 382.298 180.963 382.433 180.504 382.433C179.963 382.433 179.494 382.277 179.098 381.965C178.723 381.631 178.411 381.09 178.161 380.34C177.557 378.61 176.786 377.308 175.848 376.433C174.932 375.537 173.765 375.09 172.348 375.09C170.536 375.09 168.817 376.017 167.192 377.871C165.567 379.704 164.265 382.131 163.286 385.152C162.307 388.152 161.817 391.287 161.817 394.558C161.817 397.475 162.379 399.735 163.504 401.34C164.65 402.944 166.223 403.746 168.223 403.746C169.89 403.746 171.39 403.371 172.723 402.621C174.077 401.871 175.4 400.537 176.692 398.621C177.192 397.892 177.723 397.371 178.286 397.058C178.848 396.746 179.484 396.59 180.192 396.59C180.838 396.59 181.379 396.86 181.817 397.402C182.275 397.944 182.504 398.6 182.504 399.371C182.504 400.829 181.796 402.287 180.379 403.746C178.984 405.204 177.171 406.392 174.942 407.308C172.734 408.246 170.494 408.715 168.223 408.715ZM220.826 396.715C221.659 396.715 222.357 396.996 222.919 397.558C223.482 398.1 223.763 398.767 223.763 399.558C223.763 400.933 222.992 402.34 221.451 403.777C219.909 405.194 217.972 406.371 215.638 407.308C213.326 408.246 211.107 408.715 208.982 408.715C206.399 408.715 204.138 408.152 202.201 407.027C200.263 405.902 198.763 404.287 197.701 402.183C196.638 400.058 196.107 397.558 196.107 394.683C196.107 390.746 196.919 386.871 198.544 383.058C200.169 379.246 202.399 376.131 205.232 373.715C208.065 371.277 211.211 370.058 214.669 370.058C216.794 370.058 218.617 370.475 220.138 371.308C221.659 372.121 222.815 373.287 223.607 374.808C224.419 376.308 224.826 378.079 224.826 380.121C224.826 382.933 223.722 385.371 221.513 387.433C219.305 389.496 216.451 391.079 212.951 392.183C209.472 393.287 205.836 393.892 202.044 393.996V394.59C202.044 397.506 202.628 399.829 203.794 401.558C204.961 403.287 206.649 404.152 208.857 404.152C210.544 404.152 212.128 403.704 213.607 402.808C215.086 401.892 216.565 400.329 218.044 398.121C218.336 397.662 218.722 397.319 219.201 397.09C219.68 396.84 220.222 396.715 220.826 396.715ZM214.013 375.246C212.18 375.246 210.472 375.933 208.888 377.308C207.326 378.662 205.992 380.444 204.888 382.652C203.805 384.86 203.024 387.215 202.544 389.715C205.044 389.631 207.597 389.152 210.201 388.277C212.826 387.402 215.003 386.225 216.732 384.746C218.461 383.267 219.326 381.642 219.326 379.871C219.326 378.996 219.097 378.215 218.638 377.527C218.201 376.819 217.576 376.267 216.763 375.871C215.951 375.454 215.034 375.246 214.013 375.246ZM259.866 370.058C260.887 370.058 261.709 370.36 262.334 370.965C262.98 371.548 263.303 372.329 263.303 373.308C263.303 374.246 263.022 375.027 262.459 375.652C261.918 376.277 261.199 376.59 260.303 376.59C259.241 376.59 258.397 376.621 257.772 376.683C257.147 376.725 256.501 376.86 255.834 377.09C255.168 377.298 254.48 377.652 253.772 378.152C252.126 379.298 250.543 381.11 249.022 383.59C247.522 386.048 246.345 388.725 245.491 391.621C244.574 398.933 244.116 403.517 244.116 405.371C244.116 406.267 243.772 406.996 243.084 407.558C242.397 408.121 241.512 408.402 240.428 408.402C239.491 408.402 238.72 408.131 238.116 407.59C237.512 407.048 237.209 406.371 237.209 405.558C237.209 405.225 237.272 404.756 237.397 404.152C237.522 403.548 237.668 402.902 237.834 402.215C238.043 401.402 238.262 400.444 238.491 399.34C239.032 396.715 239.657 392.965 240.366 388.09C241.074 383.215 241.428 380.017 241.428 378.496C241.428 377.767 241.366 376.819 241.241 375.652C241.157 374.694 241.116 374.006 241.116 373.59C241.116 372.569 241.376 371.777 241.897 371.215C242.418 370.652 243.157 370.371 244.116 370.371C245.407 370.371 246.293 370.819 246.772 371.715C247.251 372.61 247.491 373.912 247.491 375.621C247.491 376.475 247.376 377.954 247.147 380.058L247.053 380.808C248.803 377.287 250.772 374.621 252.959 372.808C255.168 370.975 257.47 370.058 259.866 370.058ZM277.437 408.402C276.395 408.402 275.562 408.1 274.937 407.496C274.312 406.892 273.999 406.11 273.999 405.152C273.999 404.756 274.218 403.548 274.656 401.527C275.281 398.59 275.833 395.798 276.312 393.152C276.812 390.506 277.291 387.36 277.749 383.715C278.791 375.59 279.489 369.819 279.843 366.402C280.218 362.965 280.406 360.61 280.406 359.34C280.406 358.235 280.77 357.381 281.499 356.777C282.229 356.152 283.229 355.84 284.499 355.84C285.395 355.84 286.124 356.121 286.687 356.683C287.249 357.246 287.531 357.933 287.531 358.746C287.531 359.058 287.468 359.527 287.343 360.152C287.239 360.777 287.104 361.496 286.937 362.308C286.374 364.975 285.812 367.902 285.249 371.09C284.708 374.277 284.124 378.392 283.499 383.433C282.854 388.558 282.312 393.121 281.874 397.121C281.458 401.121 281.208 403.829 281.124 405.246C281.083 406.204 280.729 406.965 280.062 407.527C279.416 408.11 278.541 408.402 277.437 408.402ZM333.727 355.84C334.789 355.84 335.696 356.069 336.446 356.527C337.217 356.985 337.602 357.746 337.602 358.808C337.602 359.975 337.248 360.86 336.539 361.465C335.852 362.048 334.873 362.34 333.602 362.34C333.144 362.34 332.227 362.277 330.852 362.152C329.373 362.027 328.05 361.923 326.883 361.84C325.737 361.756 324.196 361.704 322.258 361.683C321.675 364.621 321.123 367.631 320.602 370.715C320.081 373.777 319.487 378.017 318.821 383.433C318.175 388.558 317.633 393.121 317.196 397.121C316.779 401.121 316.529 403.829 316.446 405.246C316.404 406.204 316.05 406.965 315.383 407.527C314.737 408.11 313.862 408.402 312.758 408.402C311.717 408.402 310.883 408.1 310.258 407.496C309.633 406.892 309.321 406.11 309.321 405.152C309.321 404.902 309.383 404.412 309.508 403.683C309.654 402.954 309.831 402.11 310.039 401.152C310.623 398.298 311.154 395.569 311.633 392.965C312.112 390.34 312.592 387.256 313.071 383.715C314.717 371.84 315.654 364.485 315.883 361.652L305.883 361.683C304.946 361.683 304.144 361.433 303.477 360.933C302.81 360.433 302.477 359.715 302.477 358.777C302.477 357.86 302.769 357.142 303.352 356.621C303.935 356.1 304.737 355.84 305.758 355.84C307.133 355.84 308.477 355.871 309.789 355.933C312.373 356.058 315.696 356.121 319.758 356.121C322.675 356.121 325.779 356.058 329.071 355.933C329.737 355.912 330.456 355.892 331.227 355.871C332.019 355.85 332.852 355.84 333.727 355.84Z" fill="#5C39C3"/>
<path d="M56.5137 9.9565C58.4575 0.237421 68.6626 -0.572502 73.5221 0.237421C167.473 42.6774 198.25 87.0342 201.895 103.908C140.989 69.5669 86.886 120.106 67.4479 149.668C59.882 161.175 47.1997 189.085 43.9599 201.908C30.3532 175.991 38.2905 139.004 43.9599 123.751C56.2708 87.7902 81.7563 65.8412 92.9603 59.3618C94.3565 49.0004 84.2324 48.1904 79.5965 51.2626L56.5137 69.8908V9.9565Z" fill="url(#paint0_radial_2637_182)"/>
<path d="M347.601 140.181C355.632 145.99 352.125 155.608 349.368 159.691C271.705 227.488 218.567 237.034 201.706 233.333C258.263 192.221 234.796 122.002 215.993 92.0318C208.675 80.3665 188.566 57.2274 178.25 48.9487C207.479 47.3508 237.816 69.9487 249.331 81.4473C276.916 107.596 286.281 139.901 287.515 152.784C297.647 156.72 301.303 149.492 300.437 143.998L293.094 115.26L347.601 140.181Z" fill="url(#paint1_radial_2637_182)"/>
<path d="M68.7428 312.59C59.0822 314.807 54.1555 305.833 52.8998 301.069C53.0445 197.977 80.8632 151.707 94.7544 141.459C88.4342 211.093 156.725 239.689 191.66 245.283C205.258 247.46 235.914 247.571 248.937 245.263C230.887 268.307 193.901 276.248 177.665 277.338C139.82 280.87 109.345 266.637 98.8387 259.079C91.5216 260.795 92.2332 271.623 96.9372 274.589L123.398 287.994L68.7428 312.59Z" fill="url(#paint2_radial_2637_182)"/>
<defs>
<radialGradient id="paint0_radial_2637_182" cx="0" cy="0" r="1" gradientUnits="userSpaceOnUse" gradientTransform="translate(159.555 29.9672) rotate(130.038) scale(178.78 146.497)">
<stop stop-color="#5598F7"/>
<stop offset="1" stop-color="#5C35C1"/>
</radialGradient>
<radialGradient id="paint1_radial_2637_182" cx="0" cy="0" r="1" gradientUnits="userSpaceOnUse" gradientTransform="translate(238.79 159.327) rotate(114.57) scale(82.7241 100.954)">
<stop stop-color="#32A8FC"/>
<stop offset="1" stop-color="#2166C0"/>
</radialGradient>
<radialGradient id="paint2_radial_2637_182" cx="0" cy="0" r="1" gradientUnits="userSpaceOnUse" gradientTransform="translate(71.2736 173.324) rotate(44.0978) scale(145.484 177.545)">
<stop stop-color="#B986FB"/>
<stop offset="1" stop-color="#6883E2"/>
</radialGradient>
</defs>
</svg>
