<svg width="39" height="39" viewBox="0 0 39 39" fill="none" xmlns="http://www.w3.org/2000/svg">
<circle cx="19.5" cy="19.5" r="19.5" fill="url(#paint0_linear_2502_7099)"/>
<g clip-path="url(#clip0_2502_7099)">
<path fill-rule="evenodd" clip-rule="evenodd" d="M9.5708 11H29.4292C29.7437 11 30 11.2502 30 11.5572V24.3998C30 24.7068 29.7437 24.957 29.4292 24.957H9.5708C9.25635 24.957 9 24.7068 9 24.3998V11.5572C9 11.2502 9.25635 11 9.5708 11ZM22.9624 22.2994L20.2178 20.6762V19.6468L22.9624 18.0236V19.2464L21.2944 20.164L22.9624 21.0816V22.2994ZM24.6663 22.2994L27.4109 20.6762V19.6468L24.6663 18.0236V19.2464L26.3342 20.164L24.6663 21.0816V22.2994ZM15.6035 18.3372L16.2581 18.9762C16.4307 19.1447 16.4307 19.4199 16.2581 19.5868L15.7317 20.1006C15.877 20.3658 15.988 20.6511 16.0581 20.9514H16.74C16.9827 20.9514 17.1826 21.1466 17.1826 21.3835V22.2861C17.1826 22.523 16.9827 22.7182 16.74 22.7182H15.9949C15.9282 22.9317 15.8428 23.1352 15.7368 23.3288H28.6414C28.9182 23.3288 29.1455 23.1069 29.1455 22.8366V12.3663C29.1455 12.0961 28.9199 11.8742 28.6414 11.8742H10.3604C10.0818 11.8742 9.85449 12.0961 9.8562 12.3663V18.1403C10.0288 18.0085 10.2834 18.0185 10.4407 18.1754L10.967 18.6892C11.2388 18.5474 11.531 18.439 11.8386 18.3706V17.7049C11.8386 17.468 12.0386 17.2745 12.2813 17.2745H13.2058C13.4485 17.2745 13.6484 17.4697 13.6484 17.7066V18.4323C13.9492 18.5224 14.2346 18.6492 14.4944 18.8093L14.9763 18.3372C15.1506 18.1687 15.4309 18.1687 15.6035 18.3372ZM12.6265 19.7252C13.7544 19.7252 14.6687 20.6178 14.6687 21.7205C14.6687 22.3812 14.3406 22.9667 13.833 23.3288H11.4199C10.9124 22.9667 10.5842 22.3812 10.5842 21.7205C10.5842 20.6178 11.4985 19.7252 12.6265 19.7252ZM11.3328 15.0456H12.6436C12.7444 15.0456 12.8264 15.129 12.8264 15.2241V15.5878C12.8264 15.6846 12.741 15.7663 12.6436 15.7663H11.3328C11.2336 15.7663 11.1499 15.6863 11.1499 15.5878V15.2241C11.1482 15.1257 11.2302 15.0456 11.3328 15.0456ZM13.5032 13.1888H18.5754C18.6763 13.1888 18.7583 13.2706 18.7583 13.3673V13.731C18.7583 13.8294 18.6746 13.9095 18.5754 13.9095H13.5032C13.4023 13.9095 13.3203 13.8294 13.3203 13.731V13.3673C13.3203 13.2689 13.4023 13.1888 13.5032 13.1888ZM11.3328 13.1888H12.6436C12.7444 13.1888 12.8264 13.2689 12.8264 13.3673V13.731C12.8264 13.8294 12.7444 13.9095 12.6436 13.9095H11.3328C11.2319 13.9095 11.1499 13.8294 11.1499 13.731V13.3673C11.1482 13.2689 11.2302 13.1888 11.3328 13.1888ZM15.5557 15.0456H23.9724C24.0732 15.0456 24.1553 15.129 24.1553 15.2241V15.5878C24.1553 15.6829 24.0698 15.7663 23.9724 15.7663H15.5557C15.4565 15.7663 15.3728 15.6863 15.3728 15.5878V15.2241C15.3728 15.1257 15.4548 15.0456 15.5557 15.0456ZM13.4792 15.0456H14.79C14.8909 15.0456 14.9729 15.129 14.9729 15.2241V15.5878C14.9729 15.6846 14.8875 15.7663 14.79 15.7663H13.4792C13.3801 15.7663 13.2964 15.6863 13.2964 15.5878V15.2241C13.2947 15.1257 13.3784 15.0456 13.4792 15.0456ZM16.9109 25.7261H22.0891C22.1028 26.6003 22.4719 27.3827 23.4717 28H15.5283C16.3281 27.4344 16.9143 26.7471 16.9109 25.7261Z" fill="white"/>
</g>
<defs>
<linearGradient id="paint0_linear_2502_7099" x1="0" y1="19.5" x2="39" y2="19.5" gradientUnits="userSpaceOnUse">
<stop stop-color="#5D3DAF"/>
<stop offset="1" stop-color="#5598F7"/>
</linearGradient>
<clipPath id="clip0_2502_7099">
<rect width="21" height="17" fill="white" transform="translate(9 11)"/>
</clipPath>
</defs>
</svg>
