<svg width="59" height="56" viewBox="0 0 59 56" fill="none" xmlns="http://www.w3.org/2000/svg">
<rect width="59" height="56" rx="10" fill="url(#paint0_linear_2710_1798)"/>
<path d="M19.2984 13L15 17.2984L16.6137 18.9092L18.7615 16.7615L19.8353 17.8353L17.6876 19.983L19.8353 22.1307L21.983 19.983L23.0569 21.0569L20.9092 23.2046L23.0569 25.3523L27.3523 21.0569L19.2984 13ZM39.0431 13.6615L34.9939 17.7107L39.2893 22.0061L43.3385 17.9569C42.7566 17.1388 42.1174 16.3502 41.3836 15.6164C40.6498 14.8826 39.8612 14.2434 39.0431 13.6615ZM32.8462 19.8584L16.7354 35.9692L15.6615 41.3385L21.0308 40.2646L37.1416 24.1538L32.8462 19.8584ZM35.9431 29.6477L31.6477 33.9431L33.7954 36.0908L35.9431 33.9431L37.017 35.017L34.8693 37.1647L37.017 39.3124L39.1647 37.1647L40.2385 38.2385L38.0908 40.3863L39.7016 42L44 37.7016L35.9431 29.6477Z" fill="white"/>
<defs>
<linearGradient id="paint0_linear_2710_1798" x1="59" y1="0" x2="3.07617" y2="58.9198" gradientUnits="userSpaceOnUse">
<stop stop-color="#5498F7"/>
<stop offset="1" stop-color="#5C3CAF"/>
</linearGradient>
</defs>
</svg>
