<svg width="93" height="93" viewBox="0 0 93 93" fill="none" xmlns="http://www.w3.org/2000/svg">
<circle cx="46.5" cy="46.5" r="45.5" fill="white" fill-opacity="0.2" stroke="#E2E0FD" stroke-width="2"/>
<path fill-rule="evenodd" clip-rule="evenodd" d="M45.7452 31.9991C46.349 31.9991 46.9443 32.0335 47.5308 32.1022V27.0287C47.2505 26.9255 47.0046 26.7621 46.7976 26.5558C46.4181 26.1774 46.1851 25.6615 46.1851 25.0853C46.1851 24.5135 46.4181 23.9932 46.7976 23.6148C47.1772 23.2365 47.6947 23.0043 48.2727 23.0043C48.8464 23.0043 49.3682 23.2365 49.7478 23.6148C50.1274 23.9932 50.3603 24.5092 50.3603 25.0853C50.3603 25.6572 50.1274 26.1774 49.7478 26.5558C49.5451 26.7578 49.2906 26.9255 49.0146 27.0287V32.3473C50.4034 32.6483 51.7189 33.1385 52.9352 33.7877V31.8271C52.9352 31.4186 53.2673 31.0875 53.6771 31.0875H58.8701C58.9736 30.8253 59.1332 30.5888 59.3316 30.391C59.7112 30.0126 60.2288 29.7805 60.8067 29.7805C61.3804 29.7805 61.9023 30.0126 62.2818 30.391C62.6614 30.7694 62.8943 31.2853 62.8943 31.8615C62.8943 32.4333 62.6614 32.9536 62.2818 33.3319C61.9023 33.7103 61.3847 33.9425 60.8067 33.9425C60.2288 33.9425 59.7069 33.7103 59.3359 33.3319C59.1203 33.117 58.9521 32.8547 58.8486 32.5623H54.4276V34.6949C57.5158 36.8275 59.7759 40.0651 60.6299 43.8358H70.0498V36.2557C69.8212 36.1525 69.6099 36.0063 69.4373 35.83C69.0578 35.4516 68.8249 34.9357 68.8249 34.3595C68.8249 33.7877 69.0578 33.2674 69.4373 32.8891C69.8169 32.5107 70.3345 32.2785 70.9124 32.2785C71.4861 32.2785 72.008 32.5107 72.3875 32.8891C72.7671 33.2674 73 33.7834 73 34.3595C73 34.9314 72.7671 35.4516 72.3875 35.83C72.1503 36.0665 71.857 36.2428 71.5335 36.346V44.5797C71.5335 44.9881 71.2014 45.3192 70.7917 45.3192H60.893C60.9706 45.9384 61.0094 46.5704 61.0094 47.2153C61.0094 48.0753 60.9361 48.918 60.7981 49.7392H68.9543C69.0578 49.4597 69.2217 49.2146 69.4287 49.0083C69.8083 48.6299 70.3258 48.3977 70.9038 48.3977C71.4775 48.3977 71.9994 48.6299 72.3789 49.0083C72.7585 49.3866 72.9914 49.9026 72.9914 50.4787C72.9914 51.0506 72.7585 51.5708 72.3789 51.9492C71.9994 52.3276 71.4818 52.5597 70.9038 52.5597C70.3302 52.5597 69.8083 52.3276 69.4287 51.9492C69.226 51.7471 69.0578 51.4977 68.9543 51.2183H60.4746C59.5171 54.7181 57.3433 57.715 54.4276 59.7272V60.6516H58.8486C58.9521 60.3592 59.1203 60.0969 59.3359 59.882C59.7069 59.5036 60.2331 59.2714 60.8067 59.2714C61.3847 59.2714 61.9023 59.5036 62.2818 59.882C62.6614 60.2603 62.8943 60.7806 62.8943 61.3524C62.8943 61.9286 62.6614 62.4445 62.2818 62.8229C61.9023 63.2012 61.3804 63.4334 60.8067 63.4334C60.2288 63.4334 59.7112 63.2012 59.3316 62.8229C59.1375 62.6294 58.9779 62.3929 58.8701 62.1263H53.6814C53.2716 62.1263 52.9395 61.7953 52.9395 61.3868V60.6344C51.7232 61.2836 50.4034 61.7738 49.0189 62.0747V66.1852C49.2992 66.2884 49.5494 66.456 49.7521 66.6581C50.1317 67.0365 50.3646 67.5567 50.3646 68.1286C50.3646 68.7047 50.1317 69.2207 49.7521 69.599C49.3726 69.9774 48.8507 70.2096 48.277 70.2096C47.6991 70.2096 47.1815 69.9774 46.8019 69.599C46.4224 69.2207 46.1895 68.7004 46.1895 68.1286C46.1895 67.5524 46.4224 67.0365 46.8019 66.6581C47.009 66.4517 47.2548 66.2884 47.5352 66.1852V62.3241C46.9486 62.3929 46.3534 62.4273 45.7495 62.4273C44.8481 62.4273 43.9639 62.3499 43.1056 62.1994V68.0168C43.1056 68.4252 42.7734 68.7563 42.3637 68.7563H34.0997C33.9962 69.0831 33.8193 69.3755 33.5821 69.6076C33.2026 69.986 32.6807 70.2182 32.107 70.2182C31.5291 70.2182 31.0115 69.986 30.6319 69.6076C30.2524 69.2293 30.0195 68.709 30.0195 68.1372C30.0195 67.561 30.2524 67.0451 30.6319 66.6667C31.0115 66.2883 31.5334 66.0562 32.107 66.0562C32.685 66.0562 33.2026 66.2883 33.5821 66.6667C33.759 66.843 33.9013 67.0494 34.0091 67.2773H41.6175V61.8641C40.1985 61.4685 38.8614 60.8709 37.6408 60.1055C37.5071 60.2259 37.3346 60.299 37.1405 60.299H32.6289C32.5254 60.5699 32.3615 60.8107 32.1588 61.0084C31.7792 61.3868 31.2573 61.619 30.6837 61.619C30.11 61.619 29.5881 61.3868 29.2086 61.0084C28.829 60.6344 28.5961 60.1141 28.5961 59.538C28.5961 58.9618 28.829 58.4459 29.2086 58.0675C29.5881 57.6892 30.11 57.457 30.6837 57.457C31.2573 57.457 31.7792 57.6892 32.1588 58.0675C32.3701 58.2782 32.5383 58.5362 32.6418 58.8199H35.881C33.0688 56.4423 31.1322 53.0714 30.619 49.2447H22.9502V56.8292C23.1788 56.9324 23.3901 57.0786 23.5627 57.2549C23.9422 57.6333 24.1751 58.1492 24.1751 58.7254C24.1751 59.2972 23.9422 59.8175 23.5627 60.1958C23.1831 60.5742 22.6655 60.8064 22.0876 60.8064C21.5139 60.8064 20.992 60.5742 20.6125 60.1958C20.2329 59.8218 20 59.3015 20 58.7254C20 58.1535 20.2329 57.6333 20.6125 57.2549C20.8497 57.0184 21.143 56.8421 21.4665 56.7389V48.5095C21.4665 48.1011 21.7986 47.77 22.2083 47.77H30.4896C30.481 47.5851 30.481 47.4002 30.481 47.2153C30.481 45.8782 30.6535 44.584 30.977 43.35H24.0414C23.9379 43.6295 23.774 43.8745 23.567 44.0809C23.1874 44.4593 22.6698 44.6915 22.0919 44.6915C21.5182 44.6915 20.9963 44.4593 20.6168 44.0809C20.2372 43.7026 20.0043 43.1866 20.0043 42.6105C20.0043 42.0386 20.2372 41.5184 20.6168 41.14C20.9963 40.7616 21.5139 40.5295 22.0919 40.5295C22.6655 40.5295 23.1874 40.7616 23.567 41.14C23.7697 41.3421 23.9379 41.5915 24.0414 41.8709H31.4471C32.4478 39.2095 34.1773 36.9049 36.39 35.1937V34.4025H32.6375C32.534 34.6863 32.3658 34.9443 32.1545 35.155C31.7749 35.5333 31.253 35.7655 30.6794 35.7655C30.1057 35.7655 29.5838 35.5333 29.2043 35.155C28.8247 34.7766 28.5918 34.2606 28.5918 33.6845C28.5918 33.1084 28.8247 32.5881 29.2043 32.214C29.5838 31.8357 30.1057 31.6035 30.6794 31.6035C31.253 31.6035 31.7749 31.8357 32.1545 32.214C32.3572 32.4161 32.5168 32.6569 32.6246 32.9235H37.1362C37.5459 32.9235 37.878 33.2545 37.878 33.663V34.179C39.0339 33.4867 40.2891 32.9407 41.6132 32.5666V25.9409H34.0091C33.9056 26.1688 33.759 26.3795 33.5821 26.5515C33.2026 26.9298 32.685 27.162 32.107 27.162C31.5334 27.162 31.0115 26.9298 30.6319 26.5515C30.2524 26.1731 30.0195 25.6572 30.0195 25.081C30.0195 24.5092 30.2524 23.9889 30.6319 23.6105C31.0115 23.2322 31.5291 23 32.107 23C32.6807 23 33.2026 23.2322 33.5821 23.6105C33.8193 23.847 33.9962 24.1394 34.0997 24.4619H42.3594C42.7691 24.4619 43.1012 24.7929 43.1012 25.2014V32.2269C43.9596 32.0765 44.8438 31.9991 45.7452 31.9991ZM39.6033 45.6933H40.8239V45.5471V43.1264C40.8239 41.7419 41.3932 40.4865 42.3076 39.5749C43.222 38.6634 44.4858 38.0959 45.8746 38.0959C47.2634 38.0959 48.5229 38.6634 49.4373 39.5749C50.3516 40.4865 50.921 41.7462 50.921 43.1264V45.5471V45.6933H51.8914C52.1071 45.6933 52.2839 45.8696 52.2839 46.0845V54.3656C52.2839 54.5805 52.1071 54.7568 51.8914 54.7568H39.6033C39.3876 54.7568 39.2108 54.5805 39.2108 54.3656V46.0845C39.2108 45.8696 39.3876 45.6933 39.6033 45.6933ZM42.7821 45.6933H48.9542V45.5471V43.1006C48.9542 42.2536 48.6048 41.484 48.0484 40.925C47.4877 40.3661 46.7157 40.0221 45.8703 40.0221C45.0206 40.0221 44.2485 40.3704 43.6878 40.925C43.1271 41.484 42.7821 42.2536 42.7821 43.1006V45.5471V45.6933ZM45.8962 50.2251L46.5173 53.0929L44.8092 53.0972L45.3096 50.1907C44.8438 50.0402 44.503 49.6059 44.503 49.09C44.503 48.4536 45.0206 47.9377 45.6589 47.9377C46.2973 47.9377 46.8149 48.4536 46.8149 49.09C46.8235 49.6532 46.4224 50.1176 45.8962 50.2251Z" fill="url(#paint0_linear_2060_1346)"/>
<defs>
<linearGradient id="paint0_linear_2060_1346" x1="20" y1="46.6091" x2="73" y2="46.6091" gradientUnits="userSpaceOnUse">
<stop stop-color="#5D3DAF"/>
<stop offset="1" stop-color="#5598F7"/>
</linearGradient>
</defs>
</svg>
