<svg width="73" height="73" viewBox="0 0 73 73" fill="none" xmlns="http://www.w3.org/2000/svg">
<circle cx="36.5" cy="36.5" r="36.5" fill="#ECECEC"/>
<g clip-path="url(#clip0_2710_2146)">
<path d="M39.6107 46.4123C39.0825 46.9944 38.5148 47.5392 37.9115 48.0428C38.084 48.02 38.2565 47.9907 38.429 47.958C38.8955 47.8649 39.3506 47.7217 39.7865 47.5308C39.8971 47.4852 40.0078 47.433 40.112 47.3841C40.1892 47.4843 40.2789 47.5741 40.3789 47.6515C40.4774 47.733 40.587 47.8 40.7044 47.8504C40.4896 47.9646 40.2682 48.0689 40.0534 48.1765C39.5717 48.3811 39.0698 48.5341 38.556 48.6331C37.5166 48.8375 36.4475 48.8375 35.4082 48.6331C34.9069 48.5322 34.4172 48.3803 33.9466 48.1798C33.9402 48.1816 33.9335 48.1816 33.9271 48.1798C33.4626 47.9788 33.017 47.7365 32.5957 47.4558C32.1782 47.1786 31.7899 46.8596 31.4368 46.5036C31.0818 46.1517 30.7644 45.7637 30.4896 45.3459C30.2077 44.9242 29.9648 44.4778 29.7637 44.0121C29.5613 43.5341 29.4076 43.037 29.3047 42.5282C29.205 42.008 29.1548 41.4795 29.1549 40.9498C29.1544 40.4211 29.2057 39.8935 29.3079 39.3747C29.4082 38.8724 29.5598 38.3817 29.7604 37.9105C29.759 37.9074 29.7582 37.9041 29.7582 37.9007C29.7582 37.8973 29.759 37.894 29.7604 37.8909C29.9596 37.4238 30.2015 36.9762 30.4831 36.5538C30.7598 36.1366 31.0783 35.7487 31.4336 35.3961C31.7839 35.0385 32.1713 34.7193 32.5892 34.4439C33.011 34.1565 33.4589 33.9097 33.9271 33.7069C34.4022 33.5012 34.8975 33.346 35.4049 33.2438C35.9239 33.1412 36.4516 33.0898 36.9805 33.0905C37.5085 33.0894 38.0353 33.1419 38.5527 33.247C39.0543 33.3453 39.5442 33.4961 40.0143 33.6971H40.0339C40.4985 33.9011 40.945 34.1444 41.3685 34.4243C41.7842 34.7014 42.1713 35.0193 42.5241 35.3733C42.8783 35.7259 43.1957 36.1138 43.4714 36.531C43.7568 36.9538 44.0021 37.4026 44.2038 37.8713C44.4092 38.3509 44.5652 38.8503 44.6693 39.3617C44.7282 39.6525 44.7706 39.9465 44.7962 40.2422L44.0866 40.053C44.0638 39.8671 44.0345 39.6813 43.9987 39.4986C43.9064 39.0365 43.7668 38.5852 43.582 38.1518C43.4661 37.8786 43.3334 37.6129 43.1849 37.3561H40.9063C41.2934 38.0069 41.5892 38.7082 41.7852 39.4399L41.0137 39.2345C40.7915 38.5718 40.4852 37.9405 40.1022 37.3561H37.3288V38.6344C37.277 38.6636 37.2279 38.6974 37.1823 38.7355C37.1465 38.7649 37.1074 38.7975 37.0749 38.8301C37.0291 38.8782 36.9867 38.9294 36.9479 38.9834C36.888 39.0724 36.8398 39.1689 36.8047 39.2704C36.7679 39.3755 36.7459 39.4853 36.7396 39.5965C36.7282 39.6842 36.7282 39.7729 36.7396 39.8606C36.7519 39.9335 36.7693 40.0054 36.7917 40.0759V40.0954C36.7925 40.1095 36.7925 40.1237 36.7917 40.1378C36.7973 40.1534 36.8038 40.1686 36.8112 40.1835L37.3027 41.2955V44.5338H38.7448L39.0475 45.2219H37.3288V47.6417C38.0405 47.0633 38.7015 46.4251 39.3047 45.7339L39.6107 46.4286V46.4123ZM25.2357 36.1201C25.1881 36.2358 25.1176 36.3405 25.0283 36.4279C24.9389 36.5153 24.8328 36.5835 24.7162 36.6284C24.5997 36.6733 24.4753 36.6939 24.3505 36.6889C24.2258 36.684 24.1033 36.6536 23.9907 36.5996C23.8781 36.5456 23.7776 36.4692 23.6955 36.375C23.6134 36.2808 23.5513 36.1708 23.513 36.0518C23.4748 35.9327 23.4612 35.8071 23.473 35.6826C23.4849 35.5581 23.522 35.4373 23.582 35.3276C24.549 33.3043 25.9534 31.5219 27.6934 30.1098C27.8834 29.9729 28.1185 29.9139 28.3506 29.9449C28.5827 29.9759 28.7941 30.0946 28.9417 30.2766C29.0893 30.4587 29.1619 30.6903 29.1447 30.9242C29.1275 31.1581 29.0217 31.3766 28.849 31.5349C27.3181 32.774 26.0835 34.3407 25.2357 36.1201ZM48.3477 47.3645C49.1615 49.7615 51.4857 49.6962 52.2018 47.3645C52.9017 47.9939 54.9622 48.1178 55.7305 48.545C55.9825 48.6785 56.2041 48.8628 56.3815 49.0864C56.6718 49.498 56.8369 49.9851 56.8568 50.4887L57.0163 51.7247C57.0142 51.819 56.9933 51.912 56.9548 51.9982C56.9164 52.0843 56.8611 52.1619 56.7922 52.2263C56.7234 52.2907 56.6423 52.3407 56.5539 52.3733C56.4655 52.4059 56.3715 52.4204 56.2773 52.416H44.2786C44.1848 52.4199 44.0911 52.4051 44.0031 52.3723C43.915 52.3395 43.8344 52.2895 43.7659 52.2251C43.6974 52.1607 43.6424 52.0833 43.6041 51.9974C43.5658 51.9114 43.5451 51.8187 43.543 51.7247L43.6927 50.4919C43.7152 49.9883 43.8813 49.5017 44.1712 49.0897C44.3486 48.8661 44.5703 48.6818 44.8223 48.5483C45.5938 48.1178 47.6543 47.9939 48.3509 47.3645H48.3477ZM21.8047 47.3645C22.6152 49.7615 24.9427 49.6962 25.6589 47.3645C26.3555 47.9939 28.416 48.1178 29.1842 48.545C29.4362 48.6785 29.6579 48.8628 29.8353 49.0864C30.1256 49.498 30.2907 49.9851 30.3105 50.4887L30.4701 51.7247C30.468 51.8187 30.4472 51.9114 30.4089 51.9974C30.3706 52.0833 30.3156 52.1607 30.2471 52.2251C30.1786 52.2895 30.098 52.3395 30.0099 52.3723C29.9219 52.4051 29.8282 52.4199 29.7344 52.416H17.7389C17.6451 52.4204 17.5513 52.406 17.4631 52.3736C17.3749 52.3412 17.294 52.2915 17.2252 52.2274C17.1564 52.1634 17.101 52.0862 17.0624 52.0004C17.0237 51.9146 17.0025 51.822 17 51.7279L17.1595 50.4919C17.1842 49.9867 17.355 49.4995 17.651 49.0897C17.8284 48.8661 18.0501 48.6818 18.3021 48.5483C19.0703 48.1178 21.1341 47.9939 21.8307 47.3645H21.8047ZM21.2936 43.4316C21.376 43.4511 21.4619 43.4511 21.5443 43.4316L21.3945 42.4532C21.4536 42.1946 21.5742 41.954 21.7461 41.7521C21.9117 41.5793 22.1287 41.4649 22.3646 41.426C22.6901 41.4031 22.7943 41.6412 23.1165 41.8532C24.0217 42.4537 25.0915 42.7558 26.1764 42.7174L26.0234 43.2587C26.0001 43.2932 25.9898 43.3348 25.9941 43.3761C25.9941 43.3761 25.9941 43.3761 25.9941 43.399L25.9746 43.5033H26.0723C26.1042 43.5236 26.142 43.5328 26.1797 43.5294C26.3913 43.5098 26.5247 43.5294 26.5573 43.6044C26.5898 43.6794 26.5573 43.8979 26.4238 44.2175L25.7565 45.3198C25.5332 45.7309 25.2563 46.1103 24.9329 46.4481C24.7732 46.6039 24.5842 46.7265 24.3769 46.8088C24.1697 46.891 23.9482 46.9314 23.7253 46.9275C23.299 46.9301 22.8887 46.765 22.5827 46.4677C22.2725 46.1526 22.0044 45.7985 21.7852 45.4143L21.1895 44.4621C21.0367 44.2602 20.9391 44.0219 20.9062 43.7707C20.9024 43.7162 20.9113 43.6615 20.9323 43.6109C20.9505 43.5698 20.9813 43.5355 21.0202 43.5131C21.104 43.4601 21.201 43.4319 21.3001 43.4316H21.2936ZM26.5898 43.2066L26.6257 41.9021C26.6079 41.3615 26.4031 40.8438 26.0462 40.4378C25.2324 39.5541 23.7155 39.3291 22.5664 39.7432C22.3773 39.8114 22.1961 39.8999 22.026 40.0074C21.5403 40.3015 21.1816 40.7667 21.0202 41.3118C20.9855 41.4391 20.9605 41.5688 20.9453 41.6999C20.9223 42.1924 20.9321 42.686 20.9746 43.1772C20.9231 43.198 20.874 43.2242 20.8281 43.2555C20.7374 43.3138 20.666 43.3978 20.623 43.4968C20.5773 43.5991 20.5572 43.711 20.5645 43.8229C20.591 44.1376 20.7037 44.4389 20.89 44.6936L21.4857 45.6426C21.7218 46.0527 22.0107 46.4299 22.3451 46.7645C22.7131 47.1216 23.2064 47.3195 23.7188 47.3156C23.9851 47.3205 24.2498 47.2723 24.4973 47.1738C24.7449 47.0752 24.9704 46.9283 25.1608 46.7416C25.5082 46.3831 25.806 45.9795 26.0462 45.5415L26.7363 44.3936V44.3708C26.9219 43.9468 26.9609 43.6566 26.8665 43.4609C26.8382 43.4033 26.798 43.3523 26.7487 43.3113C26.6993 43.2702 26.6419 43.2401 26.5801 43.2229L26.5898 43.2066ZM34.9883 20.9134C35.0676 20.9315 35.1499 20.9315 35.2292 20.9134L35.0762 19.935C35.1314 19.6753 35.2538 19.4346 35.431 19.2372C35.5957 19.0632 35.8131 18.9486 36.0495 18.911C36.375 18.8882 36.4759 19.1263 36.8014 19.335C37.7066 19.9355 38.7764 20.2377 39.8613 20.1992L39.7083 20.7405C39.6858 20.7753 39.6755 20.8166 39.679 20.8579C39.679 20.8579 39.679 20.8743 39.679 20.8808L39.6595 20.9884H39.7539C39.7869 21.0091 39.8258 21.0183 39.8646 21.0145C40.0762 20.9949 40.1901 21.0145 40.2422 21.083C40.2943 21.1515 40.2422 21.3797 40.1087 21.6961L39.4609 22.7885C39.2362 23.1986 38.9582 23.5769 38.6341 23.9136C38.4753 24.0698 38.2869 24.1926 38.0801 24.2749C37.8733 24.3572 37.6522 24.3974 37.4297 24.393C37.0034 24.3956 36.5932 24.2305 36.2871 23.9332C35.97 23.6173 35.6973 23.2597 35.4766 22.8701L34.8809 21.9178C34.7281 21.7205 34.6294 21.4867 34.5944 21.2395C34.5908 21.1849 34.5997 21.1303 34.6204 21.0797C34.6376 21.0398 34.6673 21.0065 34.7051 20.9851C34.7901 20.9322 34.8882 20.904 34.9883 20.9036V20.9134ZM35.4928 24.8268C36.3066 27.2237 38.6309 27.1617 39.3503 24.8268C40.0469 25.4562 42.1107 25.5833 42.8757 26.0106C43.1286 26.1411 43.3507 26.3246 43.5267 26.5486C43.817 26.9603 43.9821 27.4473 44.002 27.9509L44.1615 29.1902C44.1585 29.2841 44.137 29.3765 44.0982 29.4621C44.0594 29.5477 44.004 29.6247 43.9353 29.6887C43.8666 29.7527 43.7859 29.8024 43.6979 29.8349C43.6098 29.8675 43.5163 29.8822 43.4225 29.8783H31.4303C31.3366 29.8822 31.243 29.8675 31.155 29.8349C31.067 29.8024 30.9863 29.7527 30.9176 29.6887C30.8488 29.6247 30.7935 29.5477 30.7547 29.4621C30.7158 29.3765 30.6943 29.2841 30.6914 29.1902L30.8509 27.9509C30.8696 27.4496 31.0336 26.9646 31.3229 26.5552C31.4987 26.3309 31.7208 26.1474 31.974 26.0171C32.7389 25.5899 34.806 25.4627 35.4993 24.8333L35.4928 24.8268ZM40.2845 20.6786L40.3203 19.3741C40.3022 18.833 40.0961 18.3151 39.7376 17.9099C38.9238 17 37.4069 16.788 36.2611 17.2022C36.0706 17.2697 35.8883 17.3583 35.7174 17.4664C35.2361 17.755 34.878 18.2113 34.7116 18.748C34.6767 18.8751 34.6528 19.0049 34.64 19.1361C34.6175 19.6296 34.6262 20.1241 34.666 20.6166C34.6144 20.6357 34.5652 20.6609 34.5195 20.6916C34.4311 20.7526 34.3604 20.8358 34.3145 20.933C34.271 21.0291 34.2498 21.1339 34.2526 21.2395C34.284 21.5558 34.4023 21.8572 34.5944 22.1102L35.1901 23.0592C35.4259 23.4684 35.7161 23.8436 36.0527 24.1745C36.4208 24.5316 36.9141 24.7296 37.4264 24.7257C37.6912 24.7336 37.9549 24.689 38.2024 24.5944C38.4499 24.4998 38.6763 24.3571 38.8685 24.1745C39.2156 23.8165 39.5124 23.4128 39.7507 22.9744L40.4375 21.8461V21.8265C40.623 21.4026 40.6654 21.1091 40.5677 20.9134C40.5399 20.8563 40.5002 20.8059 40.4514 20.7654C40.4025 20.7249 40.3457 20.6953 40.2845 20.6786ZM47.8366 43.4316C47.7395 43.4327 47.6443 43.4585 47.5599 43.5066C47.5241 43.5318 47.4951 43.5654 47.4753 43.6044C47.4533 43.6546 47.4444 43.7096 47.4492 43.7642C47.48 44.0149 47.5779 44.2527 47.7324 44.4523L48.3281 45.4046C48.5493 45.7883 48.8184 46.1423 49.1289 46.4579C49.435 46.7552 49.8452 46.9203 50.2715 46.9177C50.7215 46.9245 51.1559 46.7521 51.4792 46.4383C51.8022 46.1003 52.0791 45.7209 52.3027 45.31L52.9733 44.2045C53.1133 43.8784 53.1556 43.6859 53.1068 43.5914C53.0579 43.4968 52.9408 43.5001 52.7292 43.5164C52.6905 43.5191 52.6519 43.51 52.6185 43.4903H52.5241L52.5436 43.3859C52.5418 43.3784 52.5418 43.3706 52.5436 43.3631C52.5392 43.3217 52.5496 43.2801 52.5729 43.2457L52.7259 42.7043C51.6412 42.7411 50.5719 42.4391 49.666 41.8401C49.3405 41.6282 49.2428 41.3901 48.9141 41.4129C48.6786 41.4532 48.462 41.5674 48.2956 41.739C48.1207 41.9381 47.9986 42.1781 47.9408 42.4369L48.0938 43.4153C48.0093 43.4365 47.921 43.4365 47.8366 43.4153V43.4316ZM53.1328 43.2066C53.1944 43.2223 53.2518 43.2515 53.3007 43.2921C53.3497 43.3327 53.3891 43.3837 53.416 43.4414C53.5137 43.637 53.4746 43.9305 53.2891 44.3512V44.374L52.6087 45.4926C52.3691 45.9301 52.0725 46.3337 51.7266 46.6927C51.5366 46.88 51.3112 47.0273 51.0635 47.1259C50.8158 47.2245 50.551 47.2723 50.2845 47.2667C49.7688 47.2732 49.2715 47.075 48.901 46.7155C48.5664 46.38 48.2775 46.0017 48.0417 45.5905L47.446 44.6447C47.2628 44.3883 47.1505 44.0879 47.1204 43.774C47.1126 43.6618 47.1339 43.5494 47.1823 43.4479C47.2271 43.35 47.2981 43.2665 47.3874 43.2066C47.4333 43.1772 47.4811 43.151 47.5306 43.1283C47.4891 42.637 47.4804 42.1435 47.5046 41.651C47.5171 41.5198 47.541 41.3899 47.5762 41.2629C47.7404 40.7192 48.0984 40.2549 48.582 39.9585C48.7532 39.851 48.9355 39.7625 49.1257 39.6943C50.2715 39.2801 51.7884 39.5052 52.6022 40.3889C52.9638 40.7922 53.1704 41.3113 53.1849 41.8532L53.1328 43.2066ZM46.1829 31.6752C46.0908 31.5979 46.0148 31.5031 45.9592 31.3964C45.9036 31.2897 45.8696 31.173 45.859 31.0531C45.8484 30.9332 45.8615 30.8123 45.8976 30.6975C45.9336 30.5826 45.9919 30.476 46.069 30.3837C46.1462 30.2915 46.2407 30.2153 46.3473 30.1596C46.4538 30.1039 46.5702 30.0698 46.6899 30.0592C46.8096 30.0486 46.9303 30.0617 47.0449 30.0978C47.1595 30.1339 47.266 30.1923 47.3581 30.2696C47.5436 30.4261 47.6836 30.5501 47.8008 30.6512C47.918 30.7523 48.071 30.9055 48.224 31.0523C48.7757 31.595 49.285 32.1794 49.7474 32.8003C50.2089 33.4206 50.6234 34.0747 50.9876 34.7569C51.1012 34.9732 51.1243 35.2257 51.052 35.459C50.9796 35.6924 50.8177 35.8873 50.6019 36.0011C50.3861 36.1148 50.134 36.138 49.9011 36.0655C49.6682 35.993 49.4736 35.8308 49.36 35.6146C49.0448 35.0131 48.6812 34.4383 48.2728 33.896C47.8711 33.3559 47.4281 32.8478 46.9479 32.3763C46.8405 32.2654 46.7135 32.1513 46.5768 32.0241L46.196 31.698L46.1829 31.6752ZM41.6484 53.4694C41.8794 53.392 42.1316 53.4096 42.3495 53.5185C42.5674 53.6274 42.7333 53.8185 42.8105 54.0499C42.8878 54.2812 42.8702 54.5339 42.7615 54.7522C42.6529 54.9705 42.4621 55.1367 42.2311 55.2141C41.4599 55.475 40.6683 55.6714 39.8646 55.8011C37.4033 56.2041 34.8809 55.9923 32.5208 55.1847C32.3001 55.0978 32.1213 54.929 32.0217 54.7134C31.9221 54.4977 31.9093 54.2519 31.9861 54.0271C32.0628 53.8022 32.2232 53.6157 32.4338 53.5064C32.6443 53.397 32.8889 53.3733 33.1165 53.44C35.1889 54.1488 37.4035 54.3358 39.5651 53.9846C40.2726 53.8711 40.9695 53.6988 41.6484 53.4694ZM44.5781 46.197C44.5334 46.2426 44.4804 46.2791 44.4219 46.3046C44.3628 46.3334 44.2986 46.35 44.2331 46.3536C44.1628 46.3605 44.0918 46.3528 44.0247 46.3307C43.9573 46.3108 43.8951 46.2763 43.8424 46.2296L42.5599 45.173L42.0326 46.4481C41.9914 46.5498 41.9402 46.647 41.8796 46.7384C41.8247 46.8227 41.759 46.8994 41.6842 46.9667C41.6291 47.0157 41.5678 47.0573 41.502 47.0906C41.4403 47.1209 41.3745 47.1418 41.3066 47.1525C41.2292 47.1672 41.1497 47.1672 41.0723 47.1525C40.9955 47.129 40.9238 47.0914 40.8607 47.0417C40.8025 46.9946 40.751 46.9397 40.7077 46.8786C40.6615 46.8116 40.6212 46.7407 40.5872 46.6666C39.6107 44.4523 38.4388 42.0717 37.5632 39.8411C37.5521 39.8116 37.5445 39.7809 37.5404 39.7497C37.5371 39.7194 37.5371 39.6888 37.5404 39.6584C37.5442 39.6219 37.5518 39.5858 37.5632 39.5508C37.5761 39.5156 37.5925 39.4817 37.612 39.4497C37.6231 39.4359 37.6351 39.4229 37.6478 39.4106C37.6593 39.398 37.6724 39.387 37.6868 39.378C37.7097 39.3587 37.7349 39.3423 37.7617 39.3291C37.7872 39.316 37.8147 39.3072 37.8431 39.303C37.868 39.2998 37.8931 39.2998 37.918 39.303C37.945 39.2996 37.9723 39.2996 37.9993 39.303H38.0286C40.4375 39.8769 42.8464 40.5552 45.2389 41.1912C45.3173 41.2124 45.3936 41.2408 45.4668 41.276C45.5331 41.3084 45.5945 41.3501 45.6491 41.3999C45.7089 41.4541 45.7575 41.5194 45.7923 41.5923C45.8256 41.6638 45.8434 41.7416 45.8444 41.8206C45.8475 41.8892 45.8375 41.9578 45.8151 42.0228C45.7949 42.0933 45.7642 42.1604 45.724 42.2217C45.6702 42.3068 45.6044 42.3837 45.5286 42.45C45.4474 42.5247 45.3591 42.5914 45.265 42.6489C44.8711 42.8804 44.4805 43.125 44.0898 43.3631L45.3691 44.4262C45.4224 44.4724 45.4656 44.529 45.4961 44.5925C45.5258 44.6527 45.5435 44.718 45.5482 44.7849C45.5546 44.8541 45.548 44.9238 45.5286 44.9904C45.5077 45.0562 45.4758 45.1179 45.4342 45.173C45.1625 45.5251 44.8724 45.8626 44.5651 46.184L44.5781 46.197ZM44.1745 45.6981L44.9004 44.8436L43.3607 43.5392L43.3346 43.5131L43.3053 43.4707C43.2655 43.3993 43.2539 43.3155 43.2728 43.2359C43.2816 43.1959 43.2986 43.1581 43.3227 43.125C43.3468 43.0919 43.3774 43.0642 43.4128 43.0435C43.9141 42.763 44.4414 42.4369 44.9427 42.1108C44.9977 42.077 45.05 42.0388 45.099 41.9967C45.1353 41.9621 45.1681 41.9238 45.1966 41.8825C45.2057 41.8709 45.2123 41.8576 45.2161 41.8434L45.1738 41.8206C45.1427 41.8058 45.1099 41.7948 45.0762 41.788L38.3216 40.0009L41.1602 46.3992C41.1744 46.4307 41.1907 46.4612 41.209 46.4905L41.235 46.5231L41.2708 46.4938C41.3071 46.46 41.3389 46.4217 41.3652 46.3796C41.4003 46.3252 41.4298 46.2673 41.4531 46.2068L42.1335 44.5371C42.1369 44.5253 42.1424 44.5143 42.1497 44.5045L42.1758 44.4719C42.231 44.4127 42.3063 44.3762 42.387 44.3695C42.4676 44.3629 42.5478 44.3866 42.612 44.436L44.1745 45.6981ZM36.0658 48.0363C35.0599 47.215 34.1677 46.263 33.4128 45.2056H31.2448C31.4522 45.4898 31.6819 45.7569 31.9316 46.0046C32.2527 46.3268 32.6049 46.6163 32.9831 46.8688C33.3696 47.1264 33.7807 47.3449 34.2103 47.521C34.6426 47.7102 35.093 47.8544 35.5547 47.9515C35.724 47.9841 35.8997 48.0135 36.0723 48.0363H36.0658ZM30.7923 44.5208H32.9733C32.3891 43.5373 32.0538 42.4255 31.9967 41.2825H29.8483C29.8661 41.6505 29.9107 42.0167 29.9818 42.3782C30.0715 42.8463 30.2112 43.3033 30.3984 43.7414C30.5146 44.0139 30.6461 44.2795 30.7923 44.5371V44.5208ZM29.8483 40.6074H32.0163C32.1192 39.4597 32.4857 38.3514 33.0872 37.3691H30.7923C30.6461 37.6267 30.5146 37.8924 30.3984 38.1648C30.2138 38.5952 30.0731 39.0432 29.9785 39.5019C29.9066 39.8632 29.863 40.2295 29.8483 40.5976V40.6074ZM31.2415 36.6941H33.5202C34.2652 35.6481 35.133 34.6955 36.1048 33.8569C35.9095 33.8797 35.724 33.909 35.5384 33.9449C35.0777 34.037 34.6281 34.1781 34.1973 34.3656C33.7693 34.5452 33.3585 34.7635 32.9701 35.0178C32.5919 35.2703 32.2397 35.5598 31.9186 35.882C31.6682 36.1279 31.4384 36.394 31.2318 36.6778L31.2415 36.6941ZM37.8594 33.8569C38.829 34.6861 39.6947 35.63 40.4375 36.668H42.7161C42.2369 36.0172 41.6488 35.4545 40.9779 35.0048C40.5906 34.7484 40.1797 34.53 39.7507 34.3526C39.3229 34.1712 38.8779 34.0335 38.4225 33.9417C38.2337 33.9058 38.0449 33.8764 37.8594 33.8536V33.8569ZM37.3288 34.2841V36.6745H39.6074C38.9315 35.8017 38.168 35.0007 37.3288 34.2841ZM36.6419 47.6254V45.2056H34.2526C34.9514 46.1034 35.7534 46.9156 36.6419 47.6254ZM36.6419 44.5208V41.2825H32.6868C32.7556 42.439 33.1296 43.5566 33.7708 44.5208H36.6419ZM36.6419 40.6074V37.3561H33.8913C33.2339 38.3207 32.8247 39.4331 32.6999 40.5944L36.6419 40.6074ZM36.6419 36.6941V34.2841C35.8027 35.0007 35.0392 35.8017 34.3633 36.6745L36.6419 36.6941Z" fill="black"/>
</g>
<defs>
<clipPath id="clip0_2710_2146">
<rect width="40" height="39" fill="white" transform="translate(17 17)"/>
</clipPath>
</defs>
</svg>
