<svg width="73" height="73" viewBox="0 0 73 73" fill="none" xmlns="http://www.w3.org/2000/svg">
<circle cx="36.5" cy="36.5" r="36.5" fill="#ECECEC"/>
<g clip-path="url(#clip0_2710_2155)">
<path d="M30.8901 42.5136C32.8446 46.5962 38.7728 46.7418 40.6437 42.5384C40.1335 42.0211 39.7531 41.4667 39.3789 40.9153C39.3171 40.8255 39.2552 40.7356 39.1934 40.6427C38.2904 41.3613 37.1925 41.8198 35.7638 41.8167C34.2238 41.8136 33.061 41.222 32.1117 40.3515C32.056 40.2989 31.9972 40.2462 31.9416 40.1936C31.8055 40.5715 31.6323 41.0268 31.4468 41.4512C31.2674 41.8539 31.0757 42.238 30.8901 42.5136ZM44.2031 47.9932L45.6071 46.5188L47.6326 48.4703L50.7869 44.2607L52.3548 45.5276C51.6157 46.4445 48.981 50.0655 48.4058 50.5364C47.9326 50.9236 47.2523 50.9236 46.8132 50.4992L44.2031 47.9932ZM48.2975 39.5678C50.4251 39.5678 52.3486 40.4321 53.7433 41.8291C55.138 43.2261 55.9977 45.1528 55.9977 47.2839C55.9977 49.415 55.1349 51.3417 53.7433 52.7387C52.3486 54.1357 50.4251 55 48.2975 55C46.1699 55 44.2464 54.1357 42.8517 52.7387C41.457 51.3417 40.5942 49.415 40.5942 47.2839C40.5942 45.7413 41.0457 44.304 41.825 43.0991C41.6024 43.0031 41.3828 42.8915 41.1447 42.7583C40.1984 47.1507 32.724 48.2101 30.417 43.0093C28.7873 43.8301 27.1328 44.4527 25.2402 44.747L26.3411 52.7047H19.7821C16.5288 52.4569 18.5358 47.7485 19.5161 46.4507C19.9862 45.828 20.5706 45.3696 21.217 45.0072C23.159 43.923 28.2152 43.5637 30.3118 42.0986C30.4665 41.8662 30.6335 41.5286 30.7912 41.1631C31.0324 40.6117 31.252 40.0108 31.3911 39.6019C30.8035 38.9112 30.3026 38.1306 29.8202 37.3593L28.2306 34.8286C27.6493 33.9612 27.3462 33.1652 27.3276 32.5147C27.3184 32.208 27.3709 31.9292 27.4823 31.6845C27.5998 31.4274 27.7822 31.2137 28.0296 31.0495C28.144 30.9721 28.2739 30.907 28.4162 30.8513C28.3141 29.4791 28.2739 27.7475 28.342 26.2978C28.376 25.954 28.4409 25.6102 28.5368 25.2664C28.9419 23.8136 29.9624 22.6427 31.221 21.8373C31.9168 21.3944 32.6776 21.0598 33.4723 20.8337C33.9764 20.6912 33.0425 19.0743 33.5651 19.0216C36.0885 18.7614 40.1737 21.0691 41.9364 22.9772C42.8177 23.9344 43.3713 25.2013 43.4919 26.8802L43.3929 31.0123C43.8351 31.1455 44.1165 31.4274 44.231 31.8797C44.3577 32.3815 44.2186 33.0908 43.7949 34.0542C43.7887 34.0728 43.7795 34.0882 43.7671 34.1068L41.9549 37.096C41.29 38.1925 40.6128 39.2953 39.7314 40.1626C39.8118 40.2772 39.8892 40.3918 39.9696 40.5095C40.3283 41.0361 40.6901 41.5627 41.154 42.0335C41.1694 42.049 41.1818 42.0645 41.1942 42.0831C41.4694 42.2782 41.8003 42.4548 42.1683 42.6159C42.3786 42.3402 42.6074 42.0769 42.8517 41.8322C44.2464 40.4321 46.173 39.5678 48.2975 39.5678ZM29.3315 31.5823C28.979 31.5947 28.7131 31.669 28.5306 31.7929C28.4255 31.8642 28.3512 31.9509 28.3018 32.0593C28.2461 32.177 28.2214 32.3195 28.2275 32.4868C28.2399 32.97 28.4935 33.605 28.9852 34.3329L28.9914 34.3422L30.5809 36.873C31.2179 37.889 31.8859 38.9236 32.7178 39.6825C33.5156 40.4135 34.4867 40.9091 35.7669 40.9122C37.1554 40.9153 38.1698 40.4011 38.9923 39.6298C39.849 38.8275 40.5231 37.7248 41.1911 36.6283L42.9816 33.6732C43.3156 32.9112 43.4362 32.4001 43.362 32.0996C43.3156 31.9199 43.1208 31.8332 42.7868 31.8177C42.7157 31.8146 42.6414 31.8146 42.5703 31.8146C42.4899 31.8177 42.4064 31.8239 42.3198 31.8301C42.2734 31.8332 42.2271 31.8301 42.1807 31.8208C42.0199 31.8301 41.856 31.8177 41.689 31.7929L42.3013 29.0733C37.7523 29.7919 34.3475 26.4063 29.5387 28.3949L29.8851 31.5978C29.6872 31.6164 29.5016 31.6102 29.3315 31.5823ZM48.2975 40.7635C46.5008 40.7635 44.8711 41.4945 43.6929 42.6747C42.5146 43.8549 41.7848 45.4842 41.7848 47.287C41.7848 50.8895 44.701 53.8074 48.2975 53.8074C50.0942 53.8074 51.724 53.0764 52.9022 51.8962C54.0804 50.716 54.8102 49.0867 54.8102 47.2839C54.8102 43.6814 51.894 40.7635 48.2975 40.7635Z" fill="black"/>
</g>
<defs>
<clipPath id="clip0_2710_2155">
<rect width="38" height="36" fill="white" transform="translate(18 19)"/>
</clipPath>
</defs>
</svg>
