<svg width="39" height="39" viewBox="0 0 39 39" fill="none" xmlns="http://www.w3.org/2000/svg">
<circle cx="19.5" cy="19.5" r="19.5" fill="url(#paint0_linear_2502_7094)"/>
<g clip-path="url(#clip0_2502_7094)">
<path fill-rule="evenodd" clip-rule="evenodd" d="M16.1699 15.0237C15.9846 15.0303 15.8456 15.0677 15.7496 15.1312C15.695 15.167 15.6553 15.2125 15.6288 15.2679C15.6007 15.3281 15.5875 15.403 15.5891 15.4876C15.5957 15.7366 15.7298 16.0622 15.9862 16.4365L15.9895 16.4414L16.8218 17.7435C17.1561 18.2659 17.5052 18.7982 17.9404 19.1888C18.359 19.5648 18.8654 19.8187 19.5371 19.8203C20.2635 19.8219 20.7947 19.5583 21.2266 19.1611C21.675 18.7477 22.0291 18.1813 22.3782 17.6165L23.3164 16.098C23.4918 15.7057 23.5547 15.4437 23.515 15.289C23.4918 15.1979 23.3892 15.1523 23.2138 15.1442C23.1774 15.1426 23.1377 15.1426 23.0996 15.1426C23.0583 15.1442 23.0136 15.1458 22.9689 15.1507C22.9441 15.1523 22.9193 15.1507 22.8961 15.1458C22.8134 15.1507 22.7273 15.1442 22.6396 15.1328L22.9606 13.7347C20.5779 14.1041 18.7959 12.3642 16.2775 13.3864L16.4595 15.0335C16.3536 15.04 16.2576 15.0368 16.1699 15.0237ZM22.2624 26.054V26.8402L20.6193 27.7565V26.8402L21.6766 26.4446L20.6193 26.054V25.1377L22.2624 26.054ZM19.4164 28.0153H18.7164L19.5802 24.7047H20.2801L19.4164 28.0153ZM18.2482 26.054L17.1908 26.4446L18.2482 26.8402V27.7565L16.6051 26.8402V26.054L18.2482 25.1377V26.054ZM23.5298 14.7291C23.5646 13.3017 23.831 11.8597 22.7985 10.6894C22.0622 9.85447 20.1461 9.06834 18.9034 9.00161C18.3789 8.97394 18.5791 9.39386 18.0612 9.56964C16.9923 9.9326 16.0574 10.7041 15.7513 11.775C15.7016 11.9508 15.6669 12.1282 15.6487 12.3056C15.6139 13.0511 15.6338 13.9398 15.6884 14.6461C15.6139 14.6738 15.5461 14.708 15.4865 14.7471C15.3575 14.8317 15.2632 14.9424 15.2003 15.0742C15.1407 15.1995 15.1142 15.3428 15.1192 15.5006C15.1291 15.8359 15.2863 16.2428 15.5908 16.6904L16.4231 17.9925C16.7143 18.4482 17.0187 18.9121 17.3894 19.3043C17.3712 19.3564 17.391 19.2995 17.3795 19.3336C17.2769 19.6396 17.1048 20.1507 16.9509 20.4372C15.9399 21.0882 13.625 21.2558 12.7266 21.749C10.2743 23.0934 11.1596 25.8652 11.1298 28.1553C11.1778 28.6663 11.4723 28.9593 12.0515 29.0032H12.6786L11.9919 23.8763C11.9389 23.4775 12.2268 23.1504 12.5809 23.1504H15.8026H19.605C19.4743 22.3203 17.2918 21.5195 17.214 20.8945C17.2355 20.8799 17.2554 20.8603 17.2719 20.8375C17.4572 20.5836 17.6492 20.0547 17.7815 19.6689C18.2498 20.0416 18.8124 20.2858 19.5355 20.2874C20.1841 20.289 20.702 20.1116 21.1372 19.8235C21.1802 19.8838 21.2232 19.9472 21.2696 20.014C21.4764 20.3135 21.718 20.6601 21.943 20.9075C21.895 21.6188 20.0021 21.6269 19.787 23.1504H26.5281C26.8822 23.1504 27.1718 23.4775 27.1172 23.8763L26.4305 29.0032H27.0576C27.6367 28.9593 27.9312 28.6663 27.9809 28.1553C27.8171 25.9922 28.6411 22.986 26.3841 21.749C25.4972 21.2624 23.2304 21.0931 22.1995 20.4632C22.0258 20.2516 21.8388 19.9814 21.6733 19.7438C21.6204 19.6657 21.5691 19.5924 21.5211 19.5257L21.5459 19.5045C22.0406 19.0488 22.4129 18.4547 22.7786 17.8623L23.7267 16.3258C23.7317 16.3177 23.7367 16.3079 23.7416 16.2998C23.9634 15.8034 24.0362 15.4388 23.97 15.1816C23.9088 14.9424 23.7615 14.7991 23.5298 14.7291Z" fill="white"/>
</g>
<defs>
<linearGradient id="paint0_linear_2502_7094" x1="0" y1="19.5" x2="39" y2="19.5" gradientUnits="userSpaceOnUse">
<stop stop-color="#5D3DAF"/>
<stop offset="1" stop-color="#5598F7"/>
</linearGradient>
<clipPath id="clip0_2502_7094">
<rect width="17" height="20" fill="white" transform="translate(11 9)"/>
</clipPath>
</defs>
</svg>
