<svg width="39" height="39" viewBox="0 0 39 39" fill="none" xmlns="http://www.w3.org/2000/svg">
<circle cx="19.5" cy="19.5" r="19.5" fill="url(#paint0_linear_2502_7090)"/>
<g clip-path="url(#clip0_2502_7090)">
<path fill-rule="evenodd" clip-rule="evenodd" d="M29.4674 17.775V26.7313C29.4669 26.8024 29.4383 26.8705 29.3879 26.9208C29.3374 26.971 29.2692 26.9995 29.1978 27H26.875C26.8037 26.9995 26.7354 26.971 26.6849 26.9208C26.6345 26.8705 26.6059 26.8024 26.6055 26.7313V20.0701C27.0809 19.6073 27.663 19.0476 28.2582 18.4766L29.1941 17.5773C29.2798 17.6494 29.3705 17.7155 29.4655 17.775H29.4674ZM13.6399 15.3494C13.1284 15.3122 12.6145 15.3756 12.1275 15.536H12.1163C11.1981 15.8454 10.4281 16.4841 9.95591 17.3279C9.48373 18.1717 9.3431 19.1604 9.56135 20.1018C9.63296 20.4215 9.74556 20.7307 9.89639 21.0217L8.05834 22.7756C8.02347 22.8106 8.00391 22.8579 8.00391 22.9072C8.00391 22.9565 8.02347 23.0038 8.05834 23.0387L9.09903 24.1247C9.13409 24.1594 9.18153 24.1789 9.23098 24.1789C9.28043 24.1789 9.32787 24.1594 9.36294 24.1247L11.1317 22.423C11.3999 22.6125 11.6911 22.7673 11.9984 22.8838C12.3591 23.0179 12.7373 23.0996 13.1214 23.1264C13.7612 23.167 14.4012 23.0502 14.9851 22.7863C15.5689 22.5224 16.0788 22.1195 16.4698 21.6131C16.8608 21.1066 17.121 20.5122 17.2274 19.8819C17.3339 19.2517 17.2833 18.6051 17.0801 17.999C16.8338 17.2681 16.3754 16.6267 15.7629 16.156C15.1504 15.6853 14.4115 15.4065 13.6399 15.355V15.3494ZM11.3227 16.8999C11.6312 16.6309 11.9899 16.4252 12.3783 16.2946C12.7666 16.164 13.177 16.1111 13.586 16.1388C13.9949 16.1665 14.3943 16.2744 14.7614 16.4562C15.1284 16.6381 15.4559 16.8903 15.725 17.1985V17.2078C15.99 17.5136 16.1928 17.8679 16.3221 18.2508C16.5855 19.0328 16.5274 19.8869 16.1604 20.6262C15.7935 21.3655 15.1476 21.9297 14.3642 22.1953C13.9762 22.324 13.5668 22.3759 13.1588 22.3483C12.7499 22.3223 12.3502 22.2151 11.9834 22.033C11.6193 21.8488 11.295 21.5952 11.0288 21.2866L11.0194 21.2755C10.7535 20.97 10.55 20.6157 10.4205 20.2324V20.2231C10.2935 19.8391 10.2426 19.4341 10.2707 19.0308C10.2977 18.6233 10.4052 18.2251 10.587 17.8591C10.7688 17.4931 11.0214 17.1665 11.3301 16.8981L11.3227 16.8999ZM16.674 15.3923L18.7329 13.601C20.0918 14.9296 21.4095 16.5342 22.7553 17.859L27.6536 12.9461L26.072 11.3732L31.0003 11L30.7233 16.0062L29.2072 14.4948C28.1197 15.5938 25.5479 18.0139 24.4586 19.0998C23.0828 20.4713 22.4258 20.4974 21.0501 19.1241L18.7254 16.5473L18.0029 17.1854C17.9264 17.0131 17.8408 16.8449 17.7465 16.6816C17.5853 16.404 17.3973 16.1428 17.185 15.9017C17.0249 15.7201 16.8516 15.5504 16.6665 15.3942L16.674 15.3923ZM20.1217 21.24V26.7313C20.1212 26.8024 20.0927 26.8705 20.0422 26.9208C19.9918 26.971 19.9235 26.9995 19.8522 27H17.5294C17.458 26.9995 17.3898 26.971 17.3393 26.9208C17.2889 26.8705 17.2603 26.8024 17.2598 26.7313V22.7402C17.4005 22.5959 17.533 22.4439 17.6566 22.2849C17.867 22.014 18.0495 21.7227 18.2013 21.4154C18.4545 20.9115 18.6221 20.3693 18.6973 19.8107L19.3169 20.4974L19.3974 20.5813C19.6273 20.8132 19.869 21.0331 20.1217 21.24ZM15.4424 23.9455V26.7313C15.4419 26.8024 15.4133 26.8705 15.3629 26.9208C15.3124 26.971 15.2442 26.9995 15.1728 27H12.8556C12.7843 26.9995 12.716 26.971 12.6656 26.9208C12.6151 26.8705 12.5866 26.8024 12.5861 26.7313V24.2348C12.7769 24.2684 12.9693 24.292 13.1626 24.3057C13.8457 24.3485 14.5308 24.2598 15.1803 24.0444C15.2702 24.0127 15.3675 23.981 15.448 23.9455H15.4424ZM24.7936 21.6486V26.7313C24.7931 26.8024 24.7646 26.8705 24.7141 26.9208C24.6637 26.971 24.5954 26.9995 24.5241 27H22.2012C22.1299 26.9995 22.0616 26.971 22.0112 26.9208C21.9608 26.8705 21.9322 26.8024 21.9317 26.7313V22.1785C22.2105 22.2407 22.4958 22.2695 22.7815 22.2644C23.4978 22.2574 24.1967 22.0435 24.7936 21.6486Z" fill="white"/>
</g>
<defs>
<linearGradient id="paint0_linear_2502_7090" x1="0" y1="19.5" x2="39" y2="19.5" gradientUnits="userSpaceOnUse">
<stop stop-color="#5D3DAF"/>
<stop offset="1" stop-color="#5598F7"/>
</linearGradient>
<clipPath id="clip0_2502_7090">
<rect width="23" height="16" fill="white" transform="translate(8 11)"/>
</clipPath>
</defs>
</svg>
