<svg width="78" height="90" viewBox="0 0 78 90" fill="none" xmlns="http://www.w3.org/2000/svg">
<path d="M14.7848 76.3693C14.7848 77.1586 14.4814 77.8545 13.8745 78.4567C13.2677 79.059 12.5102 79.5267 11.6023 79.8598C10.6943 80.1929 9.80454 80.3799 8.93306 80.421C8.8053 81.4476 8.71176 82.2233 8.65245 82.748C8.59769 83.2727 8.57032 83.6491 8.57032 83.8773C8.57032 84.0872 8.49047 84.2628 8.33077 84.4043C8.17564 84.5457 7.97488 84.6164 7.72849 84.6164C7.51404 84.6164 7.33381 84.5571 7.18781 84.4385C7.04636 84.3244 6.97564 84.1784 6.97564 84.0005C6.97564 83.9594 6.97792 83.9275 6.98248 83.9046C6.98705 83.8636 7.00758 83.7564 7.04408 83.583C7.16271 82.9989 7.28134 82.3693 7.39997 81.694C7.52317 81.0142 7.64636 80.186 7.76956 79.2096C7.84712 78.5617 7.92241 77.9776 7.99541 77.4575C8.01823 77.2887 8.07298 76.8506 8.15967 76.1434C8.25093 75.4362 8.31024 74.9183 8.33762 74.5898L8.25549 74.6035C8.05929 74.6035 7.8996 74.5373 7.7764 74.405C7.65777 74.2681 7.59845 74.0993 7.59845 73.8986C7.59845 73.602 7.74446 73.3852 8.03648 73.2484C8.32849 73.1115 8.75739 73.043 9.32317 73.043C10.222 73.043 11.0798 73.1389 11.8966 73.3305C12.7133 73.5176 13.3977 73.8598 13.9498 74.3571C14.5064 74.8499 14.7848 75.5206 14.7848 76.3693ZM9.08363 79.237C9.63572 79.1959 10.2563 79.0567 10.9452 78.8195C11.6342 78.5822 12.2274 78.2514 12.7247 77.8271C13.2266 77.4027 13.4775 76.9077 13.4775 76.3419C13.4775 75.6894 13.165 75.2035 12.5399 74.8841C11.9148 74.5647 10.9931 74.405 9.77488 74.405H9.70644C9.54218 75.5548 9.33458 77.1609 9.08363 79.2233V79.237ZM17.9418 84.6164C17.7365 84.6164 17.5608 84.5548 17.4148 84.4316C17.2734 84.313 17.2027 84.1716 17.2027 84.0073C17.2027 83.9252 17.2141 83.8225 17.2369 83.6993C17.2597 83.5761 17.2871 83.4415 17.319 83.2955C17.4194 82.8529 17.5038 82.4081 17.5722 81.9609C17.7274 81.0027 17.8665 80.024 17.9897 79.0248C18.2042 77.291 18.3433 76.0476 18.4072 75.2948C18.4757 74.5373 18.5167 73.9579 18.5304 73.5563C18.5395 73.383 18.5464 73.2803 18.551 73.2484C18.5738 73.0659 18.6559 72.9244 18.7973 72.824C18.9388 72.7191 19.1259 72.6666 19.3586 72.6666C19.5684 72.6666 19.7418 72.7282 19.8787 72.8514C20.0156 72.97 20.084 73.1206 20.084 73.3031C20.084 73.367 20.0521 73.5381 19.9882 73.8164C19.9107 74.1176 19.8513 74.3936 19.8103 74.6446C19.7281 75.151 19.6323 75.7921 19.5228 76.5678C19.4179 77.3434 19.3198 78.1282 19.2285 78.9221C18.9821 81.0986 18.843 82.6202 18.811 83.4872C18.7928 83.7609 18.7791 83.9389 18.77 84.021C18.7472 84.2035 18.6627 84.3472 18.5167 84.4522C18.3707 84.5617 18.1791 84.6164 17.9418 84.6164ZM29.5719 76.91C29.5719 77.0058 29.5491 77.1449 29.5035 77.3275C29.4624 77.51 29.4373 77.6172 29.4282 77.6491C29.346 77.9822 29.2981 78.1898 29.2844 78.2719C29.1658 78.8514 29.0289 79.6841 28.8738 80.77C28.7232 81.856 28.6479 82.5632 28.6479 82.8917C28.6479 83.0377 28.6616 83.2248 28.689 83.4529C28.7164 83.6719 28.7301 83.8385 28.7301 83.9526C28.7301 84.1488 28.6685 84.3085 28.5453 84.4316C28.4266 84.5548 28.2669 84.6164 28.0662 84.6164C27.8015 84.6164 27.6076 84.5252 27.4844 84.3427C27.3658 84.1556 27.3065 83.9092 27.3065 83.6035C27.3065 83.3389 27.3247 83.0377 27.3612 82.7001C27.0236 83.3115 26.6266 83.7951 26.1704 84.151C25.7141 84.5069 25.2555 84.6849 24.7947 84.6849C24.2974 84.6849 23.8707 84.5617 23.5149 84.3153C23.1635 84.0689 22.8943 83.7062 22.7072 83.2271C22.5202 82.7434 22.4266 82.1571 22.4266 81.4681C22.4266 80.5465 22.6046 79.6818 22.9605 78.8742C23.3164 78.0666 23.7955 77.4233 24.3977 76.9442C25.0046 76.4605 25.6639 76.2187 26.3757 76.2187C26.7407 76.2187 27.0601 76.2894 27.3339 76.4309C27.6122 76.5678 27.854 76.7776 28.0593 77.0605C28.0958 76.8005 28.1848 76.6043 28.3263 76.4719C28.4723 76.3396 28.6662 76.2735 28.908 76.2735C29.0905 76.2735 29.2457 76.3351 29.3734 76.4583C29.5057 76.5814 29.5719 76.732 29.5719 76.91ZM24.9042 83.5282C25.2099 83.5282 25.5453 83.3777 25.9103 83.0765C26.2753 82.7708 26.6175 82.367 26.9369 81.8651C27.2609 81.3632 27.5164 80.8316 27.7035 80.2704L27.7514 79.9351C27.8563 79.1594 27.9316 78.4955 27.9772 77.9434C27.9362 77.9571 27.8928 77.964 27.8472 77.964C27.7285 77.964 27.6168 77.916 27.5118 77.8202C27.3339 77.6514 27.1605 77.5237 26.9917 77.437C26.8274 77.3457 26.6335 77.3001 26.4099 77.3001C25.9445 77.3001 25.4974 77.5008 25.0685 77.9024C24.6441 78.3039 24.3019 78.8332 24.0418 79.4902C23.7818 80.1472 23.6517 80.8339 23.6517 81.5503C23.6517 82.2301 23.7544 82.7297 23.9597 83.0491C24.1696 83.3685 24.4844 83.5282 24.9042 83.5282ZM34.9738 84.6849C34.4354 84.6849 33.9677 84.564 33.5708 84.3221C33.1738 84.0803 32.8658 83.7244 32.6468 83.2545C32.4278 82.7845 32.3183 82.2164 32.3183 81.5503C32.3183 80.6286 32.4689 79.7594 32.77 78.9427C33.0712 78.1259 33.5023 77.4689 34.0635 76.9716C34.6293 76.4697 35.2864 76.2187 36.0347 76.2187C36.4042 76.2187 36.7624 76.3191 37.1092 76.5198C37.4605 76.7206 37.7434 76.9761 37.9578 77.2864C38.1769 77.5967 38.2864 77.9046 38.2864 78.2103C38.2864 78.3472 38.2544 78.4704 38.1905 78.5799C38.1312 78.6894 38.0537 78.7761 37.9578 78.84C37.862 78.8993 37.7639 78.929 37.6636 78.929C37.5449 78.929 37.4423 78.8948 37.3556 78.8263C37.2734 78.7533 37.205 78.6347 37.1502 78.4704C37.0179 78.0917 36.8491 77.8065 36.6438 77.6149C36.443 77.4187 36.1875 77.3206 35.8772 77.3206C35.4803 77.3206 35.1039 77.5237 34.748 77.9297C34.3921 78.3313 34.1069 78.8628 33.8924 79.5244C33.678 80.1815 33.5708 80.8681 33.5708 81.5845C33.5708 82.2233 33.694 82.7183 33.9404 83.0697C34.1913 83.421 34.5358 83.5967 34.9738 83.5967C35.3388 83.5967 35.6674 83.5145 35.9594 83.3503C36.2559 83.186 36.5457 82.894 36.8286 82.4742C36.9381 82.3145 37.0544 82.2005 37.1776 82.132C37.3008 82.0636 37.44 82.0294 37.5951 82.0294C37.7366 82.0294 37.8552 82.0887 37.951 82.2073C38.0514 82.3259 38.1016 82.4697 38.1016 82.6385C38.1016 82.9579 37.9464 83.2773 37.6362 83.5967C37.3305 83.9161 36.9335 84.1761 36.4453 84.3769C35.9616 84.5822 35.4712 84.6849 34.9738 84.6849ZM46.4944 82.0567C46.6769 82.0567 46.8297 82.1183 46.9529 82.2415C47.0761 82.3602 47.1377 82.5062 47.1377 82.6796C47.1377 82.9807 46.9689 83.2887 46.6313 83.6035C46.2936 83.9138 45.8693 84.1716 45.3583 84.3769C44.8518 84.5822 44.3659 84.6849 43.9005 84.6849C43.3347 84.6849 42.8396 84.5617 42.4153 84.3153C41.9909 84.0689 41.6624 83.7153 41.4297 83.2545C41.197 82.7891 41.0807 82.2415 41.0807 81.6119C41.0807 80.7495 41.2586 79.9008 41.6145 79.0659C41.9704 78.2309 42.4586 77.5487 43.0792 77.0195C43.6997 76.4856 44.3887 76.2187 45.1461 76.2187C45.6115 76.2187 46.0107 76.31 46.3438 76.4925C46.6769 76.6704 46.9301 76.9259 47.1035 77.259C47.2814 77.5875 47.3704 77.9754 47.3704 78.4225C47.3704 79.0385 47.1286 79.5723 46.6449 80.024C46.1613 80.4757 45.5362 80.8225 44.7697 81.0643C44.0077 81.3062 43.2115 81.4385 42.3811 81.4613V81.5913C42.3811 82.2301 42.5088 82.7389 42.7643 83.1176C43.0198 83.4963 43.3894 83.6856 43.8731 83.6856C44.2427 83.6856 44.5894 83.5875 44.9134 83.3913C45.2373 83.1906 45.5613 82.8484 45.8853 82.3647C45.9491 82.2643 46.0335 82.1891 46.1385 82.1389C46.2434 82.0841 46.3621 82.0567 46.4944 82.0567ZM45.0024 77.3548C44.6008 77.3548 44.2267 77.5054 43.8799 77.8065C43.5377 78.1031 43.2457 78.4932 43.0039 78.9769C42.7666 79.4605 42.5955 79.9761 42.4906 80.5237C43.0381 80.5054 43.597 80.4005 44.1674 80.2088C44.7423 80.0172 45.2191 79.7594 45.5978 79.4354C45.9765 79.1115 46.1659 78.7556 46.1659 78.3678C46.1659 78.1761 46.1157 78.005 46.0153 77.8545C45.9195 77.6993 45.7826 77.5784 45.6046 77.4917C45.4267 77.4005 45.2259 77.3548 45.0024 77.3548ZM55.0446 76.2187C55.2682 76.2187 55.4484 76.2849 55.5853 76.4172C55.7267 76.5449 55.7974 76.716 55.7974 76.9305C55.7974 77.1358 55.7358 77.3069 55.6127 77.4438C55.494 77.5807 55.3366 77.6491 55.1404 77.6491C54.9077 77.6491 54.7229 77.656 54.586 77.6697C54.4492 77.6788 54.3077 77.7084 54.1617 77.7586C54.0157 77.8043 53.8651 77.8818 53.71 77.9913C53.3495 78.2423 53.0028 78.6392 52.6697 79.1822C52.3412 79.7206 52.0834 80.3069 51.8963 80.9411C51.6955 82.5427 51.5952 83.5465 51.5952 83.9526C51.5952 84.1488 51.5199 84.3085 51.3693 84.4316C51.2187 84.5548 51.0248 84.6164 50.7876 84.6164C50.5822 84.6164 50.4134 84.5571 50.2811 84.4385C50.1488 84.3199 50.0826 84.1716 50.0826 83.9936C50.0826 83.9206 50.0963 83.818 50.1237 83.6856C50.151 83.5533 50.183 83.4119 50.2195 83.2613C50.2651 83.0834 50.313 82.8735 50.3632 82.6316C50.4818 82.0567 50.6187 81.2354 50.7739 80.1678C50.929 79.1001 51.0066 78.3997 51.0066 78.0666C51.0066 77.9069 50.9929 77.6993 50.9655 77.4438C50.9472 77.2339 50.9381 77.0833 50.9381 76.9921C50.9381 76.7685 50.9952 76.5951 51.1092 76.4719C51.2233 76.3487 51.3853 76.2871 51.5952 76.2871C51.878 76.2871 52.072 76.3852 52.1769 76.5814C52.2818 76.7776 52.3343 77.0628 52.3343 77.437C52.3343 77.624 52.3092 77.948 52.259 78.4088L52.2385 78.5731C52.6218 77.802 53.053 77.2179 53.532 76.821C54.0157 76.4195 54.5199 76.2187 55.0446 76.2187ZM58.8929 84.6164C58.6648 84.6164 58.4823 84.5503 58.3454 84.418C58.2085 84.2856 58.14 84.1145 58.14 83.9046C58.14 83.818 58.188 83.5533 58.2838 83.1107C58.4207 82.4674 58.5416 81.856 58.6465 81.2765C58.756 80.697 58.861 80.0081 58.9613 79.2096C59.1895 77.4301 59.3423 76.1662 59.4199 75.4179C59.502 74.6651 59.5431 74.1495 59.5431 73.8712C59.5431 73.6294 59.6229 73.4423 59.7826 73.31C59.9423 73.1731 60.1613 73.1046 60.4397 73.1046C60.6359 73.1046 60.7956 73.1662 60.9188 73.2894C61.042 73.4126 61.1035 73.5632 61.1035 73.7411C61.1035 73.8096 61.0899 73.9122 61.0625 74.0491C61.0397 74.186 61.01 74.3434 60.9735 74.5214C60.8503 75.1054 60.7271 75.7465 60.6039 76.4446C60.4853 77.1427 60.3575 78.0438 60.2207 79.148C60.0792 80.2704 59.9606 81.2697 59.8648 82.1457C59.7735 83.0218 59.7188 83.6149 59.7005 83.9252C59.6914 84.1351 59.6138 84.3016 59.4678 84.4248C59.3264 84.5526 59.1347 84.6164 58.8929 84.6164ZM71.2211 73.1046C71.4538 73.1046 71.6522 73.1548 71.8165 73.2552C71.9853 73.3556 72.0697 73.5221 72.0697 73.7548C72.0697 74.0103 71.9922 74.2043 71.837 74.3366C71.6865 74.4643 71.472 74.5282 71.1937 74.5282C71.0933 74.5282 70.8925 74.5145 70.5914 74.4871C70.2675 74.4598 69.9777 74.437 69.7222 74.4187C69.4713 74.4005 69.1336 74.389 68.7093 74.3845C68.5815 75.0278 68.4606 75.6871 68.3465 76.3624C68.2325 77.0332 68.1024 77.9617 67.9564 79.148C67.815 80.2704 67.6963 81.2697 67.6005 82.1457C67.5093 83.0218 67.4545 83.6149 67.4363 83.9252C67.4271 84.1351 67.3496 84.3016 67.2036 84.4248C67.0621 84.5526 66.8705 84.6164 66.6287 84.6164C66.4005 84.6164 66.218 84.5503 66.0811 84.418C65.9443 84.2856 65.8758 84.1145 65.8758 83.9046C65.8758 83.8499 65.8895 83.7427 65.9169 83.583C65.9488 83.4233 65.9876 83.2385 66.0332 83.0286C66.161 82.4035 66.2773 81.8058 66.3823 81.2354C66.4872 80.6605 66.5922 79.9853 66.6971 79.2096C67.0576 76.6088 67.2629 74.9982 67.3131 74.3776L65.123 74.3845C64.9176 74.3845 64.742 74.3297 64.596 74.2202C64.45 74.1107 64.377 73.9533 64.377 73.748C64.377 73.5472 64.4408 73.3898 64.5686 73.2757C64.6963 73.1617 64.872 73.1046 65.0956 73.1046C65.3967 73.1046 65.691 73.1115 65.9785 73.1252C66.5443 73.1525 67.272 73.1662 68.1617 73.1662C68.8005 73.1662 69.4804 73.1525 70.2013 73.1252C70.3473 73.1206 70.5047 73.116 70.6735 73.1115C70.8469 73.1069 71.0294 73.1046 71.2211 73.1046Z" fill="white"/>
<path d="M12.0726 2.74111C12.4879 0.664557 14.6683 0.491511 15.7065 0.664557C35.7799 9.73218 42.3557 19.2093 43.1344 22.8145C30.1213 15.4773 18.5618 26.2754 14.4087 32.5916C12.7922 35.05 10.0826 41.0132 9.39036 43.7531C6.48318 38.2156 8.17904 30.3132 9.39036 27.0541C12.0207 19.3709 17.4659 14.6813 19.8597 13.2969C19.8597 10.2179 17.9949 10.9101 17.0044 11.5665L12.0726 15.5465V2.74111Z" fill="url(#paint0_radial_2502_4970)"/>
<path d="M74.267 30.5646C75.9828 31.8057 75.2336 33.8606 74.6445 34.733C58.0512 49.2183 46.6979 51.258 43.0954 50.4672C55.1792 41.6832 50.1654 26.6805 46.148 20.2771C44.5843 17.7847 40.2878 12.8409 38.0838 11.0721C44.3287 10.7307 50.8105 15.5589 53.2708 18.0157C59.1646 23.6026 61.1654 30.5047 61.429 33.2574C64.2293 34.5376 64.3751 32.5539 64.19 31.3802L62.621 25.24L74.267 30.5646Z" fill="url(#paint1_radial_2502_4970)"/>
<path d="M14.6862 67.4011C12.6222 67.8746 11.5695 65.9573 11.3012 64.9395C11.3322 42.9132 17.2758 33.0273 20.2438 30.8376C18.8934 45.7155 33.4842 51.8252 40.9484 53.0204C43.8537 53.4856 50.4036 53.5093 53.1862 53.0161C49.3296 57.9397 41.4273 59.6364 37.9582 59.8692C29.8724 60.6238 23.3612 57.5828 21.1164 55.968C18.3086 57.2316 19.7051 58.6481 20.7102 59.2819L26.3636 62.1459L14.6862 67.4011Z" fill="url(#paint2_radial_2502_4970)"/>
<defs>
<radialGradient id="paint0_radial_2502_4970" cx="0" cy="0" r="1" gradientUnits="userSpaceOnUse" gradientTransform="translate(34.0882 7.01654) rotate(130.038) scale(38.1978 31.3001)">
<stop stop-color="#5598F7"/>
<stop offset="1" stop-color="#5C35C1"/>
</radialGradient>
<radialGradient id="paint1_radial_2502_4970" cx="0" cy="0" r="1" gradientUnits="userSpaceOnUse" gradientTransform="translate(51.0186 34.6553) rotate(114.57) scale(17.6746 21.5696)">
<stop stop-color="#32A8FC"/>
<stop offset="1" stop-color="#2166C0"/>
</radialGradient>
<radialGradient id="paint2_radial_2502_4970" cx="0" cy="0" r="1" gradientUnits="userSpaceOnUse" gradientTransform="translate(15.2269 37.6457) rotate(44.0978) scale(31.0838 37.9339)">
<stop stop-color="#B986FB"/>
<stop offset="1" stop-color="#6883E2"/>
</radialGradient>
</defs>
</svg>
