<svg width="59" height="56" viewBox="0 0 59 56" fill="none" xmlns="http://www.w3.org/2000/svg">
<rect width="59" height="56" rx="10" fill="url(#paint0_linear_2710_1830)"/>
<path d="M29.2632 13C26.1364 13 23.1377 14.2643 20.9267 16.5147C18.7158 18.7652 17.4737 21.8174 17.4737 25V27.85C17.0291 28.2443 16.6689 28.7273 16.4154 29.2692C16.1619 29.8111 16.0205 30.4002 16 31C16.0336 31.8698 16.3245 32.7089 16.8346 33.4075C17.3448 34.1061 18.0504 34.6316 18.8589 34.915C20.7747 39.58 24.6211 43 29.2632 43H33.6842V40H29.2632C25.9326 40 22.9116 37.45 21.3937 33.415L21.0842 32.59L20.2147 32.5C19.8606 32.4491 19.5368 32.2688 19.3037 31.9928C19.0705 31.7168 18.9438 31.364 18.9474 31C18.9489 30.7382 19.0178 30.4814 19.147 30.2551C19.2763 30.0288 19.4615 29.8409 19.6842 29.71L20.4211 29.275V26.5C20.4211 26.1022 20.5763 25.7206 20.8527 25.4393C21.1291 25.158 21.5039 25 21.8947 25H36.6316C37.0224 25 37.3973 25.158 37.6736 25.4393C37.95 25.7206 38.1053 26.1022 38.1053 26.5V34H32.0779C31.9441 33.6181 31.7114 33.2802 31.4045 33.0218C31.0976 32.7635 30.7277 32.5943 30.3341 32.5323C29.9405 32.4702 29.5378 32.5176 29.1684 32.6693C28.7991 32.821 28.4769 33.0715 28.2359 33.3943C27.9949 33.7171 27.844 34.1001 27.7993 34.503C27.7545 34.9058 27.8175 35.3135 27.9817 35.6829C28.1458 36.0523 28.4049 36.3697 28.7317 36.6015C29.0584 36.8334 29.4406 36.971 29.8379 37H41.0526C41.8343 37 42.584 36.6839 43.1367 36.1213C43.6895 35.5587 44 34.7956 44 34V31C44 30.2044 43.6895 29.4413 43.1367 28.8787C42.584 28.3161 41.8343 28 41.0526 28V25C41.0526 21.8174 39.8105 18.7652 37.5996 16.5147C35.3886 14.2643 32.3899 13 29.2632 13Z" fill="white"/>
<defs>
<linearGradient id="paint0_linear_2710_1830" x1="59" y1="0" x2="3.07617" y2="58.9198" gradientUnits="userSpaceOnUse">
<stop stop-color="#5498F7"/>
<stop offset="1" stop-color="#5C3CAF"/>
</linearGradient>
</defs>
</svg>
