<svg width="77" height="77" viewBox="0 0 77 77" fill="none" xmlns="http://www.w3.org/2000/svg">
<circle cx="38.5" cy="38.5" r="37.5" fill="white" fill-opacity="0.2" stroke="#E2E0FD" stroke-width="2"/>
<path fill-rule="evenodd" clip-rule="evenodd" d="M51.375 26.625C51.375 27.8676 52.3823 28.875 53.625 28.875C54.8677 28.875 55.875 27.8676 55.875 26.625C55.875 25.3824 54.8677 24.375 53.625 24.375C52.3823 24.375 51.375 25.3824 51.375 26.625ZM53.625 31.125C51.1397 31.125 49.125 29.1103 49.125 26.625C49.125 24.1397 51.1397 22.125 53.625 22.125C56.1103 22.125 58.125 24.1397 58.125 26.625C58.125 29.1103 56.1103 31.125 53.625 31.125Z" fill="url(#paint0_linear_2074_765)"/>
<path fill-rule="evenodd" clip-rule="evenodd" d="M19.875 27.75C19.875 30.8566 22.3934 33.375 25.5 33.375C26.3634 33.375 27.1814 33.1805 27.9124 32.8329C27.9584 32.9086 28.0141 32.9801 28.0795 33.0455L32.2408 37.2067C31.5323 38.3887 31.125 39.7717 31.125 41.25C31.125 45.5993 34.6508 49.125 39 49.125C39.8667 49.125 40.7008 48.9851 41.4806 48.7263L42.0755 49.9163C40.8974 50.7277 40.125 52.0862 40.125 53.625C40.125 56.1104 42.1397 58.125 44.625 58.125C47.1103 58.125 49.125 56.1104 49.125 53.625C49.125 51.1397 47.1103 49.125 44.625 49.125C44.4835 49.125 44.3435 49.1315 44.2052 49.1444L43.4923 47.7188C45.5369 46.2963 46.875 43.9293 46.875 41.25C46.875 39.477 46.2891 37.841 45.3005 36.5248C45.3423 36.4933 45.3823 36.4586 45.4206 36.4206L48.7956 33.0455C49.2348 32.6062 49.2348 31.8938 48.7956 31.4545C48.3562 31.0152 47.6438 31.0152 47.2044 31.4545L43.8294 34.8294C43.7914 34.8677 43.7567 34.9077 43.7252 34.9495C42.409 33.9609 40.773 33.375 39 33.375C36.944 33.375 35.0719 34.163 33.6694 35.4533L29.7037 31.4877C30.5879 30.494 31.125 29.1847 31.125 27.75C31.125 24.6434 28.6066 22.125 25.5 22.125C22.3934 22.125 19.875 24.6434 19.875 27.75ZM25.5 31.125C23.636 31.125 22.125 29.614 22.125 27.75C22.125 25.886 23.636 24.375 25.5 24.375C27.364 24.375 28.875 25.886 28.875 27.75C28.875 29.614 27.364 31.125 25.5 31.125ZM44.625 55.875C43.3823 55.875 42.375 54.8677 42.375 53.625C42.375 52.3823 43.3823 51.375 44.625 51.375C45.8677 51.375 46.875 52.3823 46.875 53.625C46.875 54.8677 45.8677 55.875 44.625 55.875ZM39 46.875C35.8934 46.875 33.375 44.3566 33.375 41.25C33.375 38.1434 35.8934 35.625 39 35.625C42.1066 35.625 44.625 38.1434 44.625 41.25C44.625 44.3566 42.1066 46.875 39 46.875Z" fill="url(#paint1_linear_2074_765)"/>
<defs>
<linearGradient id="paint0_linear_2074_765" x1="49.125" y1="26.625" x2="58.125" y2="26.625" gradientUnits="userSpaceOnUse">
<stop stop-color="#5D3DAF"/>
<stop offset="1" stop-color="#5598F7"/>
</linearGradient>
<linearGradient id="paint1_linear_2074_765" x1="19.875" y1="40.125" x2="49.125" y2="40.125" gradientUnits="userSpaceOnUse">
<stop stop-color="#5D3DAF"/>
<stop offset="1" stop-color="#5598F7"/>
</linearGradient>
</defs>
</svg>
