<svg width="59" height="56" viewBox="0 0 59 56" fill="none" xmlns="http://www.w3.org/2000/svg">
<rect width="59" height="56" rx="10" fill="url(#paint0_linear_2710_1817)"/>
<path d="M26.2338 40.5903C25.6558 40.5903 25.1836 40.1181 25.1836 39.5401C25.1836 38.9621 25.6558 38.4899 26.2338 38.4899C26.8118 38.4899 27.284 38.9621 27.284 39.5401C27.2881 40.1181 26.8118 40.5903 26.2338 40.5903Z" fill="white"/>
<path d="M20.8882 21.7599C20.3346 21.7599 19.8828 22.2117 19.8828 22.7653C19.8828 23.3189 20.3346 23.7707 20.8882 23.7707C21.4418 23.7707 21.8937 23.3189 21.8937 22.7653C21.8937 22.2117 21.4418 21.7599 20.8882 21.7599ZM41.3306 30.8617C40.1338 30.8617 39.1569 31.8386 39.1569 33.0353C39.1569 34.2321 40.1338 35.209 41.3306 35.209C42.5273 35.209 43.5043 34.2321 43.5043 33.0353C43.5043 31.8386 42.5273 30.8617 41.3306 30.8617Z" fill="white"/>
<path d="M41.3276 30.0475C39.6791 30.0475 38.3398 31.3867 38.3398 33.0353C38.3398 34.6838 39.6791 36.0231 41.3276 36.0231C42.9762 36.0231 44.3154 34.6838 44.3154 33.0353C44.3154 31.3867 42.9762 30.0475 41.3276 30.0475ZM39.154 33.0353C39.154 31.8385 40.1309 30.8616 41.3276 30.8616C42.5244 30.8616 43.5013 31.8385 43.5013 33.0353C43.5013 34.232 42.5244 35.209 41.3276 35.209C40.1268 35.209 39.154 34.232 39.154 33.0353Z" fill="white"/>
<path d="M23.4853 29.5672C23.0213 29.5672 22.6468 29.9417 22.6468 30.4057C22.6468 30.8698 23.0213 31.2443 23.4853 31.2443C23.9494 31.2443 24.3239 30.8698 24.3239 30.4057C24.3239 29.9417 23.9453 29.5672 23.4853 29.5672ZM13.8218 24.4912C13.2682 24.4912 12.8164 24.943 12.8164 25.4966C12.8164 26.0502 13.2682 26.5021 13.8218 26.5021C14.3754 26.5021 14.8273 26.0502 14.8273 25.4966C14.8273 24.943 14.3754 24.4912 13.8218 24.4912Z" fill="white"/>
<path d="M16.3921 24.2184C16.3189 24.0067 16.0909 23.8928 15.8752 23.962L15.114 24.2184C14.7843 23.8846 14.3284 23.677 13.8195 23.677C12.8182 23.677 12 24.4911 12 25.4966C12 26.502 12.8141 27.3161 13.8195 27.3161C14.825 27.3161 15.6391 26.502 15.6391 25.4966C15.6391 25.3012 15.6065 25.1099 15.5495 24.9348L16.1357 24.7394C16.3474 24.6621 16.4613 24.4341 16.3921 24.2184ZM13.8236 26.4979C13.27 26.4979 12.8182 26.0461 12.8182 25.4925C12.8182 24.9389 13.27 24.4871 13.8236 24.4871C14.3772 24.4871 14.829 24.9389 14.829 25.4925C14.829 26.0461 14.3772 26.4979 13.8236 26.4979ZM22.0095 24.7394L21.867 24.2917C22.3677 23.966 22.7015 23.4043 22.7015 22.7652C22.7015 21.7639 21.8874 20.9457 20.882 20.9457C19.8765 20.9457 19.0624 21.7598 19.0624 22.7652C19.0624 23.7706 19.8765 24.5848 20.882 24.5848C20.9552 24.5848 21.0285 24.5807 21.0977 24.5725L21.228 24.9877C21.2809 25.1628 21.4437 25.2727 21.6147 25.2727C21.6554 25.2727 21.6961 25.2645 21.7368 25.2523C21.9607 25.1831 22.0787 24.9511 22.0095 24.7394ZM21.2564 23.6974C21.2402 23.7014 21.2239 23.7096 21.2117 23.7137C21.1099 23.7503 21 23.7706 20.886 23.7706C20.3324 23.7706 19.8806 23.3188 19.8806 22.7652C19.8806 22.2116 20.3324 21.7598 20.886 21.7598C21.4396 21.7598 21.8915 22.2116 21.8915 22.7652C21.8915 23.1845 21.6269 23.5468 21.2564 23.6974ZM22.3596 27.597C22.4003 27.597 22.441 27.5888 22.4817 27.5766C22.6974 27.5074 22.8155 27.2795 22.7463 27.0678L22.502 26.2903C22.4328 26.0746 22.2049 25.9565 21.9932 26.0257C21.7775 26.0949 21.6594 26.3229 21.7286 26.5346L21.9729 27.312C22.0258 27.4871 22.1845 27.597 22.3596 27.597ZM26.4301 27.9063L26.1045 28.1546C25.9254 28.289 25.8887 28.5454 26.0271 28.7245C26.1085 28.8303 26.2307 28.8833 26.3528 28.8833C26.4383 28.8833 26.5237 28.8548 26.597 28.8019L26.9227 28.5535C27.1018 28.4192 27.1384 28.1628 27 27.9837C26.8657 27.8046 26.6092 27.772 26.4301 27.9063ZM30.2402 25.521C30.1058 25.3419 29.8494 25.3052 29.6703 25.4436L29.3446 25.6919C29.1655 25.8263 29.1289 26.0827 29.2673 26.2618C29.3487 26.3677 29.4708 26.4206 29.5929 26.4206C29.6784 26.4206 29.7639 26.3921 29.8372 26.3392L30.1628 26.0909C30.3419 25.9565 30.3786 25.7001 30.2402 25.521ZM28.0502 26.673L27.7246 26.9213C27.5455 27.0556 27.5088 27.312 27.6472 27.4911C27.7286 27.597 27.8507 27.6499 27.9729 27.6499C28.0583 27.6499 28.1438 27.6214 28.2171 27.5685L28.5427 27.3202C28.7218 27.1858 28.7585 26.9294 28.6201 26.7503C28.4858 26.5753 28.2293 26.5386 28.0502 26.673ZM24.81 29.1397L24.6635 29.2496C24.3623 28.9443 23.9471 28.753 23.4871 28.753C23.4179 28.753 23.3528 28.7571 23.2877 28.7652L23.2429 28.6187C23.1737 28.4029 22.9457 28.2849 22.73 28.3541C22.5142 28.4233 22.3962 28.6512 22.4654 28.867L22.5265 29.0664C22.1072 29.3677 21.8345 29.8561 21.8345 30.4097C21.8345 31.3215 22.5753 32.0624 23.4871 32.0624C24.3989 32.0624 25.1398 31.3215 25.1398 30.4097C25.1398 30.255 25.1194 30.1044 25.0787 29.962L25.3026 29.791C25.4817 29.6567 25.5183 29.4002 25.3799 29.2211C25.2456 29.0379 24.9891 29.0013 24.81 29.1397ZM22.6486 30.4057C22.6486 29.9416 23.0231 29.5671 23.4871 29.5671C23.9512 29.5671 24.3256 29.9416 24.3256 30.4057C24.3256 30.8697 23.9512 31.2442 23.4871 31.2442C23.0231 31.2442 22.6486 30.8697 22.6486 30.4057Z" fill="white"/>
<path d="M43.7635 24.2266H35.7486V16.0855C35.7486 14.384 34.3646 13 32.6631 13H19.8042C18.1027 13 16.7188 14.384 16.7188 16.0855V39.9145C16.7188 41.616 18.1027 43 19.8042 43H43.7595C45.4609 43 46.8449 41.6323 46.8449 39.9512V27.2795C46.849 25.5943 45.465 24.2266 43.7635 24.2266ZM32.6672 41.3718H19.8042C19.0023 41.3718 18.347 40.7205 18.347 39.9145V23.9905L18.4487 23.9579C18.6604 23.8847 18.7744 23.6567 18.7052 23.441C18.6523 23.2822 18.5057 23.1764 18.351 23.1642V16.0896C18.351 15.2877 19.0023 14.6323 19.8083 14.6323H32.6672C33.4691 14.6323 34.1244 15.2836 34.1244 16.0896V25.0488C34.0471 25.057 33.9657 25.0896 33.9006 25.1425C33.7296 25.289 33.7093 25.5455 33.8558 25.7164L34.1204 26.0258L34.1244 26.0299V39.9186C34.1204 40.7205 33.4691 41.3718 32.6672 41.3718ZM45.2208 39.9512C45.2208 40.7368 44.5695 41.3718 43.7635 41.3718H35.3863C35.6183 40.9362 35.7527 40.4437 35.7527 39.9145V27.7151C35.8463 27.7151 35.9399 27.6825 36.0132 27.6174C36.1842 27.4708 36.2045 27.2144 36.058 27.0434L35.7934 26.7341C35.7812 26.7178 35.7649 26.7056 35.7486 26.6893V25.8548H43.7635C44.5654 25.8548 45.2208 26.4939 45.2208 27.2754V39.9512Z" fill="white"/>
<path d="M38.4341 29.8317C38.2876 29.6608 38.0311 29.6404 37.8602 29.7869C37.6892 29.9335 37.6688 30.1899 37.8154 30.3609L38.08 30.6703C38.1614 30.7639 38.2754 30.8127 38.3893 30.8127C38.483 30.8127 38.5766 30.7802 38.6539 30.715C38.8249 30.5685 38.8452 30.312 38.6987 30.1411L38.4341 29.8317ZM37.1112 28.2849C36.9646 28.114 36.7082 28.0936 36.5372 28.2401C36.3663 28.3867 36.3459 28.6431 36.4925 28.8141L36.757 29.1234C36.8385 29.2171 36.9524 29.2659 37.0664 29.2659C37.16 29.2659 37.2537 29.2334 37.331 29.1682C37.502 29.0217 37.5223 28.7652 37.3758 28.5943L37.1112 28.2849Z" fill="white"/>
<path d="M32.9165 20.3718C31.5488 20.3718 30.4375 21.4831 30.4375 22.8508C30.4375 24.2185 31.5488 25.3298 32.9165 25.3298C34.2842 25.3298 35.3954 24.2185 35.3954 22.8508C35.3954 21.4831 34.2842 20.3718 32.9165 20.3718Z" fill="white"/>
<path d="M32.9142 19.5576C31.0987 19.5576 29.6211 21.0352 29.6211 22.8507C29.6211 24.6662 31.0987 26.1438 32.9142 26.1438C34.7296 26.1438 36.2073 24.6662 36.2073 22.8507C36.2073 21.0352 34.7296 19.5576 32.9142 19.5576ZM30.4393 22.8507C30.4393 21.483 31.5505 20.3717 32.9182 20.3717C34.286 20.3717 35.3972 21.483 35.3972 22.8507C35.3972 24.2184 34.286 25.3297 32.9182 25.3297C31.5505 25.3297 30.4393 24.2184 30.4393 22.8507Z" fill="white"/>
<defs>
<linearGradient id="paint0_linear_2710_1817" x1="59" y1="0" x2="3.07617" y2="58.9198" gradientUnits="userSpaceOnUse">
<stop stop-color="#5498F7"/>
<stop offset="1" stop-color="#5C3CAF"/>
</linearGradient>
</defs>
</svg>
