<svg width="39" height="39" viewBox="0 0 39 39" fill="none" xmlns="http://www.w3.org/2000/svg">
<circle cx="19.5" cy="19.5" r="19.5" fill="url(#paint0_linear_2502_7104)"/>
<g clip-path="url(#clip0_2502_7104)">
<path fill-rule="evenodd" clip-rule="evenodd" d="M24.2173 20.1907C26.0722 18.8057 28.7207 19.1542 30.1357 20.9722C31.5489 22.7902 31.1932 25.386 29.3383 26.7729C27.4834 28.158 24.8349 27.8094 23.4199 25.9914C23.0549 25.5218 22.8078 25.0008 22.6749 24.4614L20.0077 24.7862C19.7457 24.821 19.5061 24.6412 19.4705 24.3844C19.4349 24.1276 19.6184 23.8927 19.8804 23.8579L22.557 23.5332C22.5402 22.2674 23.1148 21.0144 24.2173 20.1907ZM20.0096 10.4128C22.0123 9.44049 24.4419 10.244 25.4339 12.2069C26.4259 14.1699 25.6061 16.551 23.6033 17.5233C22.0479 18.2773 20.2379 17.9636 19.0419 16.8666L17.129 18.5195C16.9324 18.6919 16.6311 18.6754 16.4551 18.4828C16.2792 18.2902 16.296 17.9948 16.4926 17.8224L18.4261 16.1511C18.3362 16.0172 18.2539 15.8759 18.179 15.7292C17.187 13.7663 18.0068 11.3851 20.0096 10.4128ZM8.82777 23.5552C8.40475 23.7442 8.27935 24.2138 8.35609 24.7146C8.39165 24.9439 8.46839 25.1751 8.57508 25.397C8.68364 25.619 8.82215 25.8227 8.98687 25.9914C9.36309 26.3803 9.86659 26.5785 10.3869 26.3216C10.4281 26.3033 10.4712 26.2996 10.5086 26.3125C10.518 26.3088 10.5236 26.3033 10.5367 26.2996C10.6696 26.2391 10.7894 26.184 10.8979 26.1327C11.0215 26.0776 11.1375 26.0281 11.2479 25.9804C11.334 25.9456 11.4332 25.9859 11.4669 26.0666C11.4707 26.0721 11.4725 26.0795 11.4725 26.085L11.5512 26.2905C11.7533 26.8225 11.948 27.338 12.1726 27.7434C12.1763 27.7489 12.2044 27.8076 12.2362 27.8626C12.3729 28.1195 12.5226 28.3965 12.6836 28.5487C12.8258 28.6808 12.9999 28.7028 13.2357 28.468C13.2788 28.4166 13.3218 28.3671 13.3649 28.3194C13.5034 28.1653 13.64 28.0131 13.6718 27.8094C13.6288 27.7654 13.5558 27.747 13.4828 27.7269C13.2395 27.6608 12.9999 27.5985 12.9924 27.116V27.0463C12.9924 26.905 12.9887 26.8335 12.9793 26.8059C12.9737 26.7894 12.9325 26.7638 12.8558 26.7106L12.8258 26.6922C12.6742 26.5876 12.5993 26.4207 12.5769 26.2336C12.5488 26.0116 12.5881 25.7584 12.6386 25.575C12.6536 25.5163 12.6985 25.4741 12.7566 25.4576C14.4374 24.9953 15.523 25.1457 16.3896 25.2686C16.4271 25.2741 16.4645 25.2778 16.4982 25.2833C15.6503 24.6321 14.8829 23.579 14.3045 22.4673C13.6924 21.2951 13.29 20.055 13.2226 19.1579C12.6798 20.2329 11.7046 21.9555 9.00558 23.3626C9.00184 23.3626 8.99997 23.3662 8.99622 23.3662L8.97376 23.3754C8.94569 23.3883 8.94194 23.3864 8.93633 23.3938C8.93633 23.4029 8.94382 23.4029 8.93633 23.4194C8.93633 23.4231 8.9382 23.4121 8.91387 23.469C8.89515 23.5075 8.8652 23.535 8.83151 23.5515L8.82777 23.5552ZM15.8749 22.3664C15.931 22.77 15.6278 23.5497 15.3807 23.5956C15.9273 24.3624 16.5525 25.0081 17.2076 25.353C17.245 25.3512 17.275 25.3512 17.3068 25.3457C17.3648 25.3347 17.4191 25.3145 17.4771 25.2668C17.5931 25.1127 17.6493 24.8926 17.6587 24.621C17.6792 23.7882 17.2282 22.5444 16.5974 21.374C15.9685 20.2017 15.1618 19.1102 14.4786 18.5818C14.2278 18.3892 13.9994 18.2755 13.8197 18.2737C13.7729 18.2737 13.7467 18.2737 13.7336 18.2828C13.7205 18.2902 13.698 18.314 13.6662 18.3544C13.6513 18.3727 13.6344 18.3947 13.6176 18.4204C13.6157 18.4277 13.6157 18.4296 13.6138 18.4369C13.4135 19.0423 13.6775 20.2513 14.2221 21.5134C14.4804 21.3501 15.7345 21.3263 15.8786 22.3646L15.8749 22.3664ZM17.2356 25.6814C17.2001 25.6924 17.1645 25.6942 17.1252 25.6796C17.0953 25.6777 17.0616 25.6759 17.0279 25.6722C16.8051 25.6557 16.5824 25.6264 16.3428 25.5933C15.5267 25.4796 14.501 25.3347 12.94 25.7493C12.91 25.8887 12.8913 26.052 12.9082 26.1932C12.9231 26.296 12.955 26.3803 13.0167 26.4244L13.0467 26.4427C13.1796 26.5326 13.247 26.5766 13.29 26.6794C13.3293 26.7656 13.3293 26.861 13.3312 27.0444V27.1141C13.3331 27.3471 13.4547 27.3801 13.5745 27.4132C13.7317 27.4554 13.8871 27.4957 13.9882 27.6865C14.005 27.714 14.0125 27.7452 14.0125 27.7819C13.9938 28.1268 13.8047 28.3359 13.6157 28.5414C13.5745 28.5854 13.5315 28.635 13.494 28.679L13.4847 28.69C13.071 29.1156 12.7378 29.0569 12.4533 28.7927C12.2493 28.6038 12.0902 28.3029 11.9367 28.0241C11.9236 28.0002 11.9105 27.9745 11.8731 27.9085C11.6429 27.4866 11.4426 26.9582 11.2348 26.4152L11.2142 26.3583C11.1543 26.3858 11.0907 26.4115 11.0308 26.439C10.9073 26.4941 10.7875 26.5473 10.6752 26.6023C10.6583 26.6078 10.6508 26.6152 10.6434 26.6188C10.5685 26.6592 10.5385 26.6794 10.4637 26.6555C9.81043 26.9435 9.19276 26.6959 8.73792 26.2244C8.55075 26.03 8.38978 25.7951 8.26812 25.5456C8.14645 25.2961 8.06222 25.0283 8.02105 24.7678C7.92746 24.1459 8.0903 23.5607 8.62562 23.291C8.64621 23.2415 8.65931 23.2176 8.69113 23.1828C8.72669 23.1461 8.75851 23.1314 8.82028 23.0966L8.84274 23.0874C8.84649 23.0874 8.84836 23.0837 8.84836 23.0837C11.6223 21.64 12.5095 19.8495 13.0167 18.8295C13.1571 18.5452 13.2694 18.3195 13.393 18.1617C13.4528 18.0847 13.4996 18.0352 13.5689 18.0003C13.6382 17.9655 13.713 17.9508 13.8178 17.9544C14.0799 17.9581 14.37 18.0975 14.6788 18.3342C15.3995 18.89 16.238 20.0201 16.8856 21.229C17.537 22.4417 18.0068 23.7423 17.9843 24.6339C17.975 24.9806 17.8964 25.2723 17.7242 25.4833C17.7186 25.4906 17.7129 25.4979 17.7036 25.5016C17.5894 25.6025 17.4771 25.6502 17.3554 25.6704C17.3124 25.6759 17.2693 25.6814 17.23 25.6832L17.2356 25.6814ZM20.6179 13.9314L21.7203 12.9261C21.6979 12.8857 21.681 12.8417 21.6679 12.7976C21.5444 12.3959 21.7784 11.9721 22.1883 11.851C22.5982 11.73 23.0306 11.9593 23.1541 12.361C23.2776 12.7628 23.0437 13.1866 22.6338 13.3076C22.4709 13.3553 22.3062 13.348 22.1565 13.2985L20.9979 14.3551C21.0016 14.368 21.0072 14.3808 21.011 14.3937C21.0184 14.4157 21.0241 14.4377 21.0278 14.4615L22.4634 14.7C22.5589 14.5404 22.7142 14.412 22.9108 14.3551C23.3207 14.2341 23.7531 14.4634 23.8766 14.8651C24.0001 15.2669 23.7662 15.6907 23.3563 15.8117C22.9463 15.9328 22.514 15.7035 22.3904 15.3017C22.3867 15.2871 22.3811 15.2706 22.3773 15.2559L20.9249 15.0156C20.8294 15.1678 20.6778 15.2871 20.4887 15.3421C20.0788 15.4632 19.6465 15.2339 19.5229 14.8321C19.3994 14.4304 19.6333 14.0066 20.0433 13.8855C20.2435 13.8231 20.4476 13.847 20.6179 13.9314ZM27.6107 22.1885L28.5597 22.0692C28.8479 22.0326 29.1156 22.2344 29.153 22.5187L29.2728 23.4286C29.3103 23.713 29.1044 23.9735 28.8143 24.0102L28.4062 24.0615C28.4942 24.2817 28.5915 24.4761 28.833 24.6357C28.4062 24.5844 28.0599 24.4156 27.7848 24.1386L27.7137 24.1477C27.6856 24.1514 27.6575 24.1532 27.6276 24.1532C27.768 24.0102 27.8559 23.8395 27.8335 23.6708L27.7829 23.291L27.738 22.948L27.6631 22.3811C27.6538 22.3132 27.6351 22.249 27.6107 22.1885ZM24.9753 22.1133L26.4446 21.928C26.8452 21.8785 27.2139 22.1573 27.2663 22.5499L27.4011 23.579C27.4292 23.7882 27.3038 23.99 27.1222 24.1422C26.9537 24.2835 26.7291 24.3881 26.542 24.4119L26.527 24.4137C26.4166 24.5917 26.2799 24.7495 26.1189 24.8852C25.9411 25.0356 25.7315 25.1586 25.4919 25.2503C25.447 25.2668 25.3946 25.2613 25.3553 25.2264C25.2991 25.1787 25.2935 25.0962 25.3422 25.0412C25.4376 24.9329 25.4957 24.8265 25.535 24.7183C25.5556 24.6577 25.5724 24.5954 25.5836 24.5312L25.2973 24.5678C25.097 24.5935 24.9042 24.5367 24.7563 24.4229C24.6084 24.311 24.5036 24.1422 24.4774 23.9459L24.3427 22.9168C24.2903 22.526 24.5748 22.1646 24.9753 22.1133Z" fill="white"/>
</g>
<defs>
<linearGradient id="paint0_linear_2502_7104" x1="0" y1="19.5" x2="39" y2="19.5" gradientUnits="userSpaceOnUse">
<stop stop-color="#5D3DAF"/>
<stop offset="1" stop-color="#5598F7"/>
</linearGradient>
<clipPath id="clip0_2502_7104">
<rect width="23" height="19" fill="white" transform="translate(8 10)"/>
</clipPath>
</defs>
</svg>
