<svg width="77" height="77" viewBox="0 0 77 77" fill="none" xmlns="http://www.w3.org/2000/svg">
<circle cx="38.5" cy="38.5" r="37.5" fill="white" fill-opacity="0.2" stroke="#E2E0FD" stroke-width="2"/>
<g clip-path="url(#clip0_2074_776)">
<path fill-rule="evenodd" clip-rule="evenodd" d="M38.4829 33.9456C39.6874 33.9455 40.8547 34.3583 41.7859 35.1138C42.7172 35.8693 43.3547 36.9207 43.5899 38.0889C43.8251 39.2571 43.6435 40.4698 43.0759 41.5204C42.5084 42.571 41.59 43.3945 40.4773 43.8507C39.3646 44.3068 38.1264 44.3673 36.9736 44.0219C35.8208 43.6765 34.8248 42.9466 34.1553 41.9564C33.4857 40.9663 33.184 39.7772 33.3016 38.5918C33.4192 37.4064 33.9487 36.2979 34.8 35.4553C35.2832 34.9762 35.8572 34.5963 36.4892 34.3372C37.1212 34.0781 37.7988 33.945 38.4829 33.9456ZM53.5505 46.6204C53.5505 46.2991 53.6795 45.9911 53.9092 45.764C54.1389 45.5368 54.4504 45.4092 54.7752 45.4092C55.1001 45.4092 55.4116 45.5368 55.6413 45.764C55.871 45.9911 56 46.2991 56 46.6204V51.786C56 52.1075 55.8711 52.4159 55.6414 52.6434C55.4118 52.871 55.1003 52.9993 54.7752 53H54.6641H47.4494C47.1359 52.985 46.8402 52.8513 46.6237 52.6266C46.4072 52.4019 46.2864 52.1035 46.2864 51.7931C46.2864 51.4827 46.4072 51.1842 46.6237 50.9595C46.8402 50.7348 47.1359 50.6011 47.4494 50.5862H53.5505V46.6091V46.6204ZM56 31.4106C56 31.7318 55.871 32.0399 55.6413 32.267C55.4116 32.4942 55.1001 32.6218 54.7752 32.6218C54.4504 32.6218 54.1389 32.4942 53.9092 32.267C53.6795 32.0399 53.5505 31.7318 53.5505 31.4106V27.4195H47.4494C47.1359 27.4045 46.8402 27.2708 46.6237 27.0461C46.4072 26.8214 46.2864 26.5229 46.2864 26.2126C46.2864 25.9022 46.4072 25.6037 46.6237 25.379C46.8402 25.1543 47.1359 25.0206 47.4494 25.0056H54.6641H54.7752C55.0998 25.0064 55.4109 25.1342 55.6404 25.3612C55.87 25.5882 55.9992 25.8958 56 26.2168V31.3909V31.4106ZM23.4495 31.3909C23.4495 31.7121 23.3205 32.0202 23.0908 32.2473C22.8611 32.4744 22.5496 32.6021 22.2248 32.6021C21.8999 32.6021 21.5884 32.4744 21.3587 32.2473C21.129 32.0202 21 31.7121 21 31.3909V26.2111C21.0008 25.8902 21.13 25.5825 21.3596 25.3556C21.5891 25.1286 21.9002 25.0007 22.2248 25H22.3359H29.5449C29.8584 25.015 30.1541 25.1487 30.3706 25.3734C30.5871 25.5981 30.7079 25.8965 30.7079 26.2069C30.7079 26.5173 30.5871 26.8158 30.3706 27.0405C30.1541 27.2652 29.8584 27.3989 29.5449 27.4138H23.4495V31.3853V31.3909ZM21 46.6091C21 46.2879 21.129 45.9798 21.3587 45.7527C21.5884 45.5256 21.8999 45.3979 22.2248 45.3979C22.5496 45.3979 22.8611 45.5256 23.0908 45.7527C23.3205 45.9798 23.4495 46.2879 23.4495 46.6091V50.5805H29.5449C29.8584 50.5955 30.1541 50.7292 30.3706 50.9539C30.5871 51.1786 30.7079 51.4771 30.7079 51.7874C30.7079 52.0978 30.5871 52.3963 30.3706 52.621C30.1541 52.8457 29.8584 52.9794 29.5449 52.9944H22.3359H22.2248C21.9007 52.9936 21.59 52.8662 21.3606 52.6398C21.1311 52.4134 21.0015 52.1065 21 51.786V46.6091ZM22.971 38.3592C23.7882 37.3795 24.6733 36.4571 25.62 35.5989C29.3228 32.2725 33.5183 30.4952 37.8677 30.4051C42.217 30.315 46.6348 31.912 50.8132 35.3201C51.961 36.2586 53.0394 37.2771 54.0404 38.3677C54.2029 38.5451 54.2986 38.7724 54.3116 39.0114C54.3246 39.2505 54.2539 39.4866 54.1116 39.6802C52.997 41.2547 51.6632 42.6657 50.1496 43.8713C46.9943 46.3896 43.0674 47.7731 39.0127 47.7949C34.9211 47.7828 30.9364 46.5022 27.6195 44.1333C25.8495 42.8853 24.2663 41.3966 22.9169 39.7112C22.7601 39.517 22.6793 39.2735 22.6892 39.0252C22.6991 38.777 22.7992 38.5405 22.971 38.3592ZM27.0327 37.1312C26.3537 37.7458 25.7099 38.3974 25.1044 39.0831C26.2053 40.3465 27.4573 41.4729 28.8328 42.4377C31.7937 44.5543 35.3506 45.7008 39.0042 45.7162C42.5884 45.6937 46.0585 44.4671 48.8451 42.2377C49.9859 41.3301 51.0121 40.2898 51.9013 39.1394C51.1396 38.3527 50.3322 37.6107 49.4831 36.9171C45.7034 33.8357 41.7357 32.4105 37.9019 32.4753C34.068 32.5401 30.3481 34.1456 27.0327 37.1312ZM37.016 34.9398C37.4154 34.9398 37.8059 35.057 38.138 35.2764C38.4701 35.4958 38.7289 35.8077 38.8818 36.1726C39.0346 36.5375 39.0746 36.939 38.9967 37.3264C38.9188 37.7138 38.7264 38.0696 38.444 38.3489C38.1616 38.6282 37.8017 38.8184 37.41 38.8954C37.0183 38.9725 36.6122 38.9329 36.2432 38.7818C35.8742 38.6307 35.5588 38.3747 35.3369 38.0463C35.115 37.7179 34.9966 37.3318 34.9966 36.9368C34.9973 36.4074 35.2103 35.8999 35.5889 35.5256C35.9675 35.1512 36.4807 34.9406 37.016 34.9398Z" fill="url(#paint0_linear_2074_776)"/>
</g>
<defs>
<linearGradient id="paint0_linear_2074_776" x1="21" y1="39" x2="56" y2="39" gradientUnits="userSpaceOnUse">
<stop stop-color="#5D3DAF"/>
<stop offset="1" stop-color="#5598F7"/>
</linearGradient>
<clipPath id="clip0_2074_776">
<rect width="35" height="28" fill="white" transform="translate(21 25)"/>
</clipPath>
</defs>
</svg>
