<svg width="111" height="111" viewBox="0 0 111 111" fill="none" xmlns="http://www.w3.org/2000/svg">
<circle cx="55.5" cy="55.5" r="53.5" fill="url(#paint0_linear_2309_74)" stroke="white" stroke-width="4"/>
<path d="M60.767 29.1004C64.3809 29.8153 67.7318 31.2549 70.6656 33.2604C72.696 32.0045 75.3965 32.2576 77.1588 34.0199C78.931 35.7922 79.1792 38.5175 77.8935 40.5578C79.8692 43.5115 81.2741 46.8772 81.9542 50.4961C84.2774 51.0471 86.005 53.1321 86.005 55.6241C86.005 58.131 84.2526 60.2309 81.9045 60.762C81.1897 64.376 79.7501 67.7268 77.7445 70.6606C79.0005 72.691 78.7473 75.3915 76.985 77.1538C75.2128 78.926 72.4875 79.1742 70.4472 77.8885C67.4935 79.8643 64.1278 81.2691 60.5089 81.9492C59.9578 84.2725 57.8729 86 55.3809 86C52.8739 86 50.7741 84.2476 50.2429 81.8996C46.629 81.1847 43.2782 79.7451 40.3443 77.7396C38.314 78.9955 35.6134 78.7374 33.8512 76.9801C32.0789 75.2078 31.8307 72.4825 33.1165 70.4422C31.1407 67.4885 29.7358 64.1228 29.0557 60.5039C26.7275 59.9479 25 57.863 25 55.3759C25 52.869 26.7524 50.7691 29.1004 50.238C29.8153 46.624 31.2549 43.2732 33.2604 40.3394C32.0045 38.309 32.2626 35.6085 34.0199 33.8462C35.7922 32.074 38.5175 31.8258 40.5578 33.1115C43.5115 31.1357 46.8772 29.7309 50.4961 29.0508C51.0471 26.7275 53.137 25 55.6241 25C58.136 25 60.2358 26.7524 60.767 29.1004ZM75.2575 42.6924C73.386 43.3824 71.2017 42.9803 69.7026 41.4762C68.1885 39.9621 67.7864 37.753 68.5062 35.8716C66.0886 34.2681 63.3534 33.0966 60.4195 32.4711C59.5855 34.283 57.7537 35.5439 55.6291 35.5439C53.4845 35.5439 51.6379 34.2632 50.8188 32.4264C47.875 33.0221 45.1298 34.1639 42.6973 35.7425C43.3874 37.614 42.9853 39.7983 41.4811 41.2974C39.967 42.8115 37.758 43.2136 35.8765 42.4938C34.2731 44.9114 33.1016 47.6466 32.4761 50.5805C34.288 51.4145 35.5489 53.2463 35.5489 55.3709C35.5489 57.5155 34.2681 59.3621 32.4314 60.1812C33.0271 63.125 34.1689 65.8702 35.7524 68.3027C37.6239 67.6126 39.8082 68.0147 41.3074 69.5189C42.8215 71.033 43.2236 73.242 42.5037 75.1235C44.9213 76.7269 47.6566 77.8984 50.5904 78.5239C51.4244 76.712 53.2562 75.4511 55.3809 75.4511C57.5254 75.4511 59.3721 76.7319 60.1912 78.5686C63.1349 77.9729 65.8801 76.8311 68.3126 75.2476C67.6226 73.3761 68.0247 71.1918 69.5288 69.6926C71.0429 68.1785 73.252 67.7765 75.1334 68.4963C76.7368 66.0787 77.9084 63.3434 78.5339 60.4096C76.7219 59.5756 75.461 57.7438 75.461 55.6191C75.461 53.4746 76.7418 51.6279 78.5785 50.8088C77.9828 47.87 76.8411 45.1248 75.2575 42.6924ZM67.1063 49.4834L67.1659 62.4399C67.1708 63.0654 66.7786 63.6016 66.2177 63.825V63.8299L55.8425 68.0247C55.6539 68.0991 55.4553 68.1388 55.2518 68.1388C55.2319 68.1388 55.2071 68.1339 55.1873 68.1388C55.0979 68.1488 55.0085 68.1637 54.9192 68.1637C54.7206 68.1637 54.5171 68.1239 54.3334 68.0445L44.7724 64.0235V64.0186C44.2214 63.7852 43.8341 63.2342 43.8341 62.5938L43.8888 49.7862C43.8838 49.6621 43.8888 49.533 43.9136 49.4089C43.9185 49.2302 43.9533 49.0515 44.0228 48.8877C44.1816 48.5005 44.4944 48.2126 44.8617 48.0636L54.8447 44.0476C55.2518 43.8838 55.6886 43.9036 56.061 44.0625L66.0241 47.6665C66.6198 47.88 66.9971 48.4161 67.0219 48.9969C67.0765 49.1508 67.1063 49.3196 67.1063 49.4834ZM53.6136 65.5426L53.6881 54.1249L45.6957 50.6698L45.5269 62.1322L53.6136 65.5426ZM65.3986 50.6698L56.473 54.1249L56.5425 65.5326L65.4532 62.2017L65.3986 50.6698Z" fill="white"/>
<defs>
<linearGradient id="paint0_linear_2309_74" x1="0" y1="55.5" x2="111" y2="55.5" gradientUnits="userSpaceOnUse">
<stop stop-color="#5D3DAF"/>
<stop offset="1" stop-color="#5598F7"/>
</linearGradient>
</defs>
</svg>
