<svg width="93" height="93" viewBox="0 0 93 93" fill="none" xmlns="http://www.w3.org/2000/svg">
<circle cx="46.5" cy="46.5" r="45.5" fill="white" fill-opacity="0.2" stroke="#E2E0FD" stroke-width="2"/>
<path fill-rule="evenodd" clip-rule="evenodd" d="M43.8424 64.3229L41.03 65.3857L43.8424 66.4635V68.9559L40.1222 66.834C38.4928 65.9059 38.4779 64.8917 40.1222 63.9561L43.8424 61.8305V64.3229ZM41.6363 52.6018C44.3446 55.6631 50.4791 55.1242 52.7447 52.6018C52.1778 51.9243 51.6535 51.2119 51.1748 50.4687L50.8623 50.0121C49.7511 50.768 48.4349 51.1601 47.0938 51.1349C45.5864 51.146 44.1246 50.6151 42.9719 49.6379C42.6631 50.566 42.2278 51.8422 41.774 52.4522C41.7348 52.5035 41.6884 52.5489 41.6363 52.5869V52.6018ZM52.1792 58.0282H30.7363C30.527 58.0395 30.3223 58.0952 30.1359 58.1916C29.9494 58.288 29.7853 58.4229 29.6543 58.5876C29.5232 58.7523 29.4283 58.9429 29.3756 59.147C29.323 59.3512 29.3138 59.5642 29.3487 59.7722L30.6619 69.9888H27.3138C27.3138 64.5324 25.3905 57.8411 31.0674 54.6452C33.1804 53.4588 38.6267 53.0584 41.0002 51.4904C41.3974 50.632 41.7343 49.7466 42.0084 48.8408C42.0344 48.7585 41.9897 48.8932 42.0307 48.7697C41.1785 47.7912 40.4188 46.7351 39.7614 45.6149L37.8046 42.4975C37.0866 41.4235 36.7146 40.4392 36.6885 39.6346C36.6761 39.277 36.7488 38.9216 36.9006 38.598C37.0481 38.2782 37.2813 38.0061 37.5739 37.8121C37.7222 37.714 37.8806 37.6325 38.0464 37.5689C37.911 35.7009 37.88 33.8268 37.9534 31.9553C37.9983 31.5239 38.0792 31.097 38.1952 30.6792C38.9206 28.1194 41.1118 26.2483 43.6266 25.3726C44.8468 24.9497 44.3744 23.9393 45.6169 24.0029C48.5409 24.1638 53.0572 26.0574 54.7796 28.0671C57.2052 30.8813 56.5802 34.3467 56.4983 37.7971C56.7483 37.8637 56.9756 37.9974 57.1559 38.1839C57.3361 38.3705 57.4624 38.6029 57.5214 38.8562C57.6776 39.4775 57.5214 40.3532 56.9819 41.547C56.9819 41.547 56.9819 41.5881 56.9485 41.6106L54.7164 45.3043C53.857 46.7301 52.9828 48.1559 51.8184 49.2562L51.7589 49.3086L52.1309 49.8325C52.5029 50.4051 52.9567 51.0563 53.366 51.5652C55.7915 53.0622 61.1225 53.4888 63.2095 54.6564C68.4177 57.5829 66.6432 64.8094 66.9296 70H63.615L64.9282 59.7834C64.9631 59.5754 64.9539 59.3624 64.9012 59.1583C64.8486 58.9541 64.7536 58.7635 64.6226 58.5988C64.4916 58.4342 64.3275 58.2992 64.141 58.2028C63.9545 58.1064 63.7499 58.0508 63.5406 58.0395H52.1792V58.0282ZM39.1587 38.4895C38.8144 38.487 38.4756 38.576 38.1766 38.7477C38.0547 38.83 37.957 38.9437 37.8939 39.077C37.8253 39.244 37.7948 39.4243 37.8046 39.6047C37.8232 40.2035 38.1357 40.9856 38.7383 41.8875L40.6951 45.0199C41.4801 46.2735 42.306 47.5534 43.3253 48.4928C44.3355 49.4849 45.6932 50.0373 47.105 50.0309C47.8387 50.0445 48.5678 49.9113 49.2499 49.6389C49.932 49.3665 50.5534 48.9603 51.0781 48.4441C52.1346 47.4486 52.9642 46.0902 53.7863 44.728L55.9887 41.0754C56.4016 40.1324 56.5504 39.4999 56.4574 39.1332C56.4016 38.9124 56.1598 38.8038 55.7469 38.7814C55.6576 38.7814 55.5683 38.7814 55.479 38.7814C55.3761 38.776 55.2731 38.776 55.1702 38.7814C55.1134 38.789 55.0559 38.789 54.9991 38.7814C54.7976 38.7905 54.5957 38.7792 54.3964 38.7477L55.1405 35.3796C49.5379 36.2665 45.3453 32.0788 39.4228 34.5413L39.8507 38.5194C39.6246 38.5325 39.3977 38.5225 39.1736 38.4895H39.1587ZM50.1592 64.3116L52.9716 65.3745L50.1592 66.4523V68.9447L53.8793 66.8228C55.5088 65.8946 55.5199 64.8805 53.8793 63.9449L50.1592 61.8192V64.3116ZM46.9487 69.6594H45.0886L47.3877 60.6554H49.2478L46.9487 69.6594Z" fill="url(#paint0_linear_2060_1344)"/>
<defs>
<linearGradient id="paint0_linear_2060_1344" x1="27" y1="47" x2="67" y2="47" gradientUnits="userSpaceOnUse">
<stop stop-color="#5D3DAF"/>
<stop offset="1" stop-color="#5598F7"/>
</linearGradient>
</defs>
</svg>
