<svg width="93" height="93" viewBox="0 0 93 93" fill="none" xmlns="http://www.w3.org/2000/svg">
<circle cx="46.5" cy="46.5" r="45.5" stroke="white" stroke-width="2"/>
<g clip-path="url(#clip0_2060_1345)">
<path fill-rule="evenodd" clip-rule="evenodd" d="M65.0082 24.1417L66.1674 25.6489C66.4718 26.0466 66.3957 26.6168 65.9929 26.9173L64.762 27.8411C64.9858 28.4289 65.129 29.0565 65.1872 29.6974L66.5882 29.8874C67.0895 29.9537 67.4386 30.4134 67.3715 30.9084L67.1119 32.7868C67.0447 33.2818 66.5792 33.631 66.0779 33.5603L64.5472 33.3526C64.2741 33.9404 63.925 34.4796 63.5132 34.9614L64.3726 36.0752C64.677 36.4729 64.5964 37.0431 64.1936 37.3436L62.6673 38.4884C62.2645 38.7889 61.6871 38.7094 61.3827 38.316L60.4472 37.1005C59.8475 37.3215 59.2164 37.463 58.5629 37.5204L58.3704 38.9038C58.3033 39.3988 57.8378 39.7436 57.3365 39.6773L55.4342 39.4209C54.9329 39.3546 54.5838 38.895 54.6509 38.4L54.8613 36.8884C54.2705 36.6188 53.7199 36.274 53.2321 35.8718L52.1041 36.716C51.7013 37.0166 51.1239 36.9414 50.8196 36.5437L49.6603 35.0365C49.3559 34.6387 49.432 34.0686 49.8349 33.768L51.0657 32.8443C50.8419 32.252 50.6987 31.6288 50.6405 30.988L49.2396 30.7979C48.7383 30.7316 48.3847 30.272 48.4563 29.7769L48.7159 27.8985C48.7875 27.4035 49.2485 27.0588 49.7498 27.1251L51.2806 27.3328C51.5536 26.7494 51.9027 26.2058 52.31 25.724L51.4551 24.6102C51.1508 24.2168 51.2269 23.6467 51.6297 23.3461L53.156 22.2014C53.5588 21.9009 54.1362 21.976 54.4406 22.3738L55.376 23.5892C55.9713 23.3682 56.6069 23.2268 57.2559 23.1694L57.4484 21.786C57.5155 21.2909 57.981 20.9418 58.4823 21.0081L60.3846 21.2644C60.8859 21.3307 61.2395 21.7904 61.1679 22.2854L60.9575 23.797C61.5528 24.0666 62.0989 24.4113 62.5912 24.8179L63.7191 23.9738C64.122 23.6688 64.6994 23.7439 65.0082 24.1417ZM32.6876 45.7899H59.9638C60.483 45.7899 60.9575 46.002 61.3021 46.3423L61.3066 46.3468L61.3111 46.3512C61.6557 46.6915 61.8661 47.16 61.8661 47.6727V70.1208C61.8661 70.6379 61.6513 71.1064 61.3066 71.4468C60.962 71.7871 60.4875 71.9992 59.9638 71.9992H32.6876C32.1684 71.9992 31.694 71.7915 31.3449 71.4468L31.3404 71.4423L31.3359 71.4379C30.9913 71.0976 30.7809 70.6291 30.7809 70.1164V47.6639C30.7854 47.1467 31.0002 46.6782 31.3404 46.3379C31.3628 46.3202 31.3807 46.2981 31.403 46.2805C31.7477 45.9799 32.1953 45.7899 32.6876 45.7899ZM35.7671 67.0579C35.3732 67.0579 35.0509 66.7087 35.0509 66.2844C35.0509 65.8557 35.3732 65.5066 35.7671 65.5066H44.0251C44.419 65.5066 44.7413 65.8557 44.7413 66.2844C44.7413 66.7132 44.419 67.0623 44.0251 67.0623H35.7671V67.0579ZM47.4268 67.0579C47.0285 67.0579 46.7017 66.7087 46.7017 66.2844C46.7017 65.8557 47.024 65.5066 47.4268 65.5066H56.3339C56.7322 65.5066 57.059 65.8557 57.059 66.2844C57.059 66.7132 56.7367 67.0623 56.3339 67.0623H47.4268V67.0579ZM35.2344 54.4748H56.9695V62.8768H35.2344V54.4748ZM60.1518 52.5168C60.0892 52.5256 60.031 52.53 59.9683 52.53H32.6876C32.625 52.53 32.5623 52.5256 32.5041 52.5168V70.1164C32.5041 70.165 32.5265 70.2092 32.5534 70.2446L32.5578 70.249C32.5892 70.2799 32.6339 70.2976 32.6876 70.2976H59.9638C60.0131 70.2976 60.0578 70.2799 60.0936 70.2446C60.125 70.2092 60.1518 70.165 60.1518 70.1164V52.5168ZM43.4656 48.2119C44.146 48.2119 44.701 48.76 44.701 49.4318C44.701 50.1036 44.146 50.6516 43.4656 50.6516C42.7853 50.6516 42.2303 50.1036 42.2303 49.4318C42.2303 48.76 42.7853 48.2119 43.4656 48.2119ZM39.1464 48.2119C39.8312 48.2119 40.3817 48.76 40.3817 49.4318C40.3817 50.1036 39.8267 50.6516 39.1464 50.6516C38.466 50.6516 37.911 50.1036 37.911 49.4318C37.911 48.76 38.466 48.2119 39.1464 48.2119ZM34.8316 48.2119C35.5164 48.2119 36.0669 48.76 36.0669 49.4318C36.0669 50.1036 35.5119 50.6516 34.8316 50.6516C34.1513 50.6516 33.5962 50.1036 33.5962 49.4318C33.5962 48.76 34.1513 48.2119 34.8316 48.2119ZM46.093 26.0643C45.2739 26.0024 44.4459 26.0113 43.6268 26.0908C41.1068 26.3295 38.6585 27.2356 36.6354 28.7869C34.2945 30.5769 32.5176 33.2553 31.8327 36.8044L31.6179 37.9138L30.4989 38.1083C29.4023 38.2983 28.4221 38.5591 27.5627 38.8906C26.7302 39.2088 25.9872 39.6021 25.3382 40.0662C24.819 40.4375 24.3714 40.853 23.9909 41.3038C22.8138 42.696 22.2677 44.4418 22.2811 46.2097C22.2946 48.0042 22.8854 49.8163 23.9775 51.3058C24.3848 51.8582 24.8548 52.3665 25.3919 52.8085C25.938 53.2549 26.5512 53.6262 27.2405 53.9046C27.6299 54.0637 28.0461 54.1963 28.4803 54.3024V57.6128C27.5851 57.4537 26.7615 57.215 25.9917 56.9012C24.9756 56.4858 24.076 55.951 23.2837 55.2968C22.5318 54.6781 21.8738 53.9753 21.3143 53.2107C19.8239 51.1776 19.0182 48.6937 19.0003 46.2186C18.9824 43.717 19.7702 41.2286 21.471 39.2132C22.0215 38.5591 22.6705 37.958 23.4135 37.4276C24.2774 36.8088 25.2666 36.2873 26.3856 35.8586C27.1554 35.5625 27.979 35.3149 28.8473 35.1161C29.832 31.2532 31.9312 28.2786 34.6302 26.2146C37.1546 24.2831 40.1937 23.1561 43.3224 22.86C44.9651 22.7053 46.6301 22.776 48.2593 23.0765C48.2235 23.2224 48.1922 23.3682 48.1743 23.5185L48.1698 23.545C48.1385 23.797 48.1251 24.0489 48.1385 24.3052C47.7938 24.4378 47.4716 24.619 47.1806 24.84L47.1672 24.8489C46.733 25.1715 46.366 25.587 46.093 26.0643ZM69.775 34.5503C70.0257 34.7757 70.2674 35.01 70.5046 35.2619C70.9835 35.7702 71.4356 36.3448 71.8608 36.9856C73.2931 39.1602 74.0272 42.064 73.9958 44.9059C73.9645 47.6948 73.2036 50.4704 71.646 52.5124C70.6299 53.8427 69.3274 54.93 67.7654 55.7919C66.6956 56.3841 65.4916 56.8747 64.1801 57.2725V53.8471C64.8873 53.5864 65.5453 53.2947 66.1495 52.9632C67.3267 52.3135 68.289 51.5223 69.0097 50.5721C70.1286 49.1003 70.6792 47.0186 70.7016 44.8838C70.7284 42.643 70.1734 40.3933 69.0947 38.758C68.7859 38.2851 68.4457 37.8608 68.0876 37.4806C67.9489 37.3348 67.8101 37.1978 67.6669 37.0652C67.6893 36.8442 67.6982 36.6188 67.6848 36.3934C68.0294 36.2608 68.3517 36.0796 68.6426 35.8586L68.6561 35.8497C69.1171 35.5006 69.502 35.0586 69.775 34.5503ZM58.4241 26.6566C60.4875 26.935 61.9288 28.8134 61.6468 30.851C61.3648 32.8885 59.4625 34.3161 57.3991 34.0376C55.3357 33.7592 53.89 31.8808 54.1765 29.8432C54.4629 27.8057 56.3607 26.3781 58.4241 26.6566Z" fill="white"/>
</g>
<defs>
<clipPath id="clip0_2060_1345">
<rect width="55" height="51" fill="white" transform="translate(19 21)"/>
</clipPath>
</defs>
</svg>
