<svg width="308" height="335" viewBox="0 0 308 335" fill="none" xmlns="http://www.w3.org/2000/svg">
<path d="M94.5972 315.358C112.738 299.684 114.558 273.874 111.434 251.165C110.911 247.377 110.919 243.355 108.763 240.177C106.608 236.999 102.149 235.179 98.908 237.131C96.2216 238.756 95.3313 242.168 94.0349 245.05C92.2959 248.89 89.5076 252.16 85.9913 254.484C83.6954 255.991 80.7825 257.069 78.2522 255.999C74.7849 254.531 73.9336 250.032 73.5666 246.253C72.8794 239.193 72.1948 232.136 71.5127 225.082C71.1457 221.302 70.7318 217.436 69.2168 213.969C67.7018 210.501 64.7264 207.432 61.0248 206.792C57.3231 206.152 53.0826 208.69 52.7078 212.469C52.5438 214.031 53.028 215.593 53.0826 217.194C53.1373 218.795 52.5906 220.591 51.1381 221.177C49.6856 221.763 48.0144 220.864 46.8039 219.873C42.5088 216.452 39.3538 211.806 36.3706 207.167C33.3874 202.528 30.4667 197.796 26.4996 193.969C22.5324 190.142 17.2845 187.37 11.8336 187.628C6.38264 187.886 0.955129 191.814 0.119527 197.28C-0.716075 202.747 2.96995 207.838 6.79654 211.813C12.4827 217.695 18.9871 222.727 26.1091 226.753C27.3898 227.479 28.7799 228.26 29.3734 229.611C30.4589 232.047 28.327 234.804 25.9217 235.858C23.1962 237.085 20.1115 237.108 17.1986 237.764C14.2857 238.42 11.2244 240.044 10.3966 242.949C9.24086 246.971 12.8956 250.688 16.3474 253.016C23.2714 257.675 30.9453 261.11 39.0336 263.168C41.9231 263.902 44.9453 264.488 47.3896 266.213C49.8339 267.939 51.5364 271.196 50.4587 274.023C49.381 276.85 45.9839 278.045 43.0164 277.803C40.0488 277.56 37.2687 276.241 34.4261 275.46C29.022 274.031 22.345 275.085 19.4789 279.919C17.5969 283.097 17.8312 287.228 19.2993 290.641C20.7675 294.054 23.329 296.842 25.9998 299.395C35.371 308.314 46.8195 315.084 59.3067 318.021C71.7939 320.957 83.0862 320.934 94.6206 315.319" fill="#F5F5F5"/>
<path d="M96.6744 332.218C94.5329 321.762 91.3949 311.534 87.3032 301.676C82.7659 290.524 76.7761 278.708 70.1226 266.573L65.1402 257.6C63.4924 254.656 61.8681 251.743 60.0953 249.009C56.6887 243.728 52.9891 238.641 49.0139 233.773C45.2575 229.088 41.5247 224.793 37.9948 220.794C34.465 216.796 31.0992 213.149 27.8895 209.947C22.8256 204.854 17.3625 200.174 11.5523 195.953C9.51408 194.453 7.88974 193.352 6.78081 192.618L5.51569 191.782C5.3759 191.682 5.22684 191.596 5.07056 191.525C5.19934 191.639 5.33495 191.746 5.47664 191.845L6.70271 192.735C7.78822 193.516 9.38133 194.648 11.3883 196.171C17.086 200.464 22.4531 205.178 27.4444 210.275C30.6228 213.492 33.9574 217.163 37.4638 221.161C40.9702 225.16 44.6797 229.486 48.3969 234.156C52.3388 239.02 56.0121 244.096 59.4003 249.361C61.1574 252.102 62.774 254.999 64.4139 257.951L69.3963 266.924C76.0811 279.052 82.0709 290.829 86.6316 301.933C90.7482 311.741 93.9329 321.915 96.1434 332.32" fill="#E0E0E0"/>
<path d="M59.791 248.986C59.9176 248.443 59.9857 247.888 59.9941 247.33C60.0878 246.268 60.1659 244.722 60.2362 242.809C60.3845 238.982 60.408 233.703 60.408 227.877C60.408 222.051 60.5095 216.78 60.7125 212.969C60.8063 211.064 60.9 209.525 60.9781 208.455C61.0501 207.904 61.0658 207.347 61.0249 206.792C60.857 207.325 60.7522 207.875 60.7125 208.432C60.5485 209.486 60.3767 211.025 60.2206 212.93C59.8848 216.749 59.7129 222.036 59.7129 227.869C59.7129 233.703 59.7129 238.803 59.7129 242.793C59.7129 244.589 59.7129 246.104 59.7129 247.323C59.6801 247.878 59.7063 248.436 59.791 248.986Z" fill="#E0E0E0"/>
<path d="M10.217 244.909C10.8717 244.968 11.5303 244.968 12.185 244.909C13.4423 244.909 15.2619 244.855 17.5188 244.909C22.017 244.909 28.2411 245.183 35.0899 245.753C41.9387 246.323 48.1237 247.135 52.575 247.838C54.8085 248.174 56.6047 248.494 57.8464 248.705C58.485 248.854 59.1358 248.946 59.7909 248.978C59.1811 248.732 58.5479 248.549 57.901 248.431C56.6671 248.135 54.8788 247.744 52.6531 247.338C48.2096 246.51 42.0246 245.636 35.1445 245.042C29.281 244.537 23.3955 244.331 17.511 244.425C15.2541 244.464 13.4267 244.574 12.1694 244.675C11.5128 244.693 10.8592 244.771 10.217 244.909Z" fill="#E0E0E0"/>
<path d="M86.5225 300.84C86.6436 300.646 86.7356 300.436 86.7958 300.216C86.9676 299.716 87.1863 299.107 87.444 298.372C87.9984 296.764 88.7481 294.421 89.6306 291.516C91.4033 285.698 93.5977 277.592 95.8781 268.611C98.1584 259.63 100.298 251.516 101.946 245.675C102.727 242.832 103.422 240.497 103.914 238.756C104.125 237.975 104.297 237.381 104.437 236.874C104.516 236.658 104.563 236.432 104.578 236.202C104.457 236.396 104.365 236.606 104.304 236.827C104.133 237.327 103.914 237.936 103.656 238.67C103.102 240.279 102.352 242.621 101.47 245.527C99.6969 251.345 97.5024 259.451 95.2221 268.431C92.9418 277.412 90.802 285.526 89.1542 291.375C88.3733 294.21 87.6783 296.553 87.1863 298.287C86.9754 299.068 86.8036 299.661 86.663 300.169C86.5844 300.385 86.5371 300.611 86.5225 300.84Z" fill="#E0E0E0"/>
<path d="M19.7756 286.682C19.9864 286.778 20.21 286.844 20.4394 286.877L22.384 287.314L29.5373 288.876C35.574 290.165 43.8988 292.047 53.0904 294.14C62.282 296.233 70.6302 298.044 76.6981 299.2C79.7281 299.786 82.1646 300.239 83.8905 300.512L85.8585 300.817C86.0856 300.873 86.3204 300.891 86.5535 300.871C86.338 300.78 86.1126 300.715 85.8819 300.676L83.9452 300.239L76.7918 298.716C70.7552 297.42 62.4304 295.537 53.2388 293.445C44.0471 291.352 35.6989 289.54 29.6311 288.384C26.601 287.798 24.1645 287.353 22.4308 287.072L20.4707 286.768C20.2443 286.706 20.0102 286.677 19.7756 286.682Z" fill="#E0E0E0"/>
<path d="M76.0342 142.763C75.7385 142.764 75.4487 142.68 75.1985 142.523C74.9482 142.365 74.7479 142.14 74.6207 141.873L71.2315 134.844C71.1248 134.626 71.0707 134.385 71.0734 134.142C71.0761 133.899 71.1356 133.66 71.2471 133.443C71.3586 133.227 71.519 133.04 71.7156 132.897C71.9122 132.754 72.1395 132.658 72.3795 132.619C73.038 132.492 73.6632 132.23 74.2156 131.85C74.768 131.469 75.2357 130.979 75.5891 130.409C75.9292 129.915 76.1642 129.356 76.2797 128.768C76.3953 128.18 76.3888 127.574 76.2607 126.988C76.0952 126.408 75.8149 125.868 75.4367 125.398C75.0584 124.929 74.5897 124.54 74.0585 124.255C73.486 123.917 72.8522 123.698 72.1939 123.608C71.5356 123.518 70.8659 123.56 70.2241 123.732C68.9749 124.188 67.9172 125.054 67.2237 126.188C66.5301 127.323 66.2416 128.659 66.4053 129.979C66.434 130.184 66.422 130.393 66.3701 130.593C66.3181 130.794 66.2272 130.982 66.1024 131.148C65.9777 131.313 65.8216 131.452 65.6431 131.557C65.4646 131.662 65.2672 131.731 65.0621 131.76C64.857 131.788 64.6482 131.776 64.4477 131.724C64.2472 131.672 64.059 131.582 63.8936 131.457C63.7283 131.332 63.5891 131.176 63.4841 130.997C63.3791 130.819 63.3103 130.622 63.2815 130.416C63.0209 128.349 63.4815 126.255 64.5855 124.488C65.6896 122.721 67.3694 121.389 69.3416 120.717C70.3896 120.419 71.4868 120.334 72.5681 120.468C73.6494 120.603 74.6927 120.953 75.636 121.498C76.5331 121.992 77.3218 122.661 77.955 123.466C78.5883 124.271 79.0531 125.195 79.322 126.184C79.553 127.187 79.5758 128.228 79.3891 129.24C79.2024 130.253 78.8101 131.217 78.2365 132.072C77.4029 133.384 76.214 134.432 74.8082 135.094L77.4165 140.561C77.5066 140.746 77.5591 140.948 77.5709 141.154C77.5827 141.359 77.5537 141.566 77.4854 141.76C77.4172 141.955 77.3111 142.134 77.1733 142.287C77.0354 142.441 76.8686 142.565 76.6824 142.654C76.477 142.737 76.2557 142.774 76.0342 142.763Z" fill="#E0E0E0"/>
<path d="M79.408 144.793C79.5355 145.093 79.5446 145.43 79.4335 145.737C79.3224 146.043 79.0994 146.296 78.8093 146.445C78.5192 146.593 78.1837 146.626 77.8702 146.537C77.5567 146.448 77.2886 146.244 77.1198 145.965C77.0282 145.814 76.9687 145.645 76.9451 145.47C76.9215 145.294 76.9343 145.116 76.9826 144.946C77.0309 144.775 77.1138 144.617 77.226 144.48C77.3382 144.343 77.4774 144.231 77.6349 144.151C77.7924 144.07 77.9649 144.023 78.1414 144.012C78.318 144 78.495 144.026 78.6614 144.086C78.8277 144.147 78.9798 144.24 79.1083 144.362C79.2367 144.484 79.3388 144.631 79.408 144.793Z" fill="#E0E0E0"/>
<path d="M33.114 119.147C32.9064 119.148 32.7029 119.09 32.5273 118.979C32.3517 118.869 32.2112 118.71 32.1222 118.523L29.7794 113.603C29.7044 113.451 29.6653 113.284 29.6653 113.115C29.6653 112.945 29.7044 112.778 29.7794 112.627C29.8552 112.476 29.9654 112.345 30.1011 112.245C30.2367 112.144 30.394 112.077 30.5603 112.049C31.0199 111.956 31.4555 111.769 31.8398 111.5C32.224 111.232 32.5488 110.887 32.7938 110.487C33.0279 110.14 33.1901 109.75 33.2705 109.34C33.351 108.929 33.3483 108.507 33.2624 108.097C33.1448 107.69 32.9457 107.312 32.6772 106.984C32.4087 106.656 32.0764 106.387 31.7005 106.192C31.3009 105.956 30.8581 105.801 30.3982 105.738C29.9382 105.675 29.4704 105.705 29.0219 105.825C28.1507 106.152 27.4163 106.765 26.9383 107.564C26.4603 108.362 26.2671 109.299 26.3901 110.221C26.4305 110.509 26.3549 110.801 26.1799 111.034C26.0049 111.266 25.7448 111.419 25.4569 111.459C25.169 111.5 24.8769 111.424 24.6448 111.249C24.4126 111.074 24.2595 110.814 24.2191 110.526C24.0374 109.084 24.3573 107.623 25.1252 106.389C25.893 105.154 27.0621 104.222 28.4362 103.747C29.1686 103.543 29.9346 103.489 30.6885 103.587C31.4425 103.684 32.1691 103.933 32.8251 104.318C33.4555 104.663 34.0095 105.132 34.4537 105.697C34.898 106.262 35.2232 106.911 35.41 107.605C35.5673 108.307 35.5792 109.033 35.4449 109.74C35.3106 110.446 35.0329 111.118 34.629 111.713C34.054 112.606 33.2431 113.322 32.2862 113.782L34.1058 117.578C34.1694 117.707 34.2067 117.847 34.2156 117.991C34.2245 118.134 34.2047 118.278 34.1575 118.414C34.1103 118.55 34.0365 118.675 33.9405 118.782C33.8445 118.889 33.7281 118.976 33.5982 119.038C33.4465 119.109 33.2814 119.146 33.114 119.147Z" fill="#F5F5F5"/>
<path d="M35.4724 120.561C35.533 120.761 35.522 120.975 35.4413 121.168C35.3606 121.361 35.2153 121.519 35.0304 121.616C34.8455 121.713 34.6325 121.743 34.4281 121.7C34.2237 121.657 34.0407 121.544 33.9106 121.381C33.8281 121.277 33.7696 121.157 33.7391 121.028C33.7086 120.9 33.7068 120.766 33.7341 120.636C33.7613 120.507 33.8168 120.385 33.8965 120.28C33.9763 120.174 34.0784 120.087 34.1955 120.026C34.3126 119.965 34.4418 119.93 34.574 119.924C34.7061 119.918 34.8379 119.942 34.9599 119.993C35.0819 120.044 35.1911 120.121 35.2797 120.22C35.3683 120.318 35.4341 120.434 35.4724 120.561Z" fill="#F5F5F5"/>
<path d="M227.973 121.818C228.062 122.006 228.097 122.214 228.072 122.421C228.047 122.627 227.964 122.821 227.832 122.982L224.396 127.222C224.288 127.353 224.152 127.458 223.998 127.528C223.844 127.598 223.675 127.633 223.506 127.628C223.337 127.624 223.171 127.58 223.022 127.5C222.873 127.42 222.744 127.306 222.647 127.168C222.372 126.79 222.022 126.474 221.619 126.239C221.216 126.003 220.768 125.854 220.304 125.801C219.894 125.735 219.474 125.754 219.072 125.856C218.669 125.958 218.291 126.141 217.961 126.395C217.643 126.672 217.384 127.01 217.2 127.39C217.016 127.77 216.911 128.183 216.891 128.605C216.846 129.064 216.891 129.529 217.025 129.971C217.159 130.413 217.379 130.825 217.672 131.182C218.336 131.832 219.199 132.24 220.123 132.339C221.047 132.438 221.978 132.223 222.764 131.728C222.881 131.626 223.019 131.55 223.168 131.505C223.317 131.46 223.474 131.447 223.628 131.468C223.782 131.488 223.93 131.542 224.062 131.624C224.194 131.706 224.307 131.816 224.393 131.945C224.48 132.075 224.537 132.221 224.562 132.374C224.588 132.528 224.58 132.685 224.539 132.835C224.499 132.986 224.427 133.125 224.328 133.246C224.23 133.366 224.106 133.464 223.967 133.532C222.742 134.315 221.286 134.652 219.843 134.487C218.399 134.322 217.056 133.665 216.04 132.626C215.543 132.05 215.166 131.38 214.931 130.656C214.696 129.932 214.609 129.168 214.674 128.409C214.718 127.694 214.907 126.994 215.227 126.353C215.548 125.712 215.994 125.142 216.54 124.677C217.105 124.231 217.756 123.906 218.452 123.722C219.147 123.538 219.874 123.498 220.585 123.607C221.641 123.742 222.637 124.173 223.459 124.848L226.107 121.576C226.197 121.461 226.31 121.365 226.438 121.294C226.566 121.223 226.707 121.179 226.853 121.163C226.998 121.148 227.146 121.162 227.286 121.205C227.426 121.248 227.556 121.318 227.668 121.412C227.799 121.523 227.903 121.662 227.973 121.818Z" fill="#F5F5F5"/>
<path d="M228.247 119.069C228.355 118.928 228.502 118.822 228.671 118.765C228.839 118.708 229.02 118.702 229.192 118.748C229.364 118.794 229.518 118.89 229.635 119.024C229.752 119.158 229.827 119.323 229.85 119.5C229.873 119.676 229.843 119.855 229.764 120.014C229.685 120.174 229.561 120.306 229.407 120.394C229.253 120.483 229.076 120.524 228.898 120.512C228.721 120.5 228.551 120.435 228.411 120.327C228.317 120.255 228.238 120.166 228.178 120.064C228.119 119.962 228.081 119.849 228.066 119.732C228.05 119.615 228.058 119.496 228.09 119.383C228.121 119.269 228.174 119.162 228.247 119.069Z" fill="#F5F5F5"/>
<path d="M216.525 19.9296C216.612 20.1173 216.645 20.3258 216.621 20.5315C216.596 20.7371 216.514 20.9317 216.384 21.0932L212.948 25.3337C212.841 25.465 212.705 25.5698 212.551 25.6401C212.397 25.7104 212.229 25.7442 212.06 25.7389C211.891 25.7336 211.725 25.6894 211.575 25.6096C211.426 25.5298 211.297 25.4167 211.199 25.279C210.923 24.9029 210.572 24.5874 210.169 24.3523C209.766 24.1173 209.319 23.9675 208.856 23.9124C208.445 23.8491 208.026 23.8698 207.623 23.9732C207.22 24.0765 206.843 24.2604 206.513 24.5137C206.196 24.7898 205.937 25.1272 205.753 25.5056C205.569 25.8841 205.464 26.2957 205.443 26.7159C205.397 27.1758 205.442 27.6402 205.576 28.0824C205.71 28.5247 205.931 28.9361 206.224 29.293C206.884 29.9466 207.747 30.3567 208.67 30.456C209.594 30.5553 210.524 30.338 211.308 29.8397C211.551 29.6991 211.839 29.6567 212.112 29.7212C212.385 29.7857 212.624 29.9522 212.778 30.1866C212.933 30.421 212.992 30.7057 212.944 30.9824C212.896 31.259 212.743 31.5068 212.518 31.6749C211.294 32.4576 209.837 32.7941 208.393 32.6277C206.949 32.4612 205.606 31.802 204.592 30.7612C204.091 30.1871 203.712 29.5174 203.477 28.7926C203.242 28.0678 203.156 27.3029 203.225 26.5441C203.271 25.8287 203.459 25.1297 203.78 24.4885C204.101 23.8473 204.547 23.2769 205.092 22.8113C205.656 22.3673 206.306 22.0433 207 21.8594C207.694 21.6754 208.419 21.6352 209.129 21.7414C210.183 21.8838 211.177 22.3133 212.003 22.9831L214.65 19.7109C214.741 19.5966 214.854 19.5015 214.982 19.4312C215.111 19.3609 215.252 19.3168 215.397 19.3016C215.542 19.2863 215.689 19.3001 215.829 19.3423C215.969 19.3844 216.099 19.454 216.212 19.5469C216.342 19.651 216.449 19.7814 216.525 19.9296Z" fill="#F5F5F5"/>
<path d="M216.798 17.1727C216.906 17.0317 217.053 16.9259 217.222 16.8687C217.39 16.8116 217.571 16.8057 217.743 16.8517C217.915 16.8978 218.069 16.9938 218.186 17.1275C218.303 17.2612 218.378 17.4267 218.401 17.603C218.424 17.7792 218.394 17.9583 218.315 18.1176C218.236 18.2769 218.112 18.4092 217.958 18.4978C217.804 18.5864 217.627 18.6272 217.449 18.6151C217.272 18.6031 217.102 18.5387 216.962 18.43C216.773 18.2848 216.651 18.0709 216.62 17.8353C216.589 17.5996 216.653 17.3614 216.798 17.1727Z" fill="#F5F5F5"/>
<path d="M129.825 35.5951C130.091 35.5933 130.353 35.6653 130.58 35.8032C130.808 35.941 130.992 36.1394 131.114 36.3761L134.159 42.7954C134.258 42.9931 134.309 43.211 134.309 43.4318C134.309 43.6527 134.258 43.8705 134.159 44.0683C134.063 44.2701 133.92 44.4462 133.742 44.582C133.564 44.7177 133.357 44.8093 133.136 44.8492C132.549 44.9627 131.991 45.1942 131.495 45.5298C131 45.8654 130.578 46.2981 130.255 46.8016C129.943 47.252 129.727 47.7618 129.621 48.2992C129.515 48.8367 129.521 49.3902 129.638 49.9253C129.788 50.4522 130.042 50.9435 130.385 51.3701C130.729 51.7968 131.154 52.1499 131.637 52.4087C132.157 52.7147 132.733 52.9149 133.33 52.998C133.928 53.0811 134.536 53.0454 135.12 52.8929C136.254 52.477 137.214 51.6896 137.844 50.6587C138.473 49.6278 138.735 48.4143 138.587 47.2155C138.562 47.0304 138.573 46.842 138.62 46.6612C138.667 46.4803 138.749 46.3106 138.862 46.1615C138.975 46.0125 139.116 45.8872 139.277 45.7927C139.438 45.6981 139.617 45.6363 139.802 45.6106C139.987 45.585 140.175 45.5961 140.356 45.6432C140.537 45.6904 140.707 45.7727 140.856 45.8855C141.005 45.9982 141.13 46.1392 141.225 46.3004C141.319 46.4616 141.381 46.6399 141.407 46.825C141.645 48.6967 141.231 50.5932 140.236 52.1959C139.24 53.7987 137.723 55.0099 135.94 55.6261C134.987 55.8931 133.991 55.9649 133.01 55.8375C132.029 55.71 131.084 55.3858 130.231 54.8843C129.415 54.4334 128.697 53.8229 128.122 53.089C127.546 52.3551 127.124 51.5129 126.881 50.6125C126.671 49.7052 126.65 48.7645 126.818 47.8485C126.986 46.9325 127.339 46.0606 127.857 45.2866C128.607 44.1263 129.664 43.1965 130.911 42.6001L128.568 37.6724C128.486 37.5044 128.438 37.3218 128.427 37.1352C128.416 36.9485 128.442 36.7615 128.504 36.585C128.565 36.4085 128.661 36.246 128.786 36.1069C128.911 35.9678 129.063 35.8549 129.232 35.7747C129.413 35.6702 129.616 35.6087 129.825 35.5951Z" fill="#E0E0E0"/>
<path d="M126.764 33.7521C126.629 33.4768 126.607 33.1598 126.701 32.8682C126.796 32.5767 127.001 32.3335 127.272 32.1902C127.546 32.051 127.865 32.0263 128.157 32.1214C128.45 32.2166 128.693 32.4238 128.834 32.6978C128.903 32.8342 128.945 32.983 128.958 33.1357C128.97 33.2884 128.952 33.442 128.905 33.5878C128.858 33.7335 128.782 33.8686 128.683 33.9852C128.584 34.1018 128.462 34.1977 128.326 34.2675C128.19 34.3372 128.041 34.3794 127.888 34.3916C127.735 34.4039 127.582 34.3859 127.436 34.3388C127.29 34.2916 127.155 34.2162 127.039 34.1169C126.922 34.0176 126.826 33.8963 126.756 33.7599L126.764 33.7521Z" fill="#E0E0E0"/>
<path d="M235.767 161.951C236.033 161.949 236.294 162.021 236.522 162.159C236.749 162.297 236.934 162.495 237.055 162.732L240.124 169.127C240.223 169.325 240.274 169.543 240.274 169.764C240.274 169.985 240.223 170.203 240.124 170.4C240.028 170.602 239.885 170.778 239.707 170.914C239.529 171.05 239.322 171.141 239.101 171.181C238.508 171.296 237.945 171.531 237.447 171.872C236.948 172.213 236.525 172.653 236.204 173.165C235.892 173.615 235.677 174.125 235.571 174.663C235.464 175.2 235.47 175.753 235.587 176.289C235.737 176.815 235.991 177.307 236.334 177.733C236.678 178.16 237.104 178.513 237.586 178.772C238.106 179.078 238.682 179.278 239.28 179.361C239.877 179.444 240.485 179.409 241.069 179.256C242.203 178.84 243.163 178.053 243.793 177.022C244.422 175.991 244.685 174.778 244.537 173.579C244.485 173.205 244.584 172.826 244.812 172.525C245.039 172.224 245.377 172.026 245.751 171.974C246.125 171.922 246.504 172.021 246.805 172.249C247.106 172.476 247.304 172.814 247.356 173.188C247.594 175.06 247.18 176.956 246.185 178.559C245.189 180.162 243.673 181.373 241.889 181.989C240.937 182.256 239.94 182.328 238.959 182.201C237.978 182.073 237.033 181.749 236.181 181.248C235.364 180.797 234.647 180.186 234.071 179.452C233.496 178.718 233.074 177.876 232.83 176.976C232.621 176.065 232.601 175.121 232.771 174.202C232.942 173.283 233.3 172.409 233.822 171.634C234.572 170.474 235.629 169.544 236.876 168.948L234.533 164.02C234.451 163.852 234.403 163.669 234.392 163.483C234.381 163.296 234.407 163.109 234.469 162.933C234.53 162.756 234.626 162.594 234.751 162.455C234.876 162.315 235.028 162.203 235.197 162.122C235.372 162.024 235.566 161.965 235.767 161.951Z" fill="#E0E0E0"/>
<path d="M232.706 160.084C232.571 159.809 232.548 159.492 232.643 159.2C232.738 158.909 232.943 158.665 233.214 158.522C233.488 158.383 233.807 158.358 234.099 158.453C234.392 158.549 234.635 158.756 234.775 159.03C234.916 159.305 234.942 159.625 234.847 159.92C234.752 160.214 234.543 160.459 234.268 160.6C233.992 160.74 233.672 160.766 233.378 160.671C233.084 160.576 232.839 160.367 232.698 160.092L232.706 160.084Z" fill="#E0E0E0"/>
<path d="M257.087 203.286C257.087 203.286 251.081 198.67 242.327 213.196C233.573 227.721 230.035 236.202 230.035 236.202C230.035 236.202 227.778 239.216 225.755 236.983C223.733 234.749 221.187 228.697 217.423 229.486C213.518 230.306 211.956 234.484 212.237 240.81C212.519 247.135 212.628 261.005 212.636 262.262C212.644 263.519 211.808 265.245 210.191 263.957C208.575 262.668 199.547 251.071 194.292 255.679C189.036 260.286 192.73 277.771 193.081 279.692C193.433 281.613 193.019 282.394 192.089 282.816C191.16 283.238 188.505 279.029 185.803 275.835C183.101 272.641 179.407 269.407 176.603 272.32C173.8 275.233 172.05 288.025 182.796 309.805L188.435 319.559L199.75 319.739C223.959 318.646 234.361 310.938 235.556 307.072C236.751 303.206 232.136 301.535 228.036 300.715C223.936 299.895 218.977 299.583 218.883 298.575C218.79 297.568 219.258 296.818 221.117 296.233C222.975 295.647 240.062 290.407 241.569 283.581C243.077 276.756 228.543 274.468 226.63 273.671C224.717 272.875 225.849 271.329 226.935 270.712C228.02 270.095 240.211 263.504 245.919 260.7C251.628 257.896 254.51 254.507 253.33 250.696C252.206 247.018 245.662 247.713 242.741 247.01C239.82 246.307 241.382 242.863 241.382 242.863C241.382 242.863 247.106 235.671 255.595 220.997C264.084 206.323 256.954 203.247 256.954 203.247" fill="#EBEBEB"/>
<path d="M249.223 216.312L249.059 216.632C248.934 216.843 248.77 217.147 248.551 217.538L246.568 220.997C244.842 224.019 242.319 228.385 239.18 233.758C232.933 244.519 224.1 259.302 214.331 275.6C204.561 291.898 195.729 306.674 189.395 317.396L181.906 330.102C181.031 331.593 180.344 332.757 179.868 333.554L179.337 334.452L179.142 334.748C179.191 334.642 179.245 334.537 179.306 334.436L179.813 333.522L181.789 330.032C183.515 327.009 186.037 322.652 189.184 317.271C195.432 306.518 204.257 291.727 214.034 275.421C223.811 259.115 232.628 244.355 238.961 233.633L246.451 220.927C247.333 219.435 248.012 218.272 248.489 217.475C248.723 217.093 248.895 216.796 249.028 216.577L249.223 216.312Z" fill="#E0E0E0"/>
<path d="M220.648 238.131C220.756 238.381 220.834 238.643 220.882 238.912C221.007 239.427 221.171 240.161 221.359 241.083C221.741 242.91 222.202 245.456 222.663 248.275C223.124 251.094 223.506 253.57 223.811 255.499C223.951 256.358 224.076 257.061 224.17 257.678C224.231 257.934 224.265 258.196 224.272 258.459C224.168 258.207 224.09 257.945 224.037 257.678C223.912 257.17 223.748 256.428 223.569 255.507C223.202 253.671 222.788 251.118 222.319 248.299C221.851 245.479 221.437 243.012 221.117 241.098C220.968 240.232 220.851 239.537 220.749 238.912C220.689 238.656 220.655 238.394 220.648 238.131Z" fill="#E0E0E0"/>
<path d="M225.295 258.763C225.295 258.67 230.48 257.483 236.915 256.124C243.35 254.765 248.629 253.726 248.629 253.781C248.629 253.836 243.444 255.062 237.001 256.42C230.558 257.779 225.311 258.857 225.295 258.763Z" fill="#E0E0E0"/>
<path d="M209.129 283.121C209.405 283.091 209.682 283.091 209.957 283.121L212.214 283.293C214.12 283.433 216.751 283.613 219.656 283.706C222.562 283.8 225.201 283.808 227.114 283.792H229.371C229.649 283.756 229.93 283.756 230.207 283.792C229.935 283.853 229.658 283.887 229.379 283.894C228.848 283.933 228.075 283.98 227.114 284.019C225.209 284.097 222.562 284.136 219.649 284.019C216.736 283.902 214.096 283.706 212.191 283.503C211.238 283.394 210.473 283.3 209.942 283.222C209.668 283.218 209.396 283.184 209.129 283.121Z" fill="#E0E0E0"/>
<path d="M200.852 265.386C201.012 265.586 201.146 265.807 201.25 266.042C201.508 266.549 201.836 267.166 202.21 267.9C202.991 269.462 204.085 271.664 205.264 274.085C206.443 276.506 207.482 278.716 208.216 280.333C208.559 281.114 208.848 281.723 209.075 282.238C209.198 282.464 209.29 282.706 209.348 282.957C209.198 282.75 209.068 282.531 208.958 282.301L207.997 280.442C207.216 278.88 206.115 276.678 204.944 274.257C203.772 271.836 202.726 269.626 201.984 268.01L201.125 266.104C201.01 265.874 200.919 265.634 200.852 265.386Z" fill="#E0E0E0"/>
<path d="M183.881 285.073C184.07 285.342 184.235 285.627 184.373 285.924L185.615 288.267C186.654 290.282 188.052 293.078 189.59 296.17C191.128 299.263 192.495 302.066 193.495 304.112L194.635 306.533C194.783 306.828 194.908 307.133 195.01 307.447C194.816 307.18 194.649 306.895 194.51 306.596L193.268 304.253C192.237 302.238 190.832 299.45 189.301 296.358C187.77 293.265 186.396 290.454 185.396 288.416L184.256 285.987C184.099 285.696 183.974 285.39 183.881 285.073Z" fill="#E0E0E0"/>
<path d="M194.87 306.9C195.22 306.87 195.573 306.87 195.924 306.9L198.79 307.01C201.211 307.103 204.553 307.213 208.247 307.236C211.941 307.259 215.275 307.197 217.712 307.127L220.578 307.056C220.929 307.024 221.282 307.024 221.632 307.056C221.287 307.124 220.937 307.163 220.586 307.174C219.914 307.236 218.93 307.299 217.72 307.361C215.299 307.486 211.949 307.595 208.247 307.564C204.545 307.533 201.219 307.392 198.782 307.244C197.572 307.158 196.588 307.088 195.916 307.017C195.565 307.008 195.215 306.969 194.87 306.9Z" fill="#E0E0E0"/>
<path d="M293.978 332.171C293.978 332.288 230.66 332.374 152.574 332.374C74.4882 332.374 11.1543 332.288 11.1543 332.171C11.1543 332.054 74.457 331.968 152.574 331.968C230.691 331.968 293.978 332.062 293.978 332.171Z" fill="#263238"/>
<path d="M225.435 283.901L213.542 227.174C213.542 227.174 206.568 199.842 182.562 190.408L180.906 189.9L178.563 189.19C177.595 188.815 173.659 187.565 172.621 187.237C140.259 176.023 131.668 178.944 97.9474 190.447C97.9474 190.447 82.9612 194.484 75.6985 214.023C68.4358 233.562 54.543 264.136 54.543 264.136L88.1857 276.022L94.6362 266.44V331.984H187.177L184.624 301.808L184.178 264.644" fill="url(#paint0_linear_2060_2015)"/>
<path d="M131.238 193.93C131.009 194.201 130.747 194.443 130.457 194.648C130.148 194.928 129.822 195.189 129.481 195.429C129.047 195.762 128.596 196.072 128.13 196.359C126.927 197.122 125.659 197.78 124.343 198.326C122.724 198.983 121.048 199.491 119.337 199.841C117.619 200.159 115.875 200.321 114.128 200.326C112.703 200.314 111.282 200.18 109.88 199.927C109.271 199.841 108.747 199.685 108.279 199.576C107.873 199.49 107.474 199.375 107.084 199.232C106.743 199.146 106.413 199.02 106.1 198.858C106.1 198.779 107.545 199.279 109.927 199.638C111.318 199.844 112.722 199.946 114.128 199.943C115.85 199.919 117.567 199.747 119.259 199.428C120.945 199.085 122.599 198.599 124.202 197.975C125.507 197.447 126.77 196.823 127.982 196.109C130.059 194.859 131.192 193.867 131.238 193.93Z" fill="#FAFAFA"/>
<g opacity="0.3">
<path d="M94.6675 291.383L102.25 300.145H109.708V309.68L186.826 327.517L186.201 320.09L113.644 295.178H101.485L95.628 290.493L94.6675 291.383Z" fill="black"/>
</g>
<path d="M117.377 283.581L110.942 282.394C110.942 282.394 95.6983 265.714 92.84 265.51C90.4972 265.315 77.5103 265.44 72.9964 265.51C72.5822 265.51 72.185 265.675 71.892 265.968C71.5991 266.261 71.4346 266.658 71.4346 267.072C71.4344 267.479 71.5925 267.869 71.8753 268.161C72.1582 268.452 72.5435 268.622 72.9496 268.634L88.2716 269.228L88.3419 270.462L72.9964 270.665C71.4346 270.782 70.435 273.257 75.4408 273.702L88.2716 274.163V274.944L75.2612 276.764C74.5974 276.857 72.8715 277.193 72.8559 277.857C72.8559 277.857 72.0749 279.489 75.7766 279.95C77.0495 280.106 88.3419 279.731 88.3419 279.731L87.9123 280.747L76.1983 283.269C75.7873 283.358 75.4252 283.599 75.1847 283.943C74.9442 284.288 74.8431 284.711 74.9019 285.128C74.9604 285.551 75.1796 285.936 75.514 286.202C75.8484 286.468 76.2724 286.595 76.6981 286.557L89.1931 285.393L101.485 295.186H117.885L117.377 283.581Z" fill="#FFBE9D"/>
<path d="M225.435 283.902L188.005 291.266L184.209 264.644" fill="url(#paint1_linear_2060_2015)"/>
<path d="M183.022 284.917L113.644 282.691V306.666L159.672 315.811L192.003 320.957C212.089 320.957 228.153 302.519 225.045 282.691H224.959L183.022 284.917Z" fill="url(#paint2_linear_2060_2015)"/>
<path d="M202.101 284.48C201.803 284.522 201.503 284.543 201.203 284.542L198.626 284.612L189.137 284.784C181.133 284.901 170.067 285.034 157.837 284.917C145.608 284.8 134.542 284.355 126.545 283.816C122.547 283.55 119.314 283.292 117.088 283.035L114.519 282.769C114.219 282.75 113.922 282.709 113.628 282.644C113.93 282.62 114.233 282.62 114.534 282.644L117.104 282.808C119.337 282.964 122.57 283.168 126.569 283.386C134.565 283.824 145.623 284.206 157.845 284.331C170.067 284.456 181.125 284.331 189.137 284.331H198.626H201.203C201.506 284.349 201.807 284.399 202.101 284.48Z" fill="#263238"/>
<path d="M113.652 282.894C113.663 283.035 113.663 283.175 113.652 283.316C113.652 283.618 113.652 284.032 113.652 284.558C113.652 285.674 113.652 287.267 113.699 289.29C113.699 293.39 113.746 299.216 113.785 306.236L113.644 306.065C121.454 307.744 130.872 309.829 140.977 311.945C154.831 314.881 167.451 317.193 176.619 318.614C181.211 319.317 184.928 319.832 187.505 320.176L190.465 320.567L191.246 320.676C191.334 320.681 191.421 320.699 191.504 320.731H191.238L190.457 320.66L187.482 320.348C184.905 320.051 181.172 319.567 176.549 318.911C167.357 317.568 154.722 315.295 140.86 312.359C130.747 310.243 121.337 308.134 113.527 306.416H113.395V306.283C113.395 299.255 113.441 293.437 113.457 289.337C113.457 287.314 113.457 285.721 113.504 284.604C113.504 284.084 113.504 283.67 113.504 283.363C113.528 283.2 113.578 283.042 113.652 282.894Z" fill="#263238"/>
<path d="M107.724 217.311C107.704 216.92 107.719 216.528 107.771 216.14C107.826 215.359 107.896 214.304 107.927 212.961C108.019 209.466 107.776 205.969 107.201 202.52C106.49 198.506 105.592 194.843 104.195 192.563C103.666 191.654 102.962 190.858 102.125 190.22C101.516 189.791 101.125 189.627 101.141 189.596C101.157 189.564 101.25 189.596 101.438 189.689C101.71 189.797 101.972 189.93 102.219 190.088C103.119 190.701 103.878 191.5 104.444 192.43C105.272 193.792 105.904 195.265 106.319 196.804C107.841 202.058 108.485 207.528 108.224 212.992C108.154 214.336 108.037 215.429 107.943 216.171C107.907 216.557 107.834 216.939 107.724 217.311Z" fill="#263238"/>
<path d="M184.015 196.234C184.132 196.234 184.218 212.173 184.218 231.837C184.218 251.501 184.132 267.439 184.015 267.439C183.897 267.439 183.812 251.501 183.812 231.837C183.812 212.173 183.905 196.234 184.015 196.234Z" fill="#263238"/>
<path d="M207.957 276.311C207.957 276.381 206.778 276.35 204.904 276.576C203.806 276.718 202.719 276.929 201.647 277.209C200.345 277.568 199.072 278.022 197.836 278.568C196.607 279.136 195.421 279.797 194.291 280.543C193.375 281.159 192.501 281.835 191.675 282.566C190.261 283.823 189.512 284.729 189.449 284.682C189.586 284.442 189.749 284.217 189.933 284.011C190.417 283.425 190.939 282.872 191.495 282.355C192.305 281.58 193.175 280.87 194.096 280.231C195.234 279.458 196.432 278.779 197.68 278.201C198.942 277.642 200.248 277.19 201.585 276.85C202.675 276.577 203.785 276.392 204.904 276.295C205.654 276.219 206.408 276.195 207.161 276.225C207.429 276.22 207.697 276.249 207.957 276.311Z" fill="#263238"/>
<g opacity="0.3">
<path d="M108.388 279.63C120.102 272.648 127.381 261.09 134.511 249.486C141.64 237.881 148.286 225.706 158.173 216.35C162.71 212.048 168.021 208.424 169.7 202.395L151.925 216.522L102.414 273.46L108.388 279.63Z" fill="black"/>
</g>
<path d="M76.2761 249.111C76.2761 249.259 73.4804 249.15 70.2863 250.243C68.9301 250.731 67.6097 251.313 66.3348 251.985C65.8205 252.303 65.2732 252.565 64.7026 252.766C65.1555 252.362 65.6565 252.016 66.1942 251.735C67.4454 250.974 68.7723 250.346 70.1536 249.861C71.5454 249.388 72.9963 249.112 74.4643 249.041C75.0683 248.972 75.6792 248.996 76.2761 249.111Z" fill="#263238"/>
<path d="M76.2761 249.111C76.2761 249.259 73.4804 249.15 70.2863 250.243C68.9301 250.731 67.6097 251.313 66.3348 251.985C65.8205 252.303 65.2732 252.565 64.7026 252.766C65.1555 252.362 65.6565 252.016 66.1942 251.735C67.4454 250.974 68.7723 250.346 70.1536 249.861C71.5454 249.388 72.9963 249.112 74.4643 249.041C75.0683 248.972 75.6792 248.996 76.2761 249.111Z" fill="#263238"/>
<path d="M183.717 274.601C182.884 274.058 181.977 273.639 181.023 273.359C179.188 272.789 176.337 272.797 173.034 273.859C169.731 274.921 166.294 277.178 162.046 278.943C159.833 279.912 157.432 280.373 155.018 280.294C152.43 280.046 149.919 279.276 147.638 278.029C145.295 276.842 143.069 275.514 140.828 274.476C138.682 273.439 136.373 272.784 134.003 272.539C129.978 272.161 125.927 272.893 122.289 274.655C119.83 275.814 117.618 277.437 115.776 279.435L114.924 280.395L114.362 281.176L114.011 281.629L113.878 281.777C113.899 281.715 113.931 281.657 113.972 281.606C114.058 281.481 114.167 281.324 114.292 281.129L114.831 280.348L115.658 279.364C117.474 277.298 119.686 275.617 122.164 274.421C123.86 273.572 125.661 272.952 127.521 272.578C129.655 272.123 131.846 271.994 134.018 272.195C136.422 272.431 138.766 273.083 140.945 274.124C143.218 275.178 145.428 276.506 147.771 277.677C150.003 278.901 152.46 279.661 154.994 279.911C157.359 280.001 159.714 279.555 161.882 278.607C166.084 276.889 169.559 274.554 172.925 273.601C176.29 272.648 179.172 272.594 181.038 273.218C181.754 273.435 182.437 273.747 183.069 274.148L183.545 274.491C183.67 274.554 183.725 274.593 183.717 274.601Z" fill="#FAFAFA"/>
<path d="M217.642 245.714C217.183 245.577 216.712 245.488 216.236 245.448C214.931 245.468 213.658 245.858 212.565 246.573C211.121 247.354 209.731 248.853 207.763 249.954C206.729 250.563 205.541 250.861 204.342 250.813C203.079 250.684 201.856 250.296 200.75 249.673C199.602 249.095 198.54 248.447 197.439 248.01C196.383 247.575 195.279 247.266 194.151 247.088C193.132 246.924 192.097 246.869 191.066 246.924C190.164 246.953 189.267 247.071 188.388 247.276C187.109 247.556 185.87 247.997 184.702 248.588C183.866 249.009 183.444 249.298 183.421 249.267C183.398 249.236 183.515 249.173 183.71 249.033C184.001 248.82 184.307 248.627 184.624 248.455C186.592 247.35 188.788 246.711 191.043 246.588C193.276 246.442 195.513 246.802 197.587 247.643C198.727 248.088 199.805 248.736 200.93 249.306C201.989 249.903 203.157 250.28 204.366 250.415C205.491 250.469 206.608 250.198 207.583 249.634C209.489 248.588 210.918 247.135 212.417 246.331C213.563 245.616 214.894 245.257 216.244 245.3C216.608 245.328 216.967 245.413 217.306 245.55C217.424 245.591 217.537 245.646 217.642 245.714Z" fill="#FAFAFA"/>
<path d="M183.296 235.054C183.116 235.04 182.938 235.008 182.764 234.96C182.593 234.96 182.382 234.866 182.124 234.827L181.249 234.71C179.374 234.551 177.486 234.744 175.681 235.28C173.015 236.107 170.46 237.258 168.075 238.709C165.173 240.566 162.143 242.215 159.008 243.644C157.356 244.354 155.614 244.832 153.831 245.066C152.158 245.269 150.462 245.153 148.833 244.722C147.382 244.298 145.975 243.735 144.631 243.043C143.366 242.418 142.21 241.801 141.133 241.294C139.465 240.422 137.647 239.874 135.776 239.677C135.255 239.646 134.732 239.662 134.214 239.724C134.037 239.741 133.859 239.741 133.683 239.724C133.852 239.664 134.027 239.624 134.206 239.607C134.721 239.515 135.244 239.473 135.768 239.482C137.673 239.62 139.532 240.138 141.234 241.005C142.335 241.497 143.499 242.098 144.764 242.707C146.092 243.377 147.48 243.919 148.911 244.324C150.496 244.732 152.144 244.838 153.768 244.636C155.517 244.407 157.225 243.936 158.844 243.238C162.202 241.856 165.092 239.935 167.872 238.365C170.293 236.913 172.888 235.774 175.595 234.976C177.433 234.457 179.354 234.306 181.249 234.531L182.132 234.687C182.39 234.742 182.593 234.812 182.764 234.859C182.948 234.905 183.126 234.971 183.296 235.054Z" fill="#FAFAFA"/>
<path d="M207.481 211.001C207.224 211.196 206.943 211.359 206.646 211.485C206.091 211.774 205.295 212.18 204.303 212.625C203.109 213.159 201.87 213.588 200.601 213.906C199.035 214.3 197.411 214.411 195.806 214.234C194.104 214.055 192.534 213.695 191.121 213.5C189.852 213.296 188.561 213.272 187.286 213.43C186.114 213.597 184.99 214.012 183.991 214.648C183.991 214.648 184.045 214.57 184.163 214.461C184.348 214.307 184.544 214.166 184.748 214.039C185.518 213.587 186.366 213.283 187.247 213.141C188.542 212.949 189.857 212.949 191.152 213.141C192.62 213.32 194.198 213.672 195.838 213.844C199.188 214.242 202.155 213.172 204.186 212.376C205.209 211.969 206.029 211.595 206.599 211.36C206.88 211.211 207.176 211.091 207.481 211.001Z" fill="#FAFAFA"/>
<path d="M106.506 224.004C106.065 223.822 105.599 223.712 105.124 223.676C103.814 223.703 102.551 224.171 101.539 225.003C100.868 225.48 100.165 226.073 99.3292 226.62C98.429 227.204 97.4237 227.607 96.3695 227.807C93.9484 228.151 91.4794 227.855 89.2083 226.948C86.7874 226.073 84.6242 224.964 82.5469 224.23C81.5738 223.886 80.5732 223.625 79.5559 223.449C78.6695 223.294 77.7683 223.239 76.8695 223.285C75.5601 223.328 74.2779 223.67 73.121 224.285C72.3401 224.738 71.9418 225.105 71.9184 225.066C71.8949 225.027 71.9965 224.964 72.1761 224.792C72.4428 224.546 72.7332 224.326 73.0429 224.136C74.1999 223.454 75.5045 223.06 76.8461 222.988C77.7691 222.925 78.6963 222.964 79.6106 223.106C80.6522 223.274 81.6767 223.536 82.6719 223.887C84.7804 224.605 86.9592 225.714 89.3489 226.573C91.5524 227.456 93.9464 227.754 96.2992 227.44C97.3122 227.263 98.2805 226.888 99.1496 226.339C99.9696 225.823 100.712 225.245 101.375 224.777C102.442 223.933 103.772 223.491 105.132 223.527C105.498 223.55 105.857 223.645 106.186 223.808C106.304 223.854 106.412 223.92 106.506 224.004Z" fill="#FAFAFA"/>
<path d="M150.497 283.823C150.497 283.823 150.59 283.886 150.747 284.034C150.974 284.257 151.18 284.5 151.364 284.761C152.205 285.964 152.677 287.387 152.72 288.856C152.763 290.324 152.376 291.772 151.606 293.023C150.567 294.702 148.794 296.037 147.802 297.966C147.34 298.908 147.202 299.976 147.412 301.004C147.63 301.975 147.971 302.915 148.427 303.8C149.278 305.502 150.067 307.158 150.036 308.689C150.044 309.286 149.917 309.877 149.664 310.418C149.412 310.959 149.039 311.436 148.576 311.812C148.319 312.005 148.027 312.146 147.717 312.226C147.498 312.265 147.389 312.273 147.381 312.226C147.777 312.099 148.149 311.906 148.482 311.656C148.896 311.278 149.225 310.815 149.444 310.299C149.664 309.783 149.77 309.226 149.755 308.665C149.755 307.228 148.974 305.651 148.091 303.94C147.61 303.031 147.25 302.062 147.022 301.059C146.79 299.945 146.935 298.785 147.435 297.763C147.965 296.798 148.622 295.907 149.388 295.116C150.083 294.387 150.717 293.604 151.285 292.773C152.195 291.353 152.573 289.658 152.355 287.986C152.222 286.853 151.838 285.765 151.231 284.8C150.793 284.167 150.465 283.847 150.497 283.823Z" fill="#FAFAFA"/>
<path d="M183.233 318.107C183.124 318.033 183.025 317.946 182.936 317.849C182.682 317.574 182.479 317.257 182.335 316.912C181.867 315.595 181.937 314.147 182.53 312.882C182.898 312.002 183.413 311.192 184.053 310.485C184.717 309.704 185.498 308.97 186.294 308.142C187.138 307.333 187.868 306.413 188.465 305.409C189.052 304.308 189.406 303.098 189.504 301.855C189.77 299.286 189.301 296.818 189.176 294.546C188.955 292.518 189.223 290.467 189.957 288.564C190.479 287.287 191.374 286.198 192.526 285.44C192.841 285.241 193.18 285.081 193.534 284.964C193.654 284.916 193.78 284.887 193.909 284.878C193.459 285.074 193.025 285.307 192.612 285.573C191.53 286.36 190.699 287.446 190.223 288.696C189.553 290.566 189.331 292.567 189.574 294.538C189.723 296.779 190.207 299.263 189.941 301.918C189.833 303.214 189.458 304.474 188.84 305.619C188.219 306.67 187.451 307.628 186.56 308.462C184.936 310.024 183.436 311.437 182.796 313.023C182.326 313.814 182.116 314.733 182.194 315.65C182.272 316.568 182.636 317.437 183.233 318.138V318.107Z" fill="#FAFAFA"/>
<path d="M187.263 328.462C186.993 328.678 186.699 328.864 186.388 329.016C185.505 329.463 184.541 329.729 183.554 329.797C181.991 329.927 180.418 329.752 178.923 329.282C176.953 328.648 175.067 327.778 173.308 326.689C171.209 325.361 168.983 324.246 166.662 323.362C163.945 322.519 161.051 322.419 158.282 323.073C155.222 323.828 152.237 324.86 149.364 326.158C146.263 327.601 143.027 328.736 139.704 329.547C137.997 329.904 136.246 330.001 134.511 329.836C132.818 329.654 131.173 329.167 129.653 328.399C126.67 326.908 124.28 324.745 121.844 322.98C120.677 322.09 119.433 321.306 118.127 320.637L117.174 320.184C116.854 320.043 116.526 319.942 116.206 319.817C115.571 319.581 114.921 319.388 114.261 319.239C111.845 318.673 109.344 318.57 106.889 318.934C104.863 319.224 102.892 319.814 101.04 320.684C100.626 320.863 100.259 321.098 99.8762 321.285C99.5164 321.467 99.1694 321.673 98.8375 321.902C98.5174 322.121 98.205 322.316 97.916 322.519L97.1351 323.136C96.689 323.482 96.2663 323.858 95.87 324.26C95.5611 324.534 95.2739 324.832 95.0109 325.151L94.4955 325.721C94.3784 325.846 94.3159 325.908 94.3081 325.9L94.4643 325.689L94.9485 325.096C95.2032 324.768 95.4825 324.46 95.7841 324.174C96.1756 323.763 96.5929 323.377 97.0336 323.019L97.8145 322.37L98.7438 321.738C99.0771 321.506 99.4239 321.295 99.7825 321.105C100.157 320.902 100.563 320.668 100.946 320.481C102.8 319.564 104.783 318.935 106.827 318.614C109.314 318.217 111.854 318.304 114.308 318.872C114.981 319.02 115.644 319.213 116.291 319.45C116.627 319.575 116.963 319.676 117.291 319.817L118.259 320.278C119.586 320.946 120.85 321.73 122.039 322.62C124.499 324.393 126.881 326.525 129.802 327.985C131.266 328.73 132.854 329.201 134.487 329.375C136.184 329.54 137.896 329.442 139.563 329.087C142.854 328.301 146.061 327.197 149.138 325.791C152.03 324.471 155.039 323.425 158.126 322.667C160.968 322.008 163.935 322.124 166.717 323.003C169.053 323.908 171.293 325.046 173.401 326.4C175.131 327.496 176.988 328.377 178.93 329.024C180.4 329.504 181.948 329.7 183.491 329.602C184.466 329.542 185.42 329.295 186.302 328.876C186.943 328.657 187.263 328.438 187.263 328.462Z" fill="#FAFAFA"/>
<path d="M143.796 198.202C147.99 198.407 152.101 196.981 155.266 194.222C158.431 191.463 160.405 187.586 160.773 183.403C161.226 178.249 161.554 173.844 161.554 173.844C161.554 173.844 174.83 173.508 176.712 160.49C178.594 147.472 180.234 117.234 180.234 117.234C173.235 113.085 165.254 110.88 157.117 110.847C148.98 110.814 140.981 112.954 133.948 117.047L131.816 118.288L128.396 181.099C128.279 183.234 128.585 185.372 129.297 187.388C130.008 189.405 131.111 191.261 132.542 192.85C133.973 194.439 135.704 195.73 137.635 196.649C139.566 197.567 141.66 198.095 143.796 198.202Z" fill="#FFBE9D"/>
<path d="M163.429 151.494C163.429 151.345 164.569 151.267 166.412 151.252C166.888 151.252 167.271 151.205 167.333 150.955C167.412 150.486 167.358 150.005 167.177 149.565L166.224 145.73C164.936 140.264 164.116 135.805 164.397 135.742C164.678 135.68 165.959 140.045 167.232 145.496C167.529 146.824 167.818 148.097 168.099 149.346C168.322 149.991 168.322 150.693 168.099 151.338C168.008 151.507 167.878 151.653 167.721 151.765C167.564 151.876 167.383 151.949 167.193 151.978C166.934 152.014 166.671 152.014 166.412 151.978C164.545 151.806 163.421 151.634 163.429 151.494Z" fill="#263238"/>
<path d="M161.633 173.665C155.59 173.001 149.881 170.555 145.233 166.636C145.233 166.636 148.036 176.546 161.195 177.062L161.633 173.665Z" fill="#EB996E"/>
<path d="M180.063 120.545C180.063 120.545 171.863 123.974 161.75 118.203C155.112 114.423 147.255 112.322 145.42 113.595C143.585 114.868 142.835 121.881 135.963 123.56C135.963 123.56 135.69 137 130.364 136.227C125.038 135.453 129.536 114.86 129.536 114.86L142.968 109.191L157.392 107.285L170.746 109.925L181.015 113.353L180.063 120.545Z" fill="#263238"/>
<path d="M131.668 131.97C131.457 131.845 123.078 128.159 122.18 137.109C121.282 146.058 130.473 145.09 130.513 144.84C130.552 144.59 131.668 131.97 131.668 131.97Z" fill="#FFBE9D"/>
<path d="M128.107 141.209C128.107 141.209 127.943 141.303 127.67 141.396C127.283 141.521 126.863 141.49 126.498 141.31C125.585 140.873 124.936 139.288 125.054 137.671C125.103 136.903 125.324 136.155 125.702 135.485C125.813 135.213 125.988 134.973 126.213 134.784C126.437 134.595 126.704 134.463 126.99 134.399C127.175 134.365 127.365 134.398 127.528 134.492C127.69 134.587 127.812 134.737 127.873 134.914C127.966 135.18 127.873 135.352 127.943 135.375C128.013 135.399 128.146 135.242 128.107 134.868C128.083 134.638 127.978 134.425 127.81 134.266C127.583 134.058 127.283 133.945 126.975 133.954C126.6 133.993 126.241 134.126 125.932 134.342C125.624 134.558 125.375 134.849 125.21 135.188C124.754 135.927 124.486 136.766 124.429 137.632C124.304 139.436 125.069 141.217 126.327 141.716C126.559 141.809 126.81 141.849 127.059 141.832C127.309 141.816 127.552 141.745 127.771 141.623C128.068 141.428 128.138 141.232 128.107 141.209Z" fill="#EB996E"/>
<path d="M141.914 115.04C140.165 117.067 138.163 118.859 135.955 120.374C133.713 121.89 130.966 122.47 128.302 121.99C125.702 121.389 123.398 119.14 123.288 116.461C123.179 113.782 125.795 111.19 128.404 111.775C127.959 111.782 127.52 111.682 127.122 111.485C126.724 111.287 126.379 110.997 126.116 110.639C125.853 110.281 125.679 109.865 125.609 109.426C125.539 108.987 125.575 108.538 125.714 108.116C125.853 107.694 126.091 107.311 126.408 107C126.725 106.688 127.112 106.457 127.536 106.325C127.96 106.193 128.41 106.165 128.848 106.242C129.285 106.32 129.698 106.5 130.051 106.77C127.779 106.34 127.529 102.74 129.333 101.303C131.137 99.8662 133.792 100.179 135.924 101.045C138.056 101.912 140.032 103.255 142.289 103.74C145.826 104.521 149.458 103.029 152.589 101.209C155.721 99.3898 158.688 97.1719 162.179 96.2036C166.459 95.0244 171.09 95.8912 175.182 97.6093C178.646 98.9347 181.694 101.158 184.014 104.052C186.224 107.004 187.317 110.924 186.357 114.477C185.396 118.031 182.07 120.983 178.376 120.998C178.376 120.998 170.09 121.826 163.343 116.82C156.595 111.814 142.351 112.447 142.351 112.447L141.914 115.04Z" fill="#263238"/>
<path d="M129.474 104.638C129.474 104.638 129.638 104.809 129.989 105.051C130.34 105.294 130.887 105.629 131.598 106.035C133.641 107.145 135.809 108.008 138.056 108.605C141.401 109.5 144.872 109.83 148.325 109.581C152.23 109.323 156.361 108.019 160.649 107.012C164.936 106.004 169.161 105.45 172.831 106.34C176.502 107.23 179.375 109.401 180.641 111.908C181.681 113.91 181.924 116.232 181.32 118.405C181.04 119.189 180.692 119.947 180.281 120.67C180.281 120.67 180.469 120.537 180.75 120.202C181.138 119.69 181.448 119.124 181.671 118.523C182.063 117.4 182.228 116.211 182.155 115.025C182.083 113.838 181.775 112.678 181.25 111.611C179.953 108.847 176.884 106.418 173.034 105.481C169.184 104.544 164.741 105.012 160.414 106.082C156.088 107.152 152.043 108.425 148.247 108.698C144.882 108.968 141.495 108.704 138.212 107.918C132.551 106.559 129.52 104.427 129.474 104.638Z" fill="#455A64"/>
<path d="M125.413 118.452C125.319 118.499 125.608 119.374 126.576 120.491C127.863 121.939 129.578 122.94 131.472 123.349C133.366 123.758 135.341 123.552 137.111 122.763C138.454 122.154 139.079 121.475 139.009 121.389C138.939 121.303 138.173 121.724 136.869 122.17C135.193 122.726 133.398 122.823 131.672 122.45C129.946 122.078 128.351 121.251 127.053 120.053C126.037 119.1 125.569 118.374 125.413 118.452Z" fill="#455A64"/>
<path d="M128.208 114.009C127.982 114.118 128.669 115.743 130.403 116.937C132.136 118.132 133.894 118.21 133.909 117.953C133.925 117.695 132.472 117.219 130.942 116.149C129.411 115.079 128.443 113.884 128.208 114.009Z" fill="#455A64"/>
<path d="M184.46 126.504C184.577 126.504 184.835 126.09 184.897 125.286C184.964 124.224 184.687 123.17 184.107 122.278C183.528 121.386 182.677 120.705 181.68 120.334C180.899 120.069 180.415 120.124 180.391 120.241C180.313 120.498 182.156 121.022 183.304 122.802C184.452 124.583 184.194 126.504 184.46 126.504Z" fill="#263238"/>
<path d="M189.098 113.681C188.833 113.572 187.849 115.938 185.506 117.89C183.163 119.842 180.703 120.483 180.773 120.764C180.844 121.045 183.593 120.764 186.131 118.624C188.669 116.484 189.348 113.712 189.098 113.681Z" fill="#455A64"/>
<path d="M175.549 137.07C175.488 137.592 175.225 138.069 174.816 138.399C174.407 138.729 173.885 138.885 173.363 138.835C173.106 138.822 172.854 138.758 172.622 138.646C172.39 138.535 172.183 138.378 172.013 138.185C171.843 137.992 171.713 137.767 171.631 137.523C171.548 137.28 171.516 137.022 171.535 136.765C171.598 136.244 171.862 135.768 172.27 135.439C172.678 135.109 173.199 134.952 173.722 135C173.979 135.013 174.23 135.077 174.462 135.189C174.694 135.301 174.901 135.457 175.071 135.65C175.242 135.843 175.372 136.068 175.454 136.312C175.536 136.556 175.568 136.813 175.549 137.07Z" fill="#263238"/>
<path d="M177.111 136.898C176.83 137.125 175.463 135.805 173.316 135.531C171.168 135.258 169.45 136.125 169.247 135.836C169.153 135.703 169.466 135.266 170.216 134.852C171.23 134.331 172.381 134.135 173.511 134.29C174.632 134.427 175.678 134.923 176.494 135.703C177.111 136.297 177.252 136.797 177.111 136.898Z" fill="#263238"/>
<path d="M155.963 134.352C155.902 134.874 155.639 135.351 155.23 135.681C154.821 136.011 154.299 136.168 153.777 136.117C153.52 136.104 153.268 136.04 153.036 135.929C152.804 135.817 152.597 135.66 152.427 135.467C152.257 135.275 152.127 135.05 152.045 134.806C151.963 134.562 151.93 134.304 151.949 134.048C152.014 133.526 152.279 133.05 152.689 132.721C153.098 132.391 153.62 132.234 154.144 132.283C154.4 132.296 154.652 132.36 154.883 132.471C155.114 132.583 155.321 132.74 155.491 132.933C155.66 133.126 155.79 133.351 155.871 133.595C155.952 133.838 155.983 134.096 155.963 134.352Z" fill="#263238"/>
<path d="M157.369 134.313C157.088 134.54 155.713 133.228 153.566 132.947C151.418 132.665 149.7 133.548 149.497 133.251C149.403 133.118 149.716 132.681 150.465 132.275C151.478 131.748 152.631 131.551 153.761 131.713C154.88 131.851 155.925 132.344 156.744 133.118C157.338 133.696 157.502 134.196 157.369 134.313Z" fill="#263238"/>
<path d="M156.541 128.386C156.111 128.761 154.502 127.605 152.324 127.386C150.145 127.168 148.333 127.933 147.997 127.48C147.841 127.261 148.13 126.699 148.934 126.176C150.015 125.516 151.283 125.23 152.542 125.363C153.801 125.496 154.981 126.039 155.9 126.91C156.572 127.597 156.736 128.206 156.541 128.386Z" fill="#263238"/>
<path d="M176.978 131.97C177.072 132.228 176.697 132.658 175.916 132.993C174.88 133.391 173.757 133.51 172.66 133.337C171.564 133.164 170.532 132.706 169.668 132.009C169.028 131.447 168.809 130.932 168.973 130.713C169.348 130.276 170.949 131.033 172.979 131.322C175.01 131.611 176.759 131.416 176.978 131.97Z" fill="#263238"/>
<path d="M161.781 155.071C162 155.071 162.156 155.484 162.133 155.969C162.109 156.453 161.898 156.835 161.672 156.828C161.445 156.82 161.289 156.406 161.32 155.922C161.352 155.438 161.555 155.055 161.781 155.071Z" fill="#263238"/>
<path d="M130.075 148.276C130.055 148.464 129.988 148.644 129.88 148.799C129.606 149.245 129.211 149.603 128.74 149.83C128.391 150.01 128.009 150.114 127.617 150.137C127.226 150.16 126.834 150.101 126.467 149.963C126.013 149.797 125.602 149.533 125.262 149.188C124.923 148.844 124.665 148.428 124.507 147.972C124.344 147.434 124.31 146.865 124.407 146.312C124.505 145.758 124.731 145.235 125.068 144.785C125.404 144.335 125.842 143.971 126.346 143.721C126.849 143.472 127.404 143.344 127.966 143.348C128.155 143.331 128.346 143.36 128.521 143.434C127.858 143.488 127.209 143.652 126.6 143.919C125.964 144.233 125.444 144.742 125.116 145.371C124.917 145.747 124.795 146.159 124.756 146.582C124.717 147.006 124.763 147.433 124.89 147.839C125.031 148.239 125.258 148.605 125.553 148.911C125.848 149.216 126.205 149.455 126.6 149.612C126.922 149.742 127.267 149.806 127.615 149.799C127.963 149.792 128.305 149.715 128.622 149.573C129.217 149.283 129.72 148.834 130.075 148.276Z" fill="#455A64"/>
<path d="M138.712 201.755C138.712 201.755 143.07 195.601 145.811 192.142C149.13 187.956 151.105 184.332 151.105 182.388V172.017C151.105 172.017 155.237 171.041 155.791 175.734C156.345 180.428 155.791 181.607 155.791 181.607C155.791 181.607 173.136 169.893 174.307 170.775C176.376 172.259 172.456 175.383 172.456 175.383L161.89 184.934L167.903 183.028C168.605 182.802 169.366 182.86 170.025 183.19C170.684 183.52 171.187 184.096 171.425 184.793C171.623 185.372 171.625 186.001 171.432 186.582C171.239 187.163 170.861 187.664 170.355 188.01L166.794 191.095L168.583 190.377C169.222 190.118 169.936 190.108 170.582 190.35C171.228 190.591 171.76 191.066 172.074 191.681C172.333 192.184 172.428 192.755 172.347 193.315C172.266 193.875 172.012 194.396 171.621 194.805L168.38 198.264L169.895 197.483C170.127 197.359 170.383 197.282 170.645 197.258C170.908 197.234 171.173 197.262 171.425 197.341C171.676 197.421 171.909 197.549 172.111 197.72C172.312 197.89 172.477 198.099 172.597 198.334C172.796 198.738 172.852 199.197 172.754 199.636C172.656 200.075 172.41 200.467 172.058 200.747L152.644 216.093L138.712 201.755Z" fill="#FFBE9D"/>
<path d="M152.675 216.038L152.433 215.812C152.269 215.64 152.027 215.406 151.722 215.109C151.09 214.461 150.16 213.547 148.966 212.329L138.626 201.849L138.548 201.771L138.61 201.685C139.875 199.878 141.258 197.957 142.757 195.921C143.507 194.88 144.288 193.839 145.1 192.798C145.928 191.736 146.779 190.666 147.575 189.502C148.405 188.331 149.154 187.104 149.817 185.832C150.58 184.552 150.965 183.081 150.926 181.591C150.926 178.514 150.926 175.323 150.926 172.017V171.861H151.066C152.135 171.635 153.25 171.819 154.19 172.376C154.651 172.686 155.038 173.094 155.322 173.571C155.594 174.058 155.786 174.585 155.892 175.133C156.084 176.204 156.201 177.287 156.244 178.374C156.244 178.92 156.244 179.475 156.244 180.029C156.24 180.607 156.151 181.18 155.978 181.732L155.689 181.482C158.368 179.686 161.156 177.866 164.014 176.015C165.443 175.109 166.904 174.203 168.387 173.321C169.883 172.408 171.429 171.582 173.018 170.845C173.236 170.749 173.461 170.668 173.69 170.603C173.812 170.567 173.938 170.543 174.065 170.533C174.145 170.518 174.227 170.518 174.307 170.533C174.389 170.556 174.462 170.602 174.518 170.666C174.728 170.823 174.893 171.033 174.996 171.274C175.099 171.515 175.136 171.78 175.103 172.04C174.894 172.971 174.409 173.817 173.713 174.469C173.081 175.148 172.362 175.703 171.722 176.312L169.738 178.1L162.054 185.074L161.859 184.738L165.381 183.629L167.122 183.083C167.411 182.989 167.685 182.895 167.989 182.809C168.297 182.725 168.616 182.691 168.934 182.708C169.567 182.727 170.177 182.946 170.677 183.335C171.176 183.724 171.54 184.262 171.713 184.87C171.887 185.479 171.863 186.127 171.644 186.721C171.425 187.315 171.023 187.824 170.496 188.174L166.958 191.228L166.771 190.931L168.52 190.228C169.13 189.977 169.805 189.933 170.441 190.103C170.901 190.226 171.324 190.459 171.672 190.784C172.02 191.108 172.283 191.513 172.437 191.963C172.591 192.413 172.632 192.894 172.557 193.364C172.481 193.834 172.291 194.277 172.003 194.656C171.605 195.125 171.222 195.507 170.832 195.929C170.051 196.749 169.27 197.553 168.559 198.342L168.364 198.092L169.996 197.241C170.285 197.108 170.6 197.04 170.918 197.045C171.236 197.049 171.549 197.125 171.834 197.267C172.119 197.409 172.368 197.613 172.564 197.864C172.759 198.115 172.896 198.406 172.964 198.717C173.028 199.016 173.026 199.326 172.957 199.624C172.888 199.923 172.754 200.202 172.565 200.443C172.376 200.663 172.161 200.859 171.925 201.029L171.277 201.536L170.012 202.536L167.591 204.434L159.563 210.681L154.463 214.687L153.144 215.702C152.847 215.937 152.691 216.038 152.691 216.038L153.144 215.656L154.463 214.594L159.516 210.54L167.45 204.215L169.84 202.309L171.097 201.31L171.738 200.802C171.954 200.65 172.151 200.472 172.323 200.271C172.571 199.948 172.702 199.552 172.698 199.145C172.693 198.738 172.552 198.345 172.298 198.027C172.044 197.71 171.69 197.487 171.294 197.394C170.898 197.301 170.482 197.343 170.113 197.514L168.52 198.35L167.685 198.795L168.333 198.1L170.597 195.679C170.972 195.273 171.378 194.851 171.738 194.438C171.991 194.104 172.159 193.713 172.227 193.299C172.294 192.885 172.259 192.46 172.124 192.063C171.989 191.666 171.758 191.308 171.453 191.021C171.147 190.734 170.776 190.526 170.371 190.416C169.809 190.266 169.213 190.308 168.676 190.533L166.927 191.236L165.935 191.642L166.716 190.931L170.269 187.846C170.724 187.538 171.069 187.093 171.256 186.577C171.443 186.06 171.462 185.498 171.311 184.97C171.159 184.442 170.845 183.975 170.412 183.636C169.98 183.297 169.452 183.104 168.903 183.083C168.325 183.092 167.755 183.214 167.224 183.442L165.482 183.996L161.96 185.113L161.101 185.387L161.773 184.777L169.481 177.804L171.464 176.007C172.12 175.391 172.823 174.844 173.424 174.203C174.056 173.612 174.501 172.85 174.705 172.009C174.734 171.815 174.708 171.616 174.631 171.436C174.554 171.255 174.428 171.099 174.268 170.986C174.221 170.869 174.018 170.939 173.807 170.986C173.595 171.049 173.386 171.125 173.182 171.213C171.61 171.938 170.081 172.757 168.606 173.665C167.122 174.547 165.67 175.445 164.233 176.351C161.367 178.155 158.594 179.967 155.916 181.763L155.424 182.091L155.635 181.505C155.78 180.997 155.856 180.472 155.861 179.943C155.889 179.402 155.889 178.86 155.861 178.319C155.818 177.253 155.706 176.192 155.525 175.141C155.421 174.642 155.244 174.16 155.002 173.712C154.744 173.287 154.398 172.922 153.987 172.642C153.131 172.137 152.118 171.967 151.144 172.165L151.293 171.986C151.293 175.286 151.293 178.478 151.293 181.56C151.293 181.95 151.293 182.341 151.293 182.731C151.246 183.118 151.162 183.5 151.043 183.871C150.805 184.589 150.51 185.286 150.16 185.957C149.488 187.242 148.726 188.479 147.88 189.658C147.099 190.822 146.209 191.907 145.389 192.954C144.569 194 143.788 195.047 143.046 196.078C141.547 198.108 140.157 200.029 138.876 201.817V201.653L148.997 212.196L151.722 215.031L152.433 215.773L152.675 216.038Z" fill="#EB996E"/>
<path d="M152.675 216.038L99.4701 286.322C91.3875 296.982 76.823 300.887 64.7419 295.1C55.9017 290.868 49.4199 281.98 54.8396 263.691L105.811 228.806L136.799 198.904L152.675 216.038Z" fill="url(#paint3_linear_2060_2015)"/>
<path d="M64.7419 295.069L65.312 295.358L66.9832 296.24C69.1849 297.231 71.5317 297.861 73.9335 298.107C75.6707 298.264 77.4198 298.233 79.1501 298.013C80.1374 297.89 81.1175 297.716 82.0865 297.49C82.5941 297.381 83.0939 297.209 83.6483 297.068C84.1778 296.928 84.6993 296.758 85.2102 296.561C87.4562 295.771 89.6026 294.723 91.6061 293.437C93.8734 292.023 95.8985 290.254 97.6037 288.197C101.235 283.902 104.991 278.997 109.052 273.765C113.113 268.533 117.33 262.855 121.828 256.92C130.809 245.034 140.625 231.93 150.879 218.123L152.511 215.929V216.187L136.635 199.006H136.908C126.061 207.963 116.018 216.507 106.92 224.121C97.8223 231.735 89.6772 238.435 82.7893 243.886C75.9015 249.337 70.2943 253.593 66.3896 256.444C64.4451 257.889 62.9145 258.951 61.8915 259.692L60.7201 260.52L60.314 260.786L60.6966 260.489L61.8524 259.63C62.8598 258.849 64.3748 257.787 66.3037 256.334C70.2084 253.445 75.7531 249.173 82.6175 243.691C89.4819 238.209 97.6115 231.501 106.694 223.855C115.776 216.21 125.803 207.667 136.643 198.701L136.791 198.584L136.916 198.717L152.8 215.898L152.917 216.023L152.816 216.163L151.184 218.365C140.922 232.157 131.098 245.269 122.102 257.139C117.596 263.074 113.316 268.712 109.255 273.945C105.194 279.177 101.446 284.097 97.7599 288.361C96.0302 290.432 93.9788 292.212 91.6842 293.632C89.6611 294.923 87.4935 295.971 85.2258 296.756C84.7147 296.953 84.1933 297.122 83.664 297.263C83.1407 297.404 82.6331 297.568 82.1021 297.685C81.1257 297.907 80.1375 298.074 79.1423 298.185C77.3984 298.403 75.6353 298.424 73.8866 298.247C71.4707 297.983 69.1147 297.324 66.9129 296.295C66.1788 295.905 65.6321 295.584 65.2651 295.381C64.8981 295.178 64.7419 295.069 64.7419 295.069Z" fill="#263238"/>
<path d="M105.085 276.764C104.492 276.365 103.87 276.01 103.226 275.702C101.413 274.967 99.4407 274.717 97.5019 274.975C96.1633 275.121 94.8423 275.398 93.5582 275.803C92.1681 276.225 90.7234 276.818 89.1927 277.42C87.5974 278.081 85.9651 278.65 84.3041 279.122C82.5021 279.641 80.6203 279.827 78.7516 279.669C76.8981 279.433 75.0884 278.931 73.3788 278.177C71.7154 277.49 70.1769 276.701 68.6932 276.03C65.7334 274.647 62.8518 273.757 60.384 273.89C58.4285 273.94 56.5425 274.625 55.0112 275.842C54.4763 276.302 54.0014 276.826 53.5977 277.404C53.6656 277.229 53.752 277.061 53.8554 276.904C54.1551 276.456 54.5093 276.047 54.9096 275.686C56.4403 274.383 58.3672 273.637 60.3762 273.57C62.9142 273.382 65.8427 274.28 68.8493 275.647C70.3566 276.319 71.9028 277.092 73.535 277.771C75.2114 278.503 76.9838 278.992 78.7985 279.224C80.6167 279.379 82.4479 279.202 84.2026 278.7C85.852 278.236 87.4737 277.678 89.06 277.029C90.6219 276.436 92.0432 275.85 93.4645 275.467C94.7725 275.072 96.1175 274.81 97.4785 274.686C99.4572 274.447 101.464 274.743 103.289 275.545C103.952 275.846 104.56 276.258 105.085 276.764Z" fill="#FAFAFA"/>
<path d="M123.89 253.211C124.068 252.77 124.138 252.294 124.093 251.821C123.969 251.188 123.69 250.595 123.281 250.097C122.872 249.598 122.346 249.208 121.75 248.962C120.918 248.611 120.052 248.35 119.165 248.181C118.124 247.975 117.11 247.65 116.143 247.213C113.984 246.09 112.054 244.576 110.45 242.746C108.693 240.88 107.131 239.021 105.46 237.584C104.025 236.273 102.318 235.297 100.462 234.726C99.1973 234.341 97.8617 234.25 96.5569 234.46C95.6432 234.624 95.1746 234.851 95.159 234.812C95.1434 234.773 95.2684 234.742 95.4948 234.64C95.826 234.493 96.1715 234.38 96.5257 234.304C97.8459 234.033 99.2121 234.084 100.508 234.453C102.427 234.994 104.196 235.969 105.678 237.303C107.453 238.93 109.135 240.656 110.715 242.473C112.288 244.263 114.171 245.752 116.276 246.869C118.228 247.838 120.305 247.916 121.844 248.705C122.472 248.981 123.021 249.413 123.437 249.959C123.854 250.506 124.125 251.149 124.225 251.828C124.266 252.198 124.209 252.572 124.061 252.914C124.023 253.022 123.964 253.123 123.89 253.211Z" fill="#FAFAFA"/>
<path d="M273.33 68.1913L270.987 68.3397L266.387 75.7586L266.692 80.3974C266.692 80.3974 263.115 80.8581 263.131 74.7512C263.147 68.6443 262.795 70.2218 262.795 70.2218C262.795 70.2218 255.158 70.6981 254.478 70.0734C253.986 69.6282 253.276 62.0532 252.916 57.9454C252.802 56.9575 253.021 55.9598 253.539 55.1108C254.057 54.2618 254.844 53.6103 255.775 53.2598C256.027 53.1734 256.289 53.1183 256.555 53.0958C258.461 52.9709 268.269 53.8768 268.269 53.8768L272.283 53.6112L273.33 68.1913Z" fill="#455A64"/>
<path d="M280.077 69.0192L277.586 53.2052L273.604 53.4707L274.642 69.0582L280.077 69.0192Z" fill="#455A64"/>
<path d="M218.852 82.3966C218.965 82.405 219.075 82.4314 219.18 82.4747C219.316 82.5117 219.447 82.5641 219.57 82.6309C219.748 82.7025 219.918 82.7914 220.078 82.8964C220.962 83.4482 221.683 84.2266 222.165 85.1507C222.647 86.0749 222.873 87.1112 222.819 88.1521C222.744 89.1407 222.386 90.0869 221.788 90.8776C221.125 91.7443 220.24 92.4161 219.227 92.8221C218.135 93.2708 216.93 93.3637 215.783 93.0876C214.649 92.7648 213.648 92.0891 212.925 91.1587C212.237 90.3086 211.799 89.2838 211.66 88.199C211.526 87.2181 211.68 86.2196 212.105 85.3251C212.572 84.3919 213.28 83.6007 214.156 83.0336C215.032 82.4665 216.044 82.1441 217.087 82.0998C217.277 82.0833 217.467 82.0833 217.657 82.0998C217.797 82.105 217.936 82.126 218.071 82.1623C218.185 82.1745 218.296 82.2062 218.399 82.256C218.399 82.3029 217.93 82.1779 217.095 82.256C215.915 82.3634 214.796 82.8263 213.885 83.5836C213.262 84.0961 212.758 84.7384 212.409 85.4657C212.027 86.3061 211.895 87.2385 212.027 88.1521C212.13 89.2121 212.555 90.2152 213.245 91.0266C213.935 91.8379 214.856 92.4186 215.886 92.6907C216.916 92.9628 218.004 92.9132 219.005 92.5486C220.005 92.184 220.87 91.5218 221.484 90.6511C222.056 89.9256 222.403 89.0489 222.483 88.1287C222.537 87.3315 222.417 86.5321 222.132 85.7859C221.714 84.6778 220.968 83.724 219.992 83.0526C219.281 82.5606 218.836 82.4356 218.852 82.3966Z" fill="#263238"/>
<path d="M202.593 96.3052C202.873 96.3354 203.142 96.4347 203.374 96.5941C203.942 96.9416 204.406 97.435 204.718 98.0229C205.029 98.6109 205.178 99.2717 205.147 99.9365C205.103 100.571 204.875 101.179 204.491 101.686C204.072 102.288 203.478 102.747 202.789 103C202.1 103.253 201.35 103.288 200.641 103.1C199.932 102.913 199.297 102.512 198.824 101.951C198.35 101.391 198.06 100.698 197.994 99.9678C197.91 99.3384 198.01 98.6983 198.282 98.1248C198.527 97.6354 198.879 97.2081 199.313 96.8753C199.926 96.3797 200.688 96.1047 201.477 96.0943C201.76 96.071 202.045 96.1194 202.304 96.2349C202.304 96.2349 202 96.2349 201.523 96.2349C200.79 96.3092 200.096 96.6032 199.532 97.0783C199.114 97.4108 198.79 97.8462 198.592 98.3419C198.393 98.8376 198.327 99.3763 198.4 99.9053C198.459 100.561 198.719 101.182 199.143 101.686C199.567 102.189 200.136 102.551 200.772 102.721C201.408 102.891 202.08 102.862 202.699 102.638C203.318 102.414 203.854 102.005 204.233 101.467C204.556 101.043 204.764 100.542 204.835 100.014C204.906 99.4852 204.839 98.9473 204.639 98.4528C204.387 97.7597 203.93 97.1602 203.327 96.7347C202.882 96.4301 202.578 96.3442 202.593 96.3052Z" fill="#263238"/>
<path d="M226.264 58.5624C226.264 58.5624 226.264 58.3438 226.357 57.9143L226.662 56.0088L226.896 54.6031C227.005 54.0877 227.177 53.541 227.333 52.9397L227.872 50.9874C227.966 50.6285 228.083 50.2763 228.224 49.9331L228.653 48.8398C230.023 45.1591 231.951 41.7113 234.37 38.6173C237.542 34.4812 241.485 30.9991 245.982 28.3636L247.888 27.2703C248.544 26.9423 249.239 26.6534 249.918 26.3332C250.598 26.013 251.293 25.6616 252.027 25.4273L254.244 24.6464L255.369 24.2715L256.54 23.9904L258.883 23.4359C259.664 23.2719 260.515 23.2016 261.343 23.0845C262.172 22.9408 263.009 22.8521 263.85 22.819C265.576 22.698 267.309 22.698 269.035 22.819C269.91 22.8893 270.793 22.9127 271.683 23.0298L274.338 23.4906C274.783 23.5765 275.236 23.6233 275.673 23.7405L277.001 24.1075C277.883 24.3652 278.782 24.5761 279.664 24.8885C281.451 25.5281 283.193 26.2847 284.881 27.1532L286.161 27.8013C286.38 27.9185 286.599 28.02 286.81 28.1371L287.419 28.5276L289.879 30.0895C290.66 30.6518 291.44 31.2921 292.221 31.8935C292.604 32.2058 293.002 32.487 293.377 32.8384L294.463 33.8692C295.928 35.264 297.302 36.7508 298.578 38.3206C299.164 39.1562 299.757 39.9918 300.359 40.8352L300.804 41.4677L301.194 42.1393L301.975 43.4904L302.756 44.8414L303.412 46.2705L304.06 47.7152L304.388 48.4337C304.482 48.6758 304.56 48.9335 304.646 49.2146L305.677 52.229C305.919 53.2677 306.161 54.3141 306.411 55.3528C308.178 63.9729 307.081 72.9342 303.287 80.8738L301.827 83.732L300.101 86.4184L299.672 87.0822L299.18 87.707L298.203 88.9487L297.227 90.1747L296.142 91.3071L295.064 92.4316L294.525 92.9939L293.939 93.5015L291.597 95.5085C289.988 96.7337 288.297 97.8479 286.536 98.8431L285.232 99.6241C284.803 99.874 284.334 100.046 283.889 100.257C282.983 100.655 282.093 101.092 281.187 101.451L278.422 102.389L277.735 102.623L277.032 102.795L275.627 103.123C273.787 103.549 271.922 103.854 270.043 104.036C269.114 104.114 268.184 104.107 267.271 104.138L265.896 104.185C265.443 104.185 264.99 104.13 264.537 104.099L261.843 103.911C260.961 103.81 260.094 103.622 259.227 103.482C257.522 103.189 255.839 102.78 254.19 102.256C253.391 102.021 252.608 101.734 251.847 101.397C251.066 101.084 250.285 100.819 249.543 100.467L247.396 99.3195L246.334 98.765L245.326 98.1325L243.319 96.8283C242.655 96.4222 242.093 95.899 241.492 95.4461C240.89 94.9931 240.305 94.5246 239.742 94.0482L238.181 92.5254C234.446 88.8895 231.452 84.5639 229.364 79.7883C227.754 76.2051 226.7 72.3971 226.24 68.4959C226.185 68.0899 226.139 67.715 226.092 67.3245C226.03 66.9607 225.999 66.5924 225.998 66.2234C225.998 65.5128 225.998 64.8412 225.951 64.2164C225.904 63.5917 225.904 63.0294 225.951 62.5062C225.998 61.9829 226.029 61.5066 226.06 61.0849C226.131 60.2493 226.185 59.6089 226.217 59.1637C226.248 58.7186 226.287 58.5078 226.287 58.5078C226.287 58.5078 226.287 58.7342 226.287 59.1637C226.287 59.5933 226.224 60.2493 226.178 61.0927C226.178 61.5144 226.115 61.9829 226.084 62.5062C226.053 63.0294 226.084 63.5995 226.131 64.2164C226.178 64.8334 226.178 65.505 226.201 66.2156C226.205 66.5822 226.239 66.9479 226.303 67.3089C226.349 67.6916 226.404 68.0899 226.459 68.4725C226.926 72.3522 227.98 76.1385 229.583 79.7024C231.678 84.4373 234.67 88.7225 238.391 92.3223L239.953 93.8217C240.516 94.2981 241.109 94.7432 241.703 95.2118C242.296 95.6803 242.858 96.1801 243.514 96.5784L245.475 97.8279L246.474 98.4605L247.536 98.9993L249.692 100.1C250.426 100.444 251.207 100.71 251.972 101.022C252.736 101.348 253.518 101.629 254.315 101.865C255.951 102.381 257.621 102.783 259.313 103.068C260.172 103.201 261.031 103.396 261.905 103.49L264.576 103.677C265.021 103.677 265.474 103.755 265.927 103.755L267.286 103.708C268.2 103.708 269.114 103.708 270.035 103.599C271.896 103.416 273.743 103.111 275.564 102.685L276.954 102.357C277.188 102.303 277.423 102.256 277.649 102.193L278.329 101.959L281.07 101.022C281.976 100.671 282.85 100.241 283.748 99.8427C284.186 99.6241 284.654 99.4601 285.084 99.2102L286.364 98.4292C288.108 97.4389 289.783 96.3327 291.378 95.1181L293.721 93.1267L294.299 92.6269L294.838 92.0724L295.9 90.9557L296.97 89.8389L297.938 88.6207L298.906 87.3868L299.39 86.7777L299.82 86.1139L301.522 83.4587C301.999 82.5138 302.483 81.5688 302.967 80.6239C304.784 76.6995 306 72.5243 306.575 68.2382C307.046 63.9408 306.867 59.5969 306.044 55.3528C305.802 54.3219 305.56 53.2833 305.318 52.229C305.076 51.1748 304.638 50.2298 304.303 49.238C304.217 48.9881 304.139 48.7382 304.045 48.4571L303.725 47.7387L303.076 46.3173L302.436 44.9039L301.655 43.5606L300.874 42.2174L300.484 41.5536L300.039 40.9289L298.281 38.4377C297.019 36.8808 295.657 35.407 294.205 34.0254L293.135 33.0024C292.784 32.6588 292.354 32.3776 291.995 32.0653C291.214 31.4717 290.472 30.8392 289.652 30.2769L287.223 28.8868L286.614 28.4964C286.411 28.3792 286.193 28.2777 285.982 28.1684L284.717 27.5124C283.048 26.6643 281.327 25.9261 279.562 25.3024C278.688 25.0056 277.798 24.7869 276.923 24.5214L275.611 24.1544C275.174 24.0372 274.721 23.9826 274.283 23.9045L271.659 23.4203C270.785 23.2953 269.902 23.2797 269.035 23.2016C267.325 23.0847 265.608 23.0847 263.897 23.2016C263.062 23.236 262.23 23.3221 261.406 23.4593C260.586 23.5765 259.766 23.639 258.969 23.803L256.626 24.3496L255.463 24.6229C255.088 24.7323 254.721 24.8728 254.346 24.99L252.144 25.7709C251.41 25.9974 250.746 26.3722 250.051 26.6612C249.356 26.9501 248.684 27.2625 248.028 27.5905L246.138 28.6682C241.663 31.2792 237.732 34.7257 234.557 38.8204C232.138 41.8938 230.2 45.3169 228.809 48.9725L228.372 50.0658C228.229 50.4036 228.109 50.7506 228.013 51.1045C227.818 51.7917 227.638 52.4321 227.466 53.0256C227.294 53.6191 227.13 54.1658 227.013 54.6812C226.896 55.1966 226.834 55.6573 226.763 56.0791C226.607 56.86 226.49 57.5316 226.412 57.9689C226.334 58.4062 226.264 58.5624 226.264 58.5624Z" fill="#263238"/>
<path d="M103.617 71.9009C103.617 71.9477 103.149 72.0102 102.399 72.385C101.352 72.9367 100.5 73.795 99.9545 74.845C99.5703 75.5689 99.3516 76.3691 99.3142 77.1878C99.285 78.1105 99.5237 79.0218 100.001 79.8118C100.503 80.7518 101.281 81.5154 102.23 81.9997C103.179 82.484 104.253 82.6656 105.309 82.5201C106.364 82.3745 107.35 81.9088 108.132 81.1857C108.915 80.4627 109.457 79.517 109.685 78.4763C109.929 77.5871 109.912 76.6468 109.638 75.7665C109.377 75.0026 108.954 74.3045 108.396 73.7204C107.587 72.8573 106.532 72.2631 105.374 72.018C104.593 71.854 104.078 71.9243 104.078 71.8774C104.186 71.8406 104.299 71.8221 104.414 71.8228C104.554 71.8066 104.695 71.8066 104.835 71.8228C105.026 71.8209 105.217 71.8366 105.405 71.8696C106.623 72.0628 107.746 72.6434 108.607 73.5252C109.21 74.1328 109.672 74.8661 109.958 75.6728C110.272 76.6113 110.305 77.6211 110.052 78.5779C109.781 79.6365 109.222 80.599 108.436 81.358C107.607 82.1957 106.531 82.7435 105.366 82.9199C104.193 83.0582 103.006 82.8202 101.977 82.2405C101.017 81.7211 100.219 80.9452 99.6734 79.9992C99.1751 79.146 98.9338 78.167 98.9784 77.18C99.051 76.1397 99.3998 75.1376 99.9887 74.2769C100.578 73.4162 101.385 72.7281 102.329 72.2835C102.503 72.2018 102.683 72.1339 102.867 72.0805C102.999 72.0328 103.135 71.9988 103.274 71.979C103.383 71.9334 103.499 71.907 103.617 71.9009Z" fill="#263238"/>
<path d="M118.439 84.5129C118.439 84.5129 118.15 84.5988 117.658 84.8409C117.011 85.1996 116.486 85.7435 116.151 86.4028C115.893 86.8706 115.762 87.3977 115.77 87.9319C115.778 88.466 115.926 88.9888 116.198 89.4485C116.507 90.0275 116.987 90.4977 117.572 90.7956C118.157 91.0935 118.819 91.2049 119.47 91.1147C120.12 91.0245 120.727 90.737 121.209 90.291C121.691 89.8451 122.024 89.2621 122.164 88.6207C122.302 88.1057 122.303 87.5635 122.166 87.0482C122.029 86.5329 121.759 86.0626 121.383 85.6843C120.884 85.1432 120.234 84.7649 119.517 84.5988C119.001 84.4895 118.736 84.5207 118.736 84.4895C119.005 84.3982 119.294 84.382 119.571 84.4426C120.23 84.543 120.849 84.8195 121.363 85.2429C121.877 85.6664 122.267 86.2209 122.492 86.8479C122.696 87.4501 122.72 88.0986 122.562 88.7144C122.409 89.4329 122.038 90.0867 121.5 90.5869C120.962 91.0871 120.283 91.4095 119.555 91.5102C118.827 91.6109 118.086 91.485 117.432 91.1496C116.778 90.8143 116.244 90.2857 115.901 89.6359C115.58 89.0855 115.427 88.4526 115.464 87.8163C115.51 87.1502 115.735 86.5089 116.114 85.9593C116.493 85.4098 117.013 84.9723 117.619 84.6926C117.872 84.5608 118.155 84.4988 118.439 84.5129Z" fill="#263238"/>
<path d="M60.8139 41.6474H58.2915L52.8249 33.9708V28.9416C52.8249 28.9416 48.9202 28.6995 49.381 35.2906C49.8417 41.8817 49.3419 40.2027 49.3419 40.2027C49.3419 40.2027 41.064 40.2027 40.3768 40.9836C39.877 41.5068 39.6505 49.7301 39.5958 54.1892C39.5422 55.2654 39.8496 56.3287 40.4693 57.2101C41.0891 58.0916 41.9855 58.7407 43.0163 59.0545C43.3069 59.1313 43.6061 59.1706 43.9066 59.1716C45.9761 59.1716 56.5187 57.4926 56.5187 57.4926H60.8764L60.8139 41.6474Z" fill="url(#paint4_linear_2060_2015)"/>
<path d="M68.0377 40.265L66.4836 57.5081H62.165V40.6086L68.0377 40.265Z" fill="url(#paint5_linear_2060_2015)"/>
<path d="M99.1424 44.037C99.1424 44.037 99.1424 43.8027 99.08 43.3342C99.0175 42.8656 99.0097 42.1549 98.955 41.2491C98.955 40.7883 98.9004 40.2807 98.8691 39.6872C98.8379 39.0937 98.6973 38.5158 98.5958 37.852C98.4943 37.1882 98.3849 36.4775 98.26 35.7122C98.2088 35.3181 98.1253 34.929 98.0101 34.5486C97.9086 34.1504 97.7992 33.7677 97.6899 33.3226C96.673 29.2191 95.0406 25.2934 92.8481 21.6788C89.9731 16.8687 86.2004 12.6559 81.7354 9.26972L79.8455 7.86403C79.1817 7.42671 78.4789 7.02843 77.7916 6.59891L76.7452 5.96636C76.3991 5.73868 76.0362 5.53766 75.6597 5.36504L73.395 4.27953C73.0123 4.09992 72.614 3.90468 72.2392 3.73288L71.0287 3.28774L68.561 2.4209C67.7254 2.14758 66.8507 1.96796 65.9917 1.73368L64.6563 1.39788C64.4376 1.34321 64.219 1.28074 63.9925 1.23388L63.3209 1.13236C61.497 0.794773 59.6524 0.58083 57.7997 0.491991C56.8547 0.491991 55.9098 0.367041 54.9492 0.38266L52.0598 0.531037C51.5756 0.531037 51.0914 0.531039 50.5994 0.624752L49.1469 0.851221C48.1785 1.00741 47.1867 1.12455 46.2106 1.32759C44.2549 1.77056 42.3298 2.33922 40.4473 3.03003L39.0025 3.56107C38.7604 3.65478 38.5105 3.73288 38.2763 3.8344L37.5734 4.1702L34.7542 5.53684C33.8327 6.03664 32.9503 6.61453 32.0366 7.16119C31.5914 7.44233 31.1151 7.68442 30.6856 8.01241L29.3736 8.97296C27.6281 10.2633 25.9714 11.6696 24.4146 13.1822L22.1968 15.6109L21.6423 16.22C21.4705 16.4387 21.3065 16.6652 21.1425 16.8838L20.1429 18.2427L19.1355 19.5859L18.253 21.015L17.3784 22.4675L16.9411 23.186C16.8083 23.4359 16.6912 23.7014 16.5662 23.9669L15.0824 27.0438C14.692 28.1215 14.3015 29.1992 13.8954 30.2769C12.4612 34.7252 11.703 39.3636 11.6463 44.037C11.7057 48.7051 12.4638 53.3379 13.8954 57.7815L15.0824 61.0146L16.5584 64.0915L16.9333 64.8724L17.3784 65.5987L18.253 67.0434L19.1355 68.4803L20.1429 69.8391L21.1425 71.1745L21.6423 71.8383L22.2046 72.4553L24.4224 74.8996C25.9783 76.4103 27.6322 77.8164 29.3736 79.1089L30.6621 80.0694C31.0838 80.3896 31.568 80.6395 32.0131 80.9206C32.9268 81.4673 33.8093 82.0452 34.7308 82.545L37.55 83.9038L38.2528 84.2474L38.9791 84.5208L40.4238 85.0518C42.3267 85.7452 44.2728 86.3139 46.2496 86.7542C47.2258 86.9573 48.2176 87.0744 49.1859 87.2306L50.6463 87.4571C51.1305 87.5195 51.6147 87.5195 52.0988 87.5508L54.9961 87.6992C55.9488 87.6992 56.9016 87.6211 57.8387 87.5898C59.6914 87.501 61.5361 87.2871 63.3599 86.9495L64.0394 86.8479L64.6563 86.6761L65.9683 86.3403C66.8351 86.1061 67.7098 85.9264 68.5375 85.6453L70.9975 84.755L72.2079 84.3099L73.3637 83.7632L75.6284 82.6777C76.0035 82.5021 76.3661 82.3012 76.714 82.0764L77.7604 81.4439C78.4554 81.0144 79.1505 80.6161 79.8143 80.1787L81.7041 78.7731C86.1815 75.3942 89.9653 71.1836 92.8481 66.3718C93.1683 65.8408 93.4885 65.3331 93.7852 64.8099C94.082 64.2867 94.3006 63.7478 94.5662 63.248L95.3002 61.7252C95.4174 61.4753 95.5501 61.2332 95.6517 60.9443L95.9328 60.1633C96.2998 59.1716 96.6434 58.2188 96.9792 57.3129C97.3151 56.407 97.4712 55.5012 97.7055 54.6656C97.8149 54.2438 97.9242 53.8378 98.0257 53.4395C98.1253 53.0707 98.1958 52.6947 98.2366 52.3149C98.3615 51.534 98.4708 50.8468 98.5724 50.183C98.6739 49.5192 98.791 48.91 98.8457 48.3478C98.9004 47.7855 98.9082 47.2779 98.9316 46.7859C98.9863 45.88 99.0331 45.224 99.0565 44.7008C99.08 44.1776 99.119 43.9901 99.119 43.9901C99.119 43.9901 99.119 44.2322 99.119 44.7008C99.119 45.1694 99.0722 45.88 99.0331 46.7937C99.0331 47.2467 98.9863 47.7621 98.9628 48.3556C98.9394 48.9491 98.7988 49.527 98.7129 50.1908C98.627 50.8546 98.5021 51.573 98.3927 52.3384C98.3406 52.7342 98.2597 53.1257 98.1507 53.5098C98.0491 53.908 97.9476 54.2907 97.8383 54.7436C97.6118 55.5793 97.4322 56.4929 97.1276 57.4066C96.8231 58.3203 96.4482 59.2731 96.089 60.2727L95.8078 61.0536C95.7141 61.3035 95.5814 61.5456 95.4642 61.8346C95.2299 62.3344 94.98 62.842 94.7301 63.3964C94.4802 63.9509 94.2304 64.4429 93.9492 64.9583C93.6681 65.4737 93.3245 65.9969 93.0121 66.5202C90.1414 71.3626 86.3628 75.6052 81.8838 79.0152L80.0173 80.4286C79.3457 80.8738 78.6429 81.2721 77.9478 81.7094L76.8936 82.3498C76.5475 82.5774 76.1846 82.7784 75.8081 82.9511L73.5277 84.06C73.1373 84.2396 72.7468 84.4349 72.3641 84.6067L71.1459 85.0596L68.6703 85.9655C67.8269 86.2466 66.9523 86.4262 66.0776 86.6683L64.7578 87.0119C64.5392 87.0666 64.3205 87.1291 64.094 87.1759L63.4146 87.2775C61.5785 87.6241 59.7207 87.8433 57.8543 87.9334C56.9016 87.9334 55.9488 88.0662 54.9805 88.0506L52.0676 87.91C51.5834 87.871 51.0836 87.91 50.5994 87.8163L49.1313 87.5898C48.1473 87.4336 47.1555 87.3165 46.1637 87.1135C44.1704 86.6741 42.2086 86.1027 40.2911 85.4032L38.8307 84.8644C38.5886 84.7785 38.3387 84.6926 38.0966 84.591L37.386 84.2552L34.5434 82.8808C33.6141 82.381 32.716 81.7953 31.7945 81.2486C31.3493 80.9597 30.8652 80.7176 30.4357 80.3896L29.1393 79.4212C27.3764 78.1202 25.7039 76.7008 24.1335 75.173L21.8922 72.713L21.3299 72.0961L20.8223 71.4245L19.8149 70.0734L18.7997 68.7146L17.9094 67.2699L17.0192 65.8095L16.574 65.0754L16.1992 64.2945L14.6998 61.1707L13.505 57.9064C12.0595 53.4228 11.2961 48.7475 11.2402 44.037C11.2955 39.3156 12.0616 34.6295 13.5128 30.1363C13.911 29.043 14.2937 27.9575 14.7076 26.872C15.1215 25.7865 15.715 24.7947 16.207 23.7483C16.3319 23.4984 16.4491 23.2329 16.5818 22.9673L17.027 22.2333L17.9172 20.7729L18.8075 19.3282L19.8149 17.9693L20.8301 16.6261C20.9941 16.3997 21.1581 16.1732 21.3377 15.9545L21.9 15.3376L24.1413 12.8698C25.7128 11.3486 27.3824 9.93207 29.1393 8.62935L30.4357 7.66099C30.8652 7.33299 31.3493 7.09091 31.8023 6.80196C32.7238 6.2553 33.6141 5.6696 34.5434 5.1698L37.3938 3.79535L38.0966 3.45955C38.3387 3.35803 38.5886 3.27213 38.8307 3.18622L40.2911 2.64738C42.2086 1.94784 44.1704 1.3765 46.1637 0.937124C47.1477 0.734081 48.1473 0.61694 49.1313 0.460753L50.5994 0.234283C51.0836 0.171808 51.5756 0.179616 52.0676 0.140569L54.9805 0C55.941 0 56.9016 0.0780948 57.8465 0.117142C59.7155 0.206841 61.576 0.426029 63.4146 0.773128L64.094 0.874651C64.3205 0.921507 64.5392 0.983981 64.7578 1.03865L66.0776 1.38226C66.9444 1.61654 67.8269 1.80396 68.6703 2.0851L71.1459 2.99099L72.3641 3.43612L73.5199 3.99059L75.8081 5.09171C76.1832 5.27003 76.5459 5.47354 76.8936 5.70084L77.9478 6.34121C78.6429 6.77072 79.3457 7.17681 80.0095 7.61413L81.9072 9.04325C86.3891 12.4524 90.1704 16.6951 93.0433 21.5382C95.2309 25.1758 96.8504 29.126 97.8461 33.2523C97.9554 33.674 98.0569 34.0879 98.1585 34.4862C98.2675 34.8702 98.3484 35.2617 98.4006 35.6576C98.5099 36.4385 98.6192 37.1413 98.7207 37.8051C98.8223 38.4689 98.9238 39.0781 98.9706 39.6403C99.0175 40.2026 99.0175 40.718 99.0409 41.2022C99.08 42.1159 99.1034 42.8109 99.1268 43.2873C99.1503 43.7637 99.1424 44.037 99.1424 44.037Z" fill="#263238"/>
<path d="M169.255 59.2733C169.101 59.2692 168.95 59.2349 168.809 59.1722C168.669 59.1096 168.542 59.0199 168.436 58.9082C168.33 58.7965 168.247 58.665 168.192 58.5213C168.137 58.3776 168.111 58.2245 168.115 58.0706L168.349 47.6295C168.353 47.4488 168.398 47.2715 168.482 47.1116C168.566 46.9516 168.687 46.8135 168.833 46.708C168.981 46.6034 169.151 46.5342 169.33 46.5057C169.508 46.4773 169.691 46.4904 169.864 46.544C170.839 46.8276 171.861 46.9087 172.869 46.7825C173.876 46.6562 174.847 46.3253 175.721 45.8099C176.534 45.3658 177.247 44.7608 177.818 44.0317C178.388 43.3026 178.804 42.4648 179.04 41.5694C179.225 40.6597 179.225 39.7221 179.04 38.8124C178.855 37.9027 178.489 37.0396 177.962 36.2747C177.425 35.4169 176.72 34.6766 175.889 34.0982C175.058 33.5198 174.119 33.1153 173.128 32.9088C169.294 32.1982 165.093 34.7519 163.757 38.6097C163.654 38.9038 163.438 39.1447 163.156 39.2794C162.875 39.4142 162.552 39.4317 162.258 39.3281C161.964 39.2246 161.723 39.0084 161.588 38.7272C161.453 38.4461 161.436 38.1228 161.539 37.8287C163.242 32.9245 168.63 29.6758 173.558 30.5895C174.859 30.8555 176.094 31.3813 177.187 32.1354C178.281 32.8895 179.211 33.8564 179.923 34.9783C180.65 35.9955 181.151 37.1565 181.393 38.3835C181.634 39.6104 181.61 40.8748 181.323 42.0917C181.035 43.3087 180.49 44.4499 179.724 45.4387C178.959 46.4276 177.991 47.2411 176.885 47.8247C174.998 48.9213 172.802 49.3659 170.637 49.0898L170.411 58.1019C170.411 58.4098 170.29 58.7055 170.073 58.9247C169.857 59.1439 169.563 59.2692 169.255 59.2733Z" fill="#263238"/>
<path d="M171.067 64.4274C171.066 64.7676 170.966 65.1 170.776 65.3827C170.587 65.6654 170.318 65.8856 170.004 66.0154C169.69 66.1452 169.344 66.1788 169.01 66.1119C168.677 66.045 168.371 65.8806 168.131 65.6395C167.891 65.3984 167.728 65.0916 167.662 64.7578C167.597 64.424 167.632 64.0783 167.763 63.7645C167.895 63.4507 168.116 63.183 168.4 62.9951C168.683 62.8073 169.016 62.7078 169.356 62.7094C169.582 62.7094 169.805 62.7539 170.013 62.8403C170.221 62.9267 170.409 63.0534 170.568 63.2131C170.727 63.3727 170.853 63.5621 170.939 63.7705C171.024 63.9789 171.068 64.2022 171.067 64.4274Z" fill="#263238"/>
<path d="M41.0717 179.467C39.3191 179.485 37.6074 178.938 36.1909 177.905C35.3626 177.262 34.6714 176.459 34.1577 175.544C33.6441 174.63 33.3184 173.622 33.1999 172.579C33.0468 171.596 33.1042 170.591 33.3684 169.632C33.6326 168.673 34.0976 167.78 34.7325 167.014C35.3674 166.248 36.1577 165.625 37.0513 165.187C37.9449 164.749 38.9213 164.506 39.916 164.473C41.5401 164.369 43.1569 164.767 44.5469 165.613L47.6707 159.764C47.7424 159.628 47.8404 159.507 47.9589 159.408C48.0774 159.31 48.2142 159.236 48.3614 159.19C48.5086 159.144 48.6634 159.128 48.8169 159.142C48.9704 159.156 49.1196 159.2 49.256 159.272C49.3924 159.344 49.5133 159.442 49.6118 159.56C49.7104 159.679 49.7846 159.816 49.8303 159.963C49.876 160.11 49.8922 160.265 49.8781 160.418C49.864 160.572 49.8197 160.721 49.748 160.857L45.976 167.894C45.8901 168.054 45.7687 168.192 45.6212 168.297C45.4736 168.403 45.3038 168.473 45.1248 168.503C44.9466 168.533 44.7637 168.521 44.5912 168.466C44.4188 168.412 44.2617 168.317 44.133 168.19C43.585 167.691 42.9409 167.308 42.2401 167.065C41.5393 166.822 40.7964 166.724 40.0565 166.777C39.3844 166.804 38.7248 166.967 38.1179 167.257C37.5111 167.547 36.9696 167.958 36.5267 168.464C36.1143 168.999 35.8134 169.611 35.6417 170.264C35.47 170.917 35.4311 171.598 35.5271 172.267C35.6 173.002 35.821 173.714 36.1766 174.361C36.5323 175.008 37.0153 175.576 37.5966 176.031C38.8158 176.841 40.2738 177.213 41.7321 177.087C43.1904 176.961 44.5627 176.343 45.6246 175.336C45.8485 175.131 46.1435 175.02 46.4471 175.029C46.7508 175.037 47.0395 175.162 47.2523 175.379C47.465 175.596 47.5852 175.887 47.5875 176.191C47.5898 176.494 47.474 176.787 47.2646 177.007C45.5984 178.601 43.3772 179.483 41.0717 179.467Z" fill="#263238"/>
<path d="M49.5759 155.313C49.6909 155.08 49.8724 154.887 50.0973 154.757C50.3222 154.628 50.5805 154.568 50.8394 154.585C51.0984 154.603 51.3464 154.696 51.552 154.855C51.7577 155.013 51.9118 155.229 51.9949 155.475C52.0779 155.72 52.0862 155.985 52.0186 156.236C51.9511 156.487 51.8107 156.711 51.6153 156.882C51.4199 157.053 51.1782 157.162 50.9208 157.195C50.6634 157.229 50.4019 157.185 50.1694 157.07C49.8578 156.916 49.6202 156.644 49.5089 156.314C49.3976 155.985 49.4217 155.625 49.5759 155.313Z" fill="#263238"/>
<path d="M277.493 159.756C277.306 159.758 277.123 159.715 276.957 159.631C276.791 159.547 276.648 159.424 276.54 159.272L271.854 152.79C271.747 152.644 271.675 152.475 271.645 152.295C271.615 152.116 271.628 151.933 271.682 151.76C271.733 151.582 271.824 151.419 271.949 151.284C272.074 151.148 272.228 151.044 272.401 150.979C273.097 150.719 273.733 150.319 274.267 149.803C274.802 149.287 275.225 148.666 275.509 147.98C275.786 147.368 275.934 146.705 275.943 146.033C275.953 145.361 275.823 144.695 275.564 144.075C275.271 143.465 274.858 142.921 274.349 142.476C273.84 142.03 273.247 141.692 272.604 141.482C271.912 141.224 271.175 141.107 270.437 141.14C269.699 141.172 268.975 141.352 268.309 141.67C267.044 142.4 266.064 143.537 265.528 144.896C264.992 146.254 264.932 147.754 265.357 149.151C265.454 149.446 265.43 149.768 265.29 150.046C265.151 150.323 264.906 150.534 264.611 150.631C264.316 150.728 263.994 150.705 263.717 150.565C263.439 150.425 263.228 150.18 263.131 149.885C262.523 147.954 262.599 145.873 263.346 143.991C264.092 142.109 265.464 140.542 267.231 139.554C268.182 139.095 269.215 138.832 270.27 138.781C271.324 138.73 272.378 138.892 273.369 139.257C274.31 139.572 275.178 140.075 275.92 140.733C276.662 141.392 277.263 142.194 277.688 143.091C278.082 144.003 278.285 144.987 278.285 145.981C278.285 146.974 278.082 147.958 277.688 148.87C277.059 150.369 275.988 151.641 274.619 152.517L278.523 157.874C278.614 157.999 278.679 158.141 278.715 158.291C278.751 158.441 278.756 158.597 278.732 158.749C278.707 158.902 278.652 159.048 278.571 159.179C278.49 159.31 278.383 159.424 278.258 159.514C278.04 159.684 277.768 159.77 277.493 159.756Z" fill="#263238"/>
<path d="M281.538 161.599C281.695 161.806 281.786 162.054 281.802 162.313C281.817 162.572 281.756 162.829 281.625 163.053C281.494 163.277 281.3 163.457 281.067 163.571C280.834 163.684 280.573 163.726 280.316 163.692C280.059 163.657 279.818 163.547 279.624 163.375C279.43 163.204 279.29 162.978 279.224 162.728C279.158 162.477 279.167 162.212 279.251 161.967C279.335 161.722 279.489 161.507 279.695 161.349C279.973 161.139 280.323 161.048 280.668 161.095C281.013 161.141 281.326 161.323 281.538 161.599Z" fill="#263238"/>
<defs>
<linearGradient id="paint0_linear_2060_2015" x1="54.543" y1="256.077" x2="225.435" y2="256.077" gradientUnits="userSpaceOnUse">
<stop stop-color="#5D3DAF"/>
<stop offset="1" stop-color="#5598F7"/>
</linearGradient>
<linearGradient id="paint1_linear_2060_2015" x1="184.209" y1="277.955" x2="225.435" y2="277.955" gradientUnits="userSpaceOnUse">
<stop stop-color="#5D3DAF"/>
<stop offset="1" stop-color="#5598F7"/>
</linearGradient>
<linearGradient id="paint2_linear_2060_2015" x1="113.644" y1="301.824" x2="225.431" y2="301.824" gradientUnits="userSpaceOnUse">
<stop stop-color="#5D3DAF"/>
<stop offset="1" stop-color="#5598F7"/>
</linearGradient>
<linearGradient id="paint3_linear_2060_2015" x1="52.8569" y1="248.34" x2="152.675" y2="248.34" gradientUnits="userSpaceOnUse">
<stop stop-color="#5D3DAF"/>
<stop offset="1" stop-color="#5598F7"/>
</linearGradient>
<linearGradient id="paint4_linear_2060_2015" x1="39.5898" y1="44.056" x2="60.8764" y2="44.056" gradientUnits="userSpaceOnUse">
<stop stop-color="#5D3DAF"/>
<stop offset="1" stop-color="#5598F7"/>
</linearGradient>
<linearGradient id="paint5_linear_2060_2015" x1="62.165" y1="48.8866" x2="68.0377" y2="48.8866" gradientUnits="userSpaceOnUse">
<stop stop-color="#5D3DAF"/>
<stop offset="1" stop-color="#5598F7"/>
</linearGradient>
</defs>
</svg>
