<svg width="39" height="39" viewBox="0 0 39 39" fill="none" xmlns="http://www.w3.org/2000/svg">
<circle cx="19.5" cy="19.5" r="19.5" fill="url(#paint0_linear_2506_13449)"/>
<g clip-path="url(#clip0_2506_13449)">
<path d="M18.6918 8C21.3655 8 23.79 9.07745 25.5464 10.8098C27.3026 12.5494 28.3833 14.9436 28.3833 17.5986C28.3833 19.5352 27.8003 21.3451 26.8048 22.8521L31 27.3803L28.1062 30L24.0605 25.5915C22.5242 26.6056 20.6755 27.1973 18.6918 27.1973C16.0182 27.1973 13.5935 26.1197 11.8372 24.3875C10.0808 22.6478 9 20.2534 9 17.5986C9 14.9506 10.0879 12.5494 11.8372 10.8098C13.5935 9.07047 16.0111 8 18.6918 8ZM15.7852 14.0694C17.1976 12.5257 18.8283 11.6873 20.0509 13.0598C20.3714 13.0748 20.6581 13.1799 20.8976 13.4037C21.4004 13.8719 21.4785 14.7479 21.2485 15.4437V16.051C21.4042 16.1525 21.5049 16.3425 21.5504 16.5585C21.5808 16.6977 21.5886 16.8518 21.573 16.9984C21.5582 17.1508 21.52 17.2955 21.4593 17.416C21.3722 17.5871 21.2389 17.7073 21.0589 17.7336C20.8819 17.9198 20.7093 18.119 20.5558 18.3108C20.3866 18.5213 20.2423 18.7206 20.142 18.8843C20.0639 19.0103 20.0887 19.093 20.1172 19.187C20.1302 19.2339 20.1454 19.2828 20.155 19.3354C20.4647 19.4011 20.7436 19.4538 20.9943 19.5009C22.5871 19.7959 23.527 19.8881 23.527 21.9413C23.527 22.0466 23.4415 22.1313 23.3352 22.1313H14.5492C14.4429 22.1313 14.3574 22.0466 14.3574 21.9413C14.3574 19.8881 15.2955 19.7961 16.8901 19.5009C17.1426 19.4538 17.4253 19.4011 17.7348 19.3354C17.7462 19.2941 17.7596 19.2565 17.7728 19.2189C17.805 19.1286 17.8373 19.0384 17.7424 18.8862C17.6417 18.7226 17.4975 18.5235 17.3286 18.3128C17.1748 18.121 17.002 17.9217 16.8255 17.7355C16.6451 17.7094 16.5122 17.5889 16.4249 17.4179C16.3642 17.2994 16.3262 17.1528 16.311 17.0006C16.2977 16.854 16.3053 16.6998 16.3338 16.5605C16.3794 16.3442 16.4781 16.1563 16.6317 16.0547L16.4247 15.9325C16.3698 15.3252 16.531 14.2704 15.783 14.0712L15.7852 14.0694ZM24.7785 11.5704C23.2211 10.0281 21.0667 9.07047 18.6918 9.07047C16.3168 9.07047 14.1624 10.0283 12.6052 11.5704C11.048 13.1126 10.0808 15.2464 10.0808 17.5986C10.0808 19.9508 11.048 22.0846 12.6052 23.6268C14.1624 25.169 16.3168 26.1269 18.6918 26.1269C21.0667 26.1269 23.2211 25.169 24.7785 23.6268C26.3355 22.0846 27.3026 19.9508 27.3026 17.5986C27.3026 15.2464 26.3355 13.1126 24.7785 11.5704Z" fill="white"/>
</g>
<defs>
<linearGradient id="paint0_linear_2506_13449" x1="0" y1="19.5" x2="39" y2="19.5" gradientUnits="userSpaceOnUse">
<stop stop-color="#5D3DAF"/>
<stop offset="1" stop-color="#5598F7"/>
</linearGradient>
<clipPath id="clip0_2506_13449">
<rect width="22" height="22" fill="white" transform="translate(9 8)"/>
</clipPath>
</defs>
</svg>
