<svg width="73" height="73" viewBox="0 0 73 73" fill="none" xmlns="http://www.w3.org/2000/svg">
<circle cx="36.5" cy="36.5" r="36.5" fill="#ECECEC"/>
<g clip-path="url(#clip0_2710_2150)">
<path d="M50.853 44.1452C50.853 43.5511 51.3337 43.0699 51.9272 43.0699C52.5208 43.0699 53.0015 43.5511 53.0015 44.1452V51.8737C53.0015 52.4677 52.5208 52.9489 51.9272 52.9489H44.0801C43.4866 52.9489 43.0059 52.4677 43.0059 51.8737C43.0059 51.2796 43.4866 50.7984 44.0801 50.7984H49.231L40.0034 42.0672C39.5737 41.6613 39.5522 40.9839 39.9578 40.5511C40.3633 40.121 41.04 40.0995 41.4724 40.5054L50.853 49.3817V44.1452ZM44.1204 22.1479C43.5269 22.1479 43.0461 21.6667 43.0461 21.0726C43.0461 20.4785 43.5269 19.9973 44.1204 19.9973H51.8413C52.4348 19.9973 52.9155 20.4785 52.9155 21.0726V28.9247C52.9155 29.5188 52.4348 30 51.8413 30C51.2478 30 50.7671 29.5188 50.7671 28.9247V23.7715L42.0444 33.0081C41.6389 33.4382 40.9622 33.4597 40.5298 33.0538C40.1001 32.6479 40.0786 31.9704 40.4841 31.5376L49.3518 22.1479H44.1204ZM22.1445 28.8065C22.1445 29.4005 21.6638 29.8817 21.0703 29.8817C20.4768 29.8817 19.9961 29.4005 19.9961 28.8065V21.078C19.9961 20.4839 20.4768 20.0027 21.0703 20.0027H28.9148C29.5083 20.0027 29.989 20.4839 29.989 21.078C29.989 21.672 29.5083 22.1532 28.9148 22.1532H23.7666L32.9941 30.8844C33.4238 31.2903 33.4453 31.9677 33.0398 32.4005C32.6343 32.8306 31.9575 32.8522 31.5251 32.4462L22.1445 23.5699V28.8065ZM28.845 50.8521C29.4385 50.8521 29.9192 51.3333 29.9192 51.9274C29.9192 52.5215 29.4385 53.0027 28.845 53.0027H21.124C20.5305 53.0027 20.0498 52.5215 20.0498 51.9274V44.0726C20.0498 43.4785 20.5305 42.9973 21.124 42.9973C21.7175 42.9973 22.1982 43.4785 22.1982 44.0726V49.2285L30.9209 39.9919C31.3264 39.5618 32.0032 39.5403 32.4355 39.9462C32.8652 40.3522 32.8867 41.0296 32.4812 41.4624L23.6135 50.8521H28.845Z" fill="black"/>
</g>
<defs>
<clipPath id="clip0_2710_2150">
<rect width="33" height="33" fill="white" transform="translate(20 20)"/>
</clipPath>
</defs>
</svg>
