<svg width="77" height="77" viewBox="0 0 77 77" fill="none" xmlns="http://www.w3.org/2000/svg">
<circle cx="38.5" cy="38.5" r="37.5" fill="white" fill-opacity="0.2" stroke="#E2E0FD" stroke-width="2"/>
<g clip-path="url(#clip0_2074_769)">
<path fill-rule="evenodd" clip-rule="evenodd" d="M52.6468 41.1973C54.1128 42.873 55 45.0732 55 47.4814C55 52.7373 50.7706 57 45.5494 57C41.928 57 38.7807 54.9463 37.1954 51.9346H32.8875V53.9678H26.4591V51.9346H22.0029V49.5732H26.4591V47.5195H28.5011V42.8701H24.1059C23.5271 42.8701 23.0006 42.6328 22.6196 42.249C22.2356 41.8652 22 41.335 22 40.752V33.3018C22 32.7832 22.1862 32.3057 22.4974 31.9365C22.1862 31.5674 22 31.0898 22 30.5684V23.1211C22 22.5381 22.2356 22.0078 22.6167 21.624C22.9977 21.2373 23.5242 21 24.1059 21H50.5932C51.1721 21 51.6985 21.2373 52.0796 21.6211C52.4606 22.0049 52.6963 22.5352 52.6963 23.1182V30.5684C52.6963 31.0869 52.5072 31.5645 52.1989 31.9336C52.5101 32.3027 52.6963 32.7803 52.6963 33.2988V40.749C52.6963 40.9014 52.6788 41.0508 52.6468 41.1973ZM41.928 46.1982H42.6435V45.2021C42.6435 44.3789 42.9781 43.6318 43.5162 43.0898C44.0543 42.5479 44.796 42.2109 45.6134 42.2109C46.4308 42.2109 47.1725 42.5479 47.7106 43.0898C48.2487 43.6318 48.5833 44.3789 48.5833 45.2021V46.1982H49.1534C49.2814 46.1982 49.3861 46.3037 49.3861 46.4326V51.3545C49.3861 51.4834 49.2814 51.5889 49.1534 51.5889H41.928C41.8 51.5889 41.6953 51.4834 41.6953 51.3545V46.4326C41.6953 46.3037 41.8 46.1982 41.928 46.1982ZM43.7983 46.1982H47.4285V45.1846C47.4285 44.6807 47.2249 44.2236 46.8962 43.8926C46.5675 43.5615 46.1137 43.3564 45.6134 43.3564C45.1131 43.3564 44.6593 43.5615 44.3306 43.8926C44.0019 44.2236 43.7983 44.6807 43.7983 45.1846V46.1982ZM36.3315 49.5732C36.1803 48.8994 36.1017 48.1992 36.1017 47.4814C36.1017 45.8086 36.5322 44.2354 37.2827 42.8701H30.8427V47.5225H32.8846V49.5762H36.3315V49.5732ZM29.6733 49.2744C30.4791 49.2744 31.1335 49.9336 31.1335 50.7451C31.1335 51.5566 30.4791 52.2158 29.6733 52.2158C28.8676 52.2158 28.2131 51.5566 28.2131 50.7451C28.2131 49.9336 28.8647 49.2744 29.6733 49.2744ZM26.1217 24.8174H27.6779V28.875H26.1217V24.8174ZM47.507 35.7832C48.1877 35.7832 48.7403 36.3398 48.7403 37.0254C48.7403 37.6113 48.3389 38.1006 47.7979 38.2324C48.2866 38.3525 48.7607 38.5107 49.2174 38.7041C49.93 39.0059 50.599 39.3896 51.2128 39.8496V33.3018C51.2128 33.1318 51.143 32.9736 51.0295 32.8623C50.9423 32.7744 50.8288 32.7129 50.7037 32.6895C50.6659 32.6924 50.6281 32.6924 50.5932 32.6924H24.1059C24.0681 32.6924 24.0303 32.6924 23.9954 32.6895C23.8703 32.7129 23.7569 32.7744 23.6696 32.8623C23.5533 32.9736 23.4835 33.1289 23.4835 33.3018V40.752C23.4835 40.9219 23.5533 41.0801 23.6667 41.1914C23.7802 41.3057 23.9343 41.376 24.103 41.376H38.2309C39.0861 40.3564 40.1449 39.5186 41.3433 38.9297C42.6086 38.3086 44.0281 37.96 45.529 37.96C45.9595 37.96 46.3842 37.9893 46.8002 38.0449C46.4802 37.8193 46.2737 37.4473 46.2737 37.0254C46.2737 36.3398 46.8264 35.7832 47.507 35.7832ZM42.8093 35.7832C43.49 35.7832 44.0427 36.3398 44.0427 37.0254C44.0427 37.7109 43.49 38.2676 42.8093 38.2676C42.1287 38.2676 41.576 37.7109 41.576 37.0254C41.576 36.3398 42.1287 35.7832 42.8093 35.7832ZM34.7259 34.998H36.2821V39.0557H34.7259V34.998ZM30.4238 34.998H31.98V39.0557H30.4238V34.998ZM26.1217 34.998H27.6779V39.0557H26.1217V34.998ZM47.507 25.6025C48.1877 25.6025 48.7403 26.1592 48.7403 26.8447C48.7403 27.5303 48.1877 28.0869 47.507 28.0869C46.8264 28.0869 46.2737 27.5303 46.2737 26.8447C46.2737 26.1592 46.8264 25.6025 47.507 25.6025ZM42.8093 25.6025C43.49 25.6025 44.0427 26.1592 44.0427 26.8447C44.0427 27.5303 43.49 28.0869 42.8093 28.0869C42.1287 28.0869 41.576 27.5303 41.576 26.8447C41.576 26.1592 42.1287 25.6025 42.8093 25.6025ZM34.7259 24.8174H36.2821V28.875H34.7259V24.8174ZM30.4238 24.8174H31.98V28.875H30.4238V24.8174ZM23.9925 31.1836C24.0303 31.1807 24.0681 31.1807 24.103 31.1807H50.5903C50.6281 31.1807 50.6659 31.1807 50.7008 31.1836C50.8259 31.1602 50.9394 31.0986 51.0266 31.0107C51.1401 30.8965 51.2099 30.7412 51.2099 30.5713V23.1211C51.2099 22.9512 51.1401 22.793 51.0266 22.6787C50.9132 22.5645 50.759 22.4941 50.5903 22.4941H24.1059C23.9372 22.4941 23.7802 22.5645 23.6667 22.6787C23.5533 22.793 23.4835 22.9482 23.4835 23.1211V30.5713C23.4835 30.7412 23.5533 30.8994 23.6667 31.0107C23.754 31.0986 23.8674 31.1602 23.9925 31.1836ZM50.4943 41.1709C49.9329 40.7314 49.3134 40.3623 48.6502 40.0811C47.6932 39.6768 46.6373 39.4541 45.532 39.4541C44.8426 39.4541 44.1736 39.542 43.5336 39.7061C40.1042 40.6084 37.5736 43.749 37.5736 47.4844C37.5736 51.9229 41.1455 55.5234 45.5552 55.5234C49.9649 55.5234 53.5369 51.9258 53.5369 47.4844C53.5311 44.9238 52.3443 42.6445 50.4943 41.1709Z" fill="url(#paint0_linear_2074_769)"/>
</g>
<defs>
<linearGradient id="paint0_linear_2074_769" x1="22" y1="39" x2="55" y2="39" gradientUnits="userSpaceOnUse">
<stop stop-color="#5D3DAF"/>
<stop offset="1" stop-color="#5598F7"/>
</linearGradient>
<clipPath id="clip0_2074_769">
<rect width="33" height="36" fill="white" transform="translate(22 21)"/>
</clipPath>
</defs>
</svg>
