<svg width="39" height="39" viewBox="0 0 39 39" fill="none" xmlns="http://www.w3.org/2000/svg">
<circle cx="19.5" cy="19.5" r="19.5" fill="url(#paint0_linear_2502_7073)"/>
<g clip-path="url(#clip0_2502_7073)">
<path fill-rule="evenodd" clip-rule="evenodd" d="M15.3397 13.0299H24.6603V22.4505H15.3397V13.0299ZM19.7391 14.3776H20.6042V15.9938C20.6042 16.1533 20.5773 16.3047 20.5268 16.4463C20.4746 16.5895 20.3938 16.7132 20.2844 16.8206C20.1734 16.9281 20.0589 17.0013 19.9377 17.0452C19.7694 17.1055 19.5675 17.1348 19.3318 17.1348C19.1955 17.1348 19.0474 17.125 18.8858 17.1071C18.7243 17.0892 18.5896 17.0518 18.4819 16.998C18.3742 16.9427 18.2749 16.8662 18.1857 16.7637C18.0948 16.6628 18.0342 16.5586 18.0006 16.4512C17.9467 16.2786 17.9198 16.1257 17.9198 15.9922V14.376H18.7849V16.0296C18.7849 16.1777 18.8269 16.2933 18.9111 16.3763C18.9952 16.4593 19.113 16.5016 19.2628 16.5016C19.4109 16.5016 19.5271 16.4609 19.6129 16.3779C19.6971 16.2965 19.7391 16.181 19.7391 16.0296V14.3776ZM21.2118 14.3776H22.0819V17.0892H21.2118V14.3776ZM16.0971 9H23.9029C24.4802 9 25.007 9.22786 25.3857 9.59408C25.7644 9.96029 26 10.4697 26 11.028V26.972C26 27.5303 25.7644 28.0397 25.3857 28.4059C25.007 28.7721 24.4802 29 23.9029 29H16.0971C15.5198 29 14.993 28.7721 14.6143 28.4059C14.2356 28.0397 14 27.5303 14 26.972V11.028C14 10.4697 14.2356 9.96029 14.6143 9.59408C14.993 9.22786 15.5198 9 16.0971 9ZM15.3397 24.1416H19.2813V25.3851H20.4107V24.14H24.662V25.3851H25.4985V11.9004H14.5032V25.3867H15.3397V24.1416ZM18.8707 27.3919C18.7344 27.3919 18.6165 27.2845 18.6165 27.1462C18.6165 27.0143 18.7276 26.9004 18.8707 26.9004H21.1781C21.3144 26.9004 21.4323 27.0078 21.4323 27.1462C21.4323 27.278 21.3212 27.3919 21.1781 27.3919H18.8707ZM20 10.0514C20.2238 10.0514 20.4039 10.2256 20.4039 10.4421C20.4039 10.6585 20.2238 10.8327 20 10.8327C19.7762 10.8327 19.5961 10.6585 19.5961 10.4421C19.5961 10.2256 19.7762 10.0514 20 10.0514ZM25.4985 25.8717H14.5032V26.9655C14.5032 27.3919 14.6833 27.776 14.9745 28.0511C15.2656 28.3327 15.6628 28.5068 16.0971 28.5068H23.9029C24.3439 28.5068 24.7411 28.3327 25.0255 28.0511C25.3167 27.7695 25.4968 27.3854 25.4968 26.9655V25.8717H25.4985ZM14.5032 11.4072H25.4985V11.028C25.4985 10.6016 25.3184 10.2174 25.0272 9.94238C24.736 9.66081 24.3388 9.48665 23.9046 9.48665H16.0971C15.6561 9.48665 15.2589 9.66081 14.9745 9.94238C14.6833 10.224 14.5032 10.6081 14.5032 11.028V11.4072ZM18.8993 18.3327H19.7391V19.9017C19.7391 20.0563 19.7139 20.2044 19.6634 20.3411C19.6129 20.4795 19.5355 20.5999 19.4278 20.7041C19.3201 20.8083 19.209 20.8799 19.0912 20.9222C18.9279 20.9808 18.731 21.0101 18.5021 21.0101C18.3691 21.0101 18.2244 21.0003 18.0679 20.9824C17.9114 20.9645 17.7801 20.9287 17.6757 20.875C17.5697 20.8213 17.4738 20.7464 17.3879 20.6488C17.3004 20.5511 17.2415 20.4486 17.2079 20.346C17.1557 20.1784 17.1304 20.0303 17.1304 19.9017V18.3327H17.9703V19.9391C17.9703 20.0824 18.0123 20.1947 18.0931 20.2744C18.1756 20.3558 18.29 20.3965 18.4348 20.3965C18.5778 20.3965 18.6923 20.3558 18.7748 20.2777C18.8555 20.1995 18.8976 20.0856 18.8976 19.9391V18.3327H18.8993ZM20.1077 18.3327H21.0351L21.5181 19.1432L21.986 18.3327H22.9032L22.0567 19.6087L22.9823 20.9661H22.0348L21.5013 20.1198L20.9627 20.9661H20.0252L20.9644 19.5941L20.1077 18.3327Z" fill="white"/>
</g>
<defs>
<linearGradient id="paint0_linear_2502_7073" x1="0" y1="19.5" x2="39" y2="19.5" gradientUnits="userSpaceOnUse">
<stop stop-color="#5D3DAF"/>
<stop offset="1" stop-color="#5598F7"/>
</linearGradient>
<clipPath id="clip0_2502_7073">
<rect width="12" height="20" fill="white" transform="translate(14 9)"/>
</clipPath>
</defs>
</svg>
