<svg width="39" height="39" viewBox="0 0 39 39" fill="none" xmlns="http://www.w3.org/2000/svg">
<circle cx="19.5" cy="19.5" r="19.5" fill="url(#paint0_linear_2502_7109)"/>
<path fill-rule="evenodd" clip-rule="evenodd" d="M19.5004 11.807L15.1068 17.8904L19.5004 20.2563L23.894 17.8904L19.5004 11.807ZM18.6492 9.99663C19.0683 9.41633 19.9325 9.41632 20.3516 9.99663L25.7804 17.5133C26.1519 18.0278 25.9857 18.7517 25.427 19.0526L19.9982 21.9757C19.6875 22.1431 19.3134 22.1431 19.0026 21.9757L13.5739 19.0526C13.0151 18.7517 12.8489 18.0278 13.2205 17.5133L18.6492 9.99663Z" fill="white"/>
<path fill-rule="evenodd" clip-rule="evenodd" d="M24.4961 20.8362C25.5105 20.329 26.4971 21.5673 25.7762 22.4428L20.3105 29.0797C19.8905 29.5897 19.1095 29.5897 18.6895 29.0797L13.2238 22.4428C12.5028 21.5673 13.4895 20.329 14.5039 20.8362L19.5 23.3342L24.4961 20.8362ZM23 23.4375L19.9696 25.056C19.6739 25.2038 19.326 25.2038 19.0304 25.056L16 23.4375L19.5 27.3111L23 23.4375Z" fill="white"/>
<defs>
<linearGradient id="paint0_linear_2502_7109" x1="0" y1="19.5" x2="39" y2="19.5" gradientUnits="userSpaceOnUse">
<stop stop-color="#5D3DAF"/>
<stop offset="1" stop-color="#5598F7"/>
</linearGradient>
</defs>
</svg>
