<svg width="59" height="56" viewBox="0 0 59 56" fill="none" xmlns="http://www.w3.org/2000/svg">
<rect width="59" height="56" rx="10" fill="url(#paint0_linear_2710_1814)"/>
<path fill-rule="evenodd" clip-rule="evenodd" d="M26.3886 14.8004C26.0233 15.1117 25.8407 15.2674 25.6456 15.3981C25.1984 15.6978 24.6963 15.9058 24.1682 16.0101C23.9378 16.0556 23.6985 16.0747 23.2201 16.1128C22.0181 16.2088 21.417 16.2567 20.9156 16.4338C19.7558 16.8435 18.8435 17.7558 18.4338 18.9156C18.2567 19.417 18.2088 20.0181 18.1128 21.2201C18.0747 21.6985 18.0556 21.9378 18.0101 22.1682C17.9058 22.6963 17.6978 23.1984 17.3981 23.6456C17.2674 23.8407 17.1117 24.0233 16.8004 24.3886C16.0182 25.3065 15.6272 25.7653 15.3978 26.2452C14.8674 27.355 14.8674 28.645 15.3978 29.7549C15.6272 30.2347 16.0182 30.6936 16.8004 31.6114C17.1117 31.9767 17.2674 32.1594 17.3981 32.3544C17.6978 32.8015 17.9058 33.3037 18.0101 33.8319C18.0556 34.0623 18.0747 34.3015 18.1128 34.7799C18.2088 35.9819 18.2567 36.583 18.4338 37.0844C18.8435 38.2442 19.7558 39.1565 20.9156 39.5662C21.417 39.7432 22.0181 39.7912 23.2201 39.8872C23.6985 39.9253 23.9378 39.9445 24.1682 39.9899C24.6963 40.0942 25.1984 40.3022 25.6456 40.6019C25.8407 40.7326 26.0233 40.8883 26.3886 41.1995C27.3065 41.9818 27.7653 42.3728 28.2452 42.6022C29.355 43.1326 30.645 43.1326 31.7549 42.6022C32.2347 42.3728 32.6936 41.9818 33.6114 41.1995C33.9767 40.8883 34.1594 40.7326 34.3544 40.6019C34.8015 40.3022 35.3037 40.0942 35.8319 39.9899C36.0623 39.9445 36.3015 39.9253 36.7799 39.8872C37.9819 39.7912 38.583 39.7432 39.0844 39.5662C40.2442 39.1565 41.1565 38.2442 41.5662 37.0844C41.7432 36.583 41.7912 35.9819 41.8872 34.7799C41.9253 34.3015 41.9445 34.0623 41.9899 33.8319C42.0942 33.3037 42.3022 32.8015 42.6019 32.3544C42.7326 32.1594 42.8883 31.9767 43.1995 31.6114C43.9818 30.6936 44.3728 30.2347 44.6022 29.7549C45.1326 28.645 45.1326 27.355 44.6022 26.2452C44.3728 25.7653 43.9818 25.3065 43.1995 24.3886C42.8883 24.0233 42.7326 23.8407 42.6019 23.6456C42.3022 23.1984 42.0942 22.6963 41.9899 22.1682C41.9445 21.9378 41.9253 21.6985 41.8872 21.2201C41.7912 20.0181 41.7432 19.417 41.5662 18.9156C41.1565 17.7558 40.2442 16.8435 39.0844 16.4338C38.583 16.2567 37.9819 16.2088 36.7799 16.1128C36.3015 16.0747 36.0623 16.0556 35.8319 16.0101C35.3037 15.9058 34.8015 15.6978 34.3544 15.3981C34.1594 15.2674 33.9767 15.1117 33.6114 14.8004C32.6936 14.0182 32.2347 13.6272 31.7549 13.3978C30.645 12.8674 29.355 12.8674 28.2452 13.3978C27.7653 13.6272 27.3065 14.0182 26.3886 14.8004ZM36.5603 24.7947C37.037 24.318 37.037 23.545 36.5603 23.0682C36.0836 22.5915 35.3105 22.5915 34.8338 23.0682L27.5585 30.3436L25.1662 27.9514C24.6894 27.4747 23.9165 27.4747 23.4397 27.9514C22.963 28.4281 22.963 29.2011 23.4397 29.6779L26.6952 32.9334C27.1719 33.4101 27.9449 33.4101 28.4217 32.9334L36.5603 24.7947Z" fill="white"/>
<defs>
<linearGradient id="paint0_linear_2710_1814" x1="59" y1="0" x2="3.07617" y2="58.9198" gradientUnits="userSpaceOnUse">
<stop stop-color="#5498F7"/>
<stop offset="1" stop-color="#5C3CAF"/>
</linearGradient>
</defs>
</svg>
