<svg width="73" height="73" viewBox="0 0 73 73" fill="none" xmlns="http://www.w3.org/2000/svg">
<circle cx="36.5" cy="36.5" r="36.5" fill="#ECECEC"/>
<g clip-path="url(#clip0_2710_2142)">
<path fill-rule="evenodd" clip-rule="evenodd" d="M36.4829 31.9456C37.6874 31.9455 38.8547 32.3583 39.7859 33.1138C40.7172 33.8693 41.3547 34.9207 41.5899 36.0889C41.8251 37.2571 41.6435 38.4698 41.0759 39.5204C40.5084 40.571 39.59 41.3945 38.4773 41.8507C37.3646 42.3068 36.1264 42.3673 34.9736 42.0219C33.8208 41.6765 32.8248 40.9466 32.1553 39.9564C31.4857 38.9663 31.184 37.7772 31.3016 36.5918C31.4192 35.4064 31.9487 34.2979 32.8 33.4553C33.2832 32.9762 33.8572 32.5963 34.4892 32.3372C35.1212 32.0781 35.7988 31.945 36.4829 31.9456ZM51.5505 44.6204C51.5505 44.2991 51.6795 43.9911 51.9092 43.764C52.1389 43.5368 52.4504 43.4092 52.7752 43.4092C53.1001 43.4092 53.4116 43.5368 53.6413 43.764C53.871 43.9911 54 44.2991 54 44.6204V49.786C54 50.1075 53.8711 50.4159 53.6414 50.6434C53.4118 50.871 53.1003 50.9993 52.7752 51H52.6641H45.4494C45.1359 50.985 44.8402 50.8513 44.6237 50.6266C44.4072 50.4019 44.2864 50.1035 44.2864 49.7931C44.2864 49.4827 44.4072 49.1842 44.6237 48.9595C44.8402 48.7348 45.1359 48.6011 45.4494 48.5862H51.5505V44.6091V44.6204ZM54 29.4106C54 29.7318 53.871 30.0399 53.6413 30.267C53.4116 30.4942 53.1001 30.6218 52.7752 30.6218C52.4504 30.6218 52.1389 30.4942 51.9092 30.267C51.6795 30.0399 51.5505 29.7318 51.5505 29.4106V25.4195H45.4494C45.1359 25.4045 44.8402 25.2708 44.6237 25.0461C44.4072 24.8214 44.2864 24.5229 44.2864 24.2126C44.2864 23.9022 44.4072 23.6037 44.6237 23.379C44.8402 23.1543 45.1359 23.0206 45.4494 23.0056H52.6641H52.7752C53.0998 23.0064 53.4109 23.1342 53.6404 23.3612C53.87 23.5882 53.9992 23.8958 54 24.2168V29.3909V29.4106ZM21.4495 29.3909C21.4495 29.7121 21.3205 30.0202 21.0908 30.2473C20.8611 30.4744 20.5496 30.6021 20.2248 30.6021C19.8999 30.6021 19.5884 30.4744 19.3587 30.2473C19.129 30.0202 19 29.7121 19 29.3909V24.2111C19.0008 23.8902 19.13 23.5825 19.3596 23.3556C19.5891 23.1286 19.9002 23.0007 20.2248 23H20.3359H27.5449C27.8584 23.015 28.1541 23.1487 28.3706 23.3734C28.5871 23.5981 28.7079 23.8965 28.7079 24.2069C28.7079 24.5173 28.5871 24.8158 28.3706 25.0405C28.1541 25.2652 27.8584 25.3989 27.5449 25.4138H21.4495V29.3853V29.3909ZM19 44.6091C19 44.2879 19.129 43.9798 19.3587 43.7527C19.5884 43.5256 19.8999 43.3979 20.2248 43.3979C20.5496 43.3979 20.8611 43.5256 21.0908 43.7527C21.3205 43.9798 21.4495 44.2879 21.4495 44.6091V48.5805H27.5449C27.8584 48.5955 28.1541 48.7292 28.3706 48.9539C28.5871 49.1786 28.7079 49.4771 28.7079 49.7874C28.7079 50.0978 28.5871 50.3963 28.3706 50.621C28.1541 50.8457 27.8584 50.9794 27.5449 50.9944H20.3359H20.2248C19.9007 50.9936 19.59 50.8662 19.3606 50.6398C19.1311 50.4134 19.0015 50.1065 19 49.786V44.6091ZM20.971 36.3592C21.7882 35.3795 22.6733 34.4571 23.62 33.5989C27.3228 30.2725 31.5183 28.4952 35.8677 28.4051C40.217 28.315 44.6348 29.912 48.8132 33.3201C49.961 34.2586 51.0394 35.2771 52.0404 36.3677C52.2029 36.5451 52.2986 36.7724 52.3116 37.0114C52.3246 37.2505 52.2539 37.4866 52.1116 37.6802C50.997 39.2547 49.6632 40.6657 48.1496 41.8713C44.9943 44.3896 41.0674 45.7731 37.0127 45.7949C32.9211 45.7828 28.9364 44.5022 25.6195 42.1333C23.8495 40.8853 22.2663 39.3966 20.9169 37.7112C20.7601 37.517 20.6793 37.2735 20.6892 37.0252C20.6991 36.777 20.7992 36.5405 20.971 36.3592ZM25.0327 35.1312C24.3537 35.7458 23.7099 36.3974 23.1044 37.0831C24.2053 38.3465 25.4573 39.4729 26.8328 40.4377C29.7937 42.5543 33.3506 43.7008 37.0042 43.7162C40.5884 43.6937 44.0585 42.4671 46.8451 40.2377C47.9859 39.3301 49.0121 38.2898 49.9013 37.1394C49.1396 36.3527 48.3322 35.6107 47.4831 34.9171C43.7034 31.8357 39.7357 30.4105 35.9019 30.4753C32.068 30.5401 28.3481 32.1456 25.0327 35.1312ZM35.016 32.9398C35.4154 32.9398 35.8059 33.057 36.138 33.2764C36.4701 33.4958 36.7289 33.8077 36.8818 34.1726C37.0346 34.5375 37.0746 34.939 36.9967 35.3264C36.9188 35.7138 36.7264 36.0696 36.444 36.3489C36.1616 36.6282 35.8017 36.8184 35.41 36.8954C35.0183 36.9725 34.6122 36.9329 34.2432 36.7818C33.8742 36.6307 33.5588 36.3747 33.3369 36.0463C33.115 35.7179 32.9966 35.3318 32.9966 34.9368C32.9973 34.4074 33.2103 33.8999 33.5889 33.5256C33.9675 33.1512 34.4807 32.9406 35.016 32.9398Z" fill="black"/>
</g>
<defs>
<clipPath id="clip0_2710_2142">
<rect width="35" height="28" fill="white" transform="translate(19 23)"/>
</clipPath>
</defs>
</svg>
