<svg width="77" height="77" viewBox="0 0 77 77" fill="none" xmlns="http://www.w3.org/2000/svg">
<circle cx="38.5" cy="38.5" r="37.5" fill="white" fill-opacity="0.2" stroke="#E2E0FD" stroke-width="2"/>
<g clip-path="url(#clip0_2074_773)">
<path fill-rule="evenodd" clip-rule="evenodd" d="M38.4873 29.0987C38.8975 29.0987 39.3018 29.122 39.7002 29.1686V25.7303C39.5098 25.6604 39.3428 25.5496 39.2021 25.4098C38.9443 25.1533 38.7861 24.8037 38.7861 24.4132C38.7861 24.0257 38.9443 23.6731 39.2021 23.4167C39.46 23.1603 39.8115 23.0029 40.2041 23.0029C40.5938 23.0029 40.9482 23.1603 41.2061 23.4167C41.4639 23.6731 41.6221 24.0228 41.6221 24.4132C41.6221 24.8008 41.4639 25.1533 41.2061 25.4098C41.0684 25.5467 40.8955 25.6604 40.708 25.7303V29.3347C41.6514 29.5387 42.5449 29.8709 43.3711 30.3109V28.9822C43.3711 28.7053 43.5967 28.481 43.875 28.481H47.4023C47.4727 28.3032 47.5811 28.143 47.7158 28.0089C47.9736 27.7525 48.3252 27.5952 48.7178 27.5952C49.1074 27.5952 49.4619 27.7525 49.7197 28.0089C49.9775 28.2653 50.1357 28.615 50.1357 29.0055C50.1357 29.393 49.9775 29.7456 49.7197 30.002C49.4619 30.2584 49.1104 30.4158 48.7178 30.4158C48.3252 30.4158 47.9707 30.2584 47.7188 30.002C47.5723 29.8563 47.458 29.6786 47.3877 29.4804H44.3848V30.9257C46.4824 32.371 48.0176 34.5651 48.5977 37.1206H54.9961V31.9834C54.8408 31.9135 54.6973 31.8144 54.5801 31.695C54.3223 31.4385 54.1641 31.0889 54.1641 30.6984C54.1641 30.3109 54.3223 29.9583 54.5801 29.7019C54.8379 29.4455 55.1895 29.2881 55.582 29.2881C55.9717 29.2881 56.3262 29.4455 56.584 29.7019C56.8418 29.9583 57 30.308 57 30.6984C57 31.086 56.8418 31.4385 56.584 31.695C56.4229 31.8552 56.2236 31.9747 56.0039 32.0446V37.6247C56.0039 37.9015 55.7783 38.1258 55.5 38.1258H48.7764C48.8291 38.5454 48.8555 38.9738 48.8555 39.4109C48.8555 39.9936 48.8057 40.5647 48.7119 41.1213H54.252C54.3223 40.9319 54.4336 40.7658 54.5742 40.6259C54.832 40.3695 55.1836 40.2122 55.5762 40.2122C55.9658 40.2122 56.3203 40.3695 56.5781 40.6259C56.8359 40.8824 56.9941 41.232 56.9941 41.6225C56.9941 42.01 56.8359 42.3626 56.5781 42.619C56.3203 42.8754 55.9688 43.0328 55.5762 43.0328C55.1865 43.0328 54.832 42.8754 54.5742 42.619C54.4365 42.4821 54.3223 42.3131 54.252 42.1237H48.4922C47.8418 44.4955 46.3652 46.5265 44.3848 47.8902V48.5167H47.3877C47.458 48.3185 47.5723 48.1408 47.7188 47.9951C47.9707 47.7387 48.3281 47.5813 48.7178 47.5813C49.1104 47.5813 49.4619 47.7387 49.7197 47.9951C49.9775 48.2515 50.1357 48.6041 50.1357 48.9916C50.1357 49.3821 49.9775 49.7317 49.7197 49.9882C49.4619 50.2446 49.1074 50.4019 48.7178 50.4019C48.3252 50.4019 47.9736 50.2446 47.7158 49.9882C47.584 49.857 47.4756 49.6968 47.4023 49.5161H43.8779C43.5996 49.5161 43.374 49.2918 43.374 49.0149V48.505C42.5479 48.945 41.6514 49.2772 40.7109 49.4812V52.2668C40.9014 52.3367 41.0713 52.4504 41.209 52.5873C41.4668 52.8437 41.625 53.1963 41.625 53.5839C41.625 53.9743 41.4668 54.324 41.209 54.5804C40.9512 54.8368 40.5967 54.9942 40.207 54.9942C39.8145 54.9942 39.4629 54.8368 39.2051 54.5804C38.9473 54.324 38.7891 53.9714 38.7891 53.5839C38.7891 53.1934 38.9473 52.8437 39.2051 52.5873C39.3457 52.4475 39.5127 52.3367 39.7031 52.2668V49.6502C39.3047 49.6968 38.9004 49.7201 38.4902 49.7201C37.8779 49.7201 37.2773 49.6676 36.6943 49.5657V53.5081C36.6943 53.7849 36.4688 54.0093 36.1904 54.0093H30.5771C30.5068 54.2307 30.3867 54.4289 30.2256 54.5862C29.9678 54.8427 29.6133 55 29.2236 55C28.8311 55 28.4795 54.8427 28.2217 54.5862C27.9639 54.3298 27.8057 53.9772 27.8057 53.5897C27.8057 53.1992 27.9639 52.8496 28.2217 52.5932C28.4795 52.3367 28.834 52.1794 29.2236 52.1794C29.6162 52.1794 29.9678 52.3367 30.2256 52.5932C30.3457 52.7126 30.4424 52.8525 30.5156 53.0069H35.6836V49.3384C34.7197 49.0703 33.8115 48.6653 32.9824 48.1466C32.8916 48.2282 32.7744 48.2777 32.6426 48.2777H29.5781C29.5078 48.4613 29.3965 48.6245 29.2588 48.7585C29.001 49.0149 28.6465 49.1723 28.2568 49.1723C27.8672 49.1723 27.5127 49.0149 27.2549 48.7585C26.9971 48.505 26.8389 48.1524 26.8389 47.762C26.8389 47.3715 26.9971 47.0219 27.2549 46.7654C27.5127 46.509 27.8672 46.3517 28.2568 46.3517C28.6465 46.3517 29.001 46.509 29.2588 46.7654C29.4023 46.9082 29.5166 47.083 29.5869 47.2754H31.7871C29.877 45.664 28.5615 43.3795 28.2129 40.7862H23.0039V45.9262C23.1592 45.9962 23.3027 46.0952 23.4199 46.2147C23.6777 46.4711 23.8359 46.8208 23.8359 47.2113C23.8359 47.5988 23.6777 47.9514 23.4199 48.2078C23.1621 48.4642 22.8105 48.6216 22.418 48.6216C22.0283 48.6216 21.6738 48.4642 21.416 48.2078C21.1582 47.9543 21 47.6017 21 47.2113C21 46.8237 21.1582 46.4711 21.416 46.2147C21.5771 46.0545 21.7764 45.935 21.9961 45.8651V40.2879C21.9961 40.0111 22.2217 39.7867 22.5 39.7867H28.125C28.1191 39.6614 28.1191 39.5361 28.1191 39.4109C28.1191 38.5046 28.2363 37.6276 28.4561 36.7913H23.7451C23.6748 36.9807 23.5635 37.1468 23.4229 37.2867C23.165 37.5431 22.8135 37.7004 22.4209 37.7004C22.0312 37.7004 21.6768 37.5431 21.4189 37.2867C21.1611 37.0302 21.0029 36.6806 21.0029 36.2901C21.0029 35.9026 21.1611 35.55 21.4189 35.2936C21.6768 35.0372 22.0283 34.8798 22.4209 34.8798C22.8105 34.8798 23.165 35.0372 23.4229 35.2936C23.5605 35.4305 23.6748 35.5995 23.7451 35.7889H28.7754C29.4551 33.9852 30.6299 32.4234 32.1328 31.2637V30.7276H29.584C29.5137 30.9199 29.3994 31.0947 29.2559 31.2375C28.998 31.4939 28.6436 31.6512 28.2539 31.6512C27.8643 31.6512 27.5098 31.4939 27.252 31.2375C26.9941 30.9811 26.8359 30.6314 26.8359 30.2409C26.8359 29.8505 26.9941 29.4979 27.252 29.2444C27.5098 28.988 27.8643 28.8306 28.2539 28.8306C28.6436 28.8306 28.998 28.988 29.2559 29.2444C29.3936 29.3814 29.502 29.5445 29.5752 29.7252H32.6396C32.918 29.7252 33.1436 29.9496 33.1436 30.2264V30.576C33.9287 30.1069 34.7812 29.7368 35.6807 29.4833V24.9931H30.5156C30.4453 25.1475 30.3457 25.2903 30.2256 25.4068C29.9678 25.6633 29.6162 25.8206 29.2236 25.8206C28.834 25.8206 28.4795 25.6633 28.2217 25.4068C27.9639 25.1504 27.8057 24.8008 27.8057 24.4103C27.8057 24.0228 27.9639 23.6702 28.2217 23.4138C28.4795 23.1573 28.8311 23 29.2236 23C29.6133 23 29.9678 23.1573 30.2256 23.4138C30.3867 23.574 30.5068 23.7722 30.5771 23.9907H36.1875C36.4658 23.9907 36.6914 24.2151 36.6914 24.4919V29.2531C37.2744 29.1512 37.875 29.0987 38.4873 29.0987ZM34.3154 38.3793H35.1445V38.2803V36.6398C35.1445 35.7015 35.5312 34.8507 36.1523 34.2329C36.7734 33.6152 37.6318 33.2306 38.5752 33.2306C39.5186 33.2306 40.374 33.6152 40.9951 34.2329C41.6162 34.8507 42.0029 35.7044 42.0029 36.6398V38.2803V38.3793H42.6621C42.8086 38.3793 42.9287 38.4988 42.9287 38.6445V44.2566C42.9287 44.4023 42.8086 44.5218 42.6621 44.5218H34.3154C34.1689 44.5218 34.0488 44.4023 34.0488 44.2566V38.6445C34.0488 38.4988 34.1689 38.3793 34.3154 38.3793ZM36.4746 38.3793H40.667V38.2803V36.6223C40.667 36.0483 40.4297 35.5267 40.0518 35.1479C39.6709 34.7691 39.1465 34.536 38.5723 34.536C37.9951 34.536 37.4707 34.772 37.0898 35.1479C36.709 35.5267 36.4746 36.0483 36.4746 36.6223V38.2803V38.3793ZM38.5898 41.4506L39.0117 43.3941L37.8516 43.397L38.1914 41.4272C37.875 41.3253 37.6436 41.031 37.6436 40.6813C37.6436 40.25 37.9951 39.9004 38.4287 39.9004C38.8623 39.9004 39.2139 40.25 39.2139 40.6813C39.2197 41.063 38.9473 41.3777 38.5898 41.4506Z" fill="url(#paint0_linear_2074_773)"/>
</g>
<defs>
<linearGradient id="paint0_linear_2074_773" x1="21" y1="39" x2="57" y2="39" gradientUnits="userSpaceOnUse">
<stop stop-color="#5D3DAF"/>
<stop offset="1" stop-color="#5598F7"/>
</linearGradient>
<clipPath id="clip0_2074_773">
<rect width="36" height="32" fill="white" transform="translate(21 23)"/>
</clipPath>
</defs>
</svg>
