<svg width="59" height="56" viewBox="0 0 59 56" fill="none" xmlns="http://www.w3.org/2000/svg">
<rect width="59" height="56" rx="10" fill="url(#paint0_linear_2710_1802)"/>
<path d="M45.0001 26.7293V13.0001H15V26.7293H24.4151V29.1258C24.4151 29.8325 23.8401 30.4075 23.1334 30.4075H21.3058C19.6163 30.4075 18.2419 31.782 18.2419 33.4713V36.3508C18.2419 38.0402 19.6164 39.4146 21.3058 39.4146H25.3062V37.6324H21.3058C20.5991 37.6324 20.0241 37.0574 20.0241 36.3508V33.4713C20.0241 32.7646 20.5991 32.1897 21.3058 32.1897H23.1334C24.8229 32.1897 26.1973 30.8152 26.1973 29.1258V26.7293H33.8028V29.1258C33.8028 30.8153 35.1773 32.1897 36.8667 32.1897H38.6944C39.4011 32.1897 39.976 32.7647 39.976 33.4713V36.3508C39.976 37.0575 39.401 37.6324 38.6944 37.6324H34.694V39.4146H38.6944C40.3838 39.4146 41.7582 38.0401 41.7582 36.3508V33.4713C41.7582 31.7819 40.3837 30.4075 38.6944 30.4075H36.8667C36.16 30.4075 35.5851 29.8325 35.5851 29.1258V26.7293H45.0001ZM39.7807 16.0768H41.9312V17.8591H39.7807V16.0768ZM39.7807 18.9736H41.9312V20.7559H39.7807V18.9736ZM39.7807 21.8703H41.9312V23.6526H39.7807V21.8703ZM36.1621 16.0768H38.3126V17.8591H36.1621V16.0768ZM36.1621 18.9736H38.3126V20.7559H36.1621V18.9736ZM36.1621 21.8703H38.3126V23.6526H36.1621V21.8703ZM21.6876 16.0768H23.838V17.8591H21.6876V16.0768ZM20.2194 23.6526H18.0689V21.8703H20.2194V23.6526ZM20.2194 20.7559H18.0689V18.9736H20.2194V20.7559ZM20.2194 17.8591H18.0689V16.0768H20.2194V17.8591ZM21.6876 18.9736H23.838V20.7559H21.6876V18.9736ZM23.8381 23.6526H21.6876V21.8703H23.8381V23.6526ZM28.9248 16.0768H31.0753V17.8591H28.9248V16.0768ZM28.9248 18.9736H31.0753V20.7559H28.9248V18.9736ZM25.3062 16.0768H27.4567V17.8591H25.3062V16.0768ZM25.3062 18.9736H27.4567V20.7559H25.3062V18.9736ZM34.6939 23.6526H25.3062V21.8703H34.694V23.6526H34.6939ZM34.6939 20.7559H32.5434V18.9736H34.6939V20.7559ZM34.6939 17.8591H32.5434V16.0768H34.6939V17.8591Z" fill="white"/>
<path d="M30.7633 40.329H29.2354H27.4531V40.4539C27.4531 41.8579 28.5954 43 29.9993 43C31.4033 43 32.5455 41.8578 32.5455 40.4539V40.329H30.7633Z" fill="white"/>
<path d="M29.9997 30.444C27.5617 30.444 25.5781 32.4275 25.5781 34.8656C25.5781 36.033 26.029 37.1343 26.8476 37.9664L26.9022 38.0219C27.0512 38.1795 27.1745 38.3564 27.2716 38.5467H27.4535H29.1688H30.8306H32.5459H32.7278C32.8247 38.3569 32.9477 38.1803 33.0962 38.0229L33.1518 37.9664C33.9705 37.1342 34.4213 36.0331 34.4213 34.8656C34.4214 32.4276 32.4378 30.444 29.9997 30.444Z" fill="white"/>
<defs>
<linearGradient id="paint0_linear_2710_1802" x1="59" y1="0" x2="3.07617" y2="58.9198" gradientUnits="userSpaceOnUse">
<stop stop-color="#5498F7"/>
<stop offset="1" stop-color="#5C3CAF"/>
</linearGradient>
</defs>
</svg>
