<svg width="31" height="31" viewBox="0 0 31 31" fill="none" xmlns="http://www.w3.org/2000/svg">
<circle cx="15.5" cy="15.5" r="15" stroke="white"/>
<g clip-path="url(#clip0_2603_194)">
<path fill-rule="evenodd" clip-rule="evenodd" d="M15.5 19.75C17.8472 19.75 19.75 17.8472 19.75 15.5C19.75 13.1528 17.8472 11.25 15.5 11.25C13.1528 11.25 11.25 13.1528 11.25 15.5C11.25 17.8472 13.1528 19.75 15.5 19.75ZM15.5 18.3333C17.0648 18.3333 18.3333 17.0648 18.3333 15.5C18.3333 13.9352 17.0648 12.6667 15.5 12.6667C13.9352 12.6667 12.6667 13.9352 12.6667 15.5C12.6667 17.0648 13.9352 18.3333 15.5 18.3333Z" fill="white"/>
<path d="M19.75 10.5417C19.3588 10.5417 19.0417 10.8589 19.0417 11.2501C19.0417 11.6413 19.3588 11.9584 19.75 11.9584C20.1412 11.9584 20.4584 11.6413 20.4584 11.2501C20.4584 10.8589 20.1412 10.5417 19.75 10.5417Z" fill="white"/>
<path fill-rule="evenodd" clip-rule="evenodd" d="M8.17153 10.0288C7.70831 10.9379 7.70831 12.128 7.70831 14.5083V16.4916C7.70831 18.8718 7.70831 20.0619 8.17153 20.971C8.579 21.7707 9.22916 22.4209 10.0289 22.8283C10.938 23.2916 12.1281 23.2916 14.5083 23.2916H16.4916C18.8719 23.2916 20.062 23.2916 20.9711 22.8283C21.7708 22.4209 22.421 21.7707 22.8284 20.971C23.2916 20.0619 23.2916 18.8718 23.2916 16.4916V14.5083C23.2916 12.128 23.2916 10.9379 22.8284 10.0288C22.421 9.2291 21.7708 8.57894 20.9711 8.17147C20.062 7.70825 18.8719 7.70825 16.4916 7.70825H14.5083C12.1281 7.70825 10.938 7.70825 10.0289 8.17147C9.22916 8.57894 8.579 9.2291 8.17153 10.0288ZM16.4916 9.12492H14.5083C13.2948 9.12492 12.4699 9.12602 11.8323 9.17811C11.2112 9.22886 10.8936 9.32084 10.672 9.43373C10.1389 9.70538 9.70544 10.1388 9.43379 10.6719C9.3209 10.8935 9.22892 11.2111 9.17818 11.8322C9.12608 12.4698 9.12498 13.2948 9.12498 14.5083V16.4916C9.12498 17.7051 9.12608 18.53 9.17818 19.1676C9.22892 19.7887 9.3209 20.1064 9.43379 20.3279C9.70544 20.861 10.1389 21.2944 10.672 21.5661C10.8936 21.679 11.2112 21.771 11.8323 21.8217C12.4699 21.8738 13.2948 21.8749 14.5083 21.8749H16.4916C17.7052 21.8749 18.53 21.8738 19.1677 21.8217C19.7888 21.771 20.1064 21.679 20.328 21.5661C20.8611 21.2944 21.2945 20.861 21.5661 20.3279C21.6791 20.1064 21.7711 19.7887 21.8218 19.1676C21.8738 18.53 21.875 17.7051 21.875 16.4916V14.5083C21.875 13.2948 21.8738 12.4698 21.8218 11.8322C21.7711 11.2111 21.6791 10.8935 21.5661 10.6719C21.2945 10.1388 20.8611 9.70538 20.328 9.43373C20.1064 9.32084 19.7888 9.22886 19.1677 9.17811C18.53 9.12602 17.7052 9.12492 16.4916 9.12492Z" fill="white"/>
</g>
<defs>
<clipPath id="clip0_2603_194">
<rect width="17" height="17" fill="white" transform="translate(7 7)"/>
</clipPath>
</defs>
</svg>
