<svg width="561" height="418" viewBox="0 0 561 418" fill="none" xmlns="http://www.w3.org/2000/svg">
<path d="M560.964 367.319H0V367.6H560.964V367.319Z" fill="#E6E6E6"/>
<path d="M127.743 376.317H89.1487V376.598H127.743V376.317Z" fill="#E6E6E6"/>
<path d="M146.67 376.317H135.136V376.598H146.67V376.317Z" fill="#E6E6E6"/>
<path d="M203.574 370.808H181.853V371.089H203.574V370.808Z" fill="#E6E6E6"/>
<path d="M483.114 382.544H434.657V382.824H483.114V382.544Z" fill="#E6E6E6"/>
<path d="M500.212 382.544H493.11V382.824H500.212V382.544Z" fill="#E6E6E6"/>
<path d="M446.92 372.693H341.818V372.974H446.92V372.693Z" fill="#E6E6E6"/>
<path d="M265.897 317.281H49.2639C47.5668 317.278 45.9402 316.602 44.7413 315.401C43.5423 314.2 42.8689 312.572 42.8689 310.875V6.35011C42.8837 4.66276 43.5636 3.04938 44.761 1.8604C45.9583 0.671427 47.5765 0.00289052 49.2639 0H265.897C267.596 0 269.225 0.674938 270.427 1.87634C271.628 3.07773 272.303 4.70718 272.303 6.40621V310.875C272.303 312.574 271.628 314.204 270.427 315.405C269.225 316.606 267.596 317.281 265.897 317.281ZM49.2639 0.224387C47.6412 0.227359 46.086 0.874055 44.9396 2.02253C43.7932 3.17101 43.1494 4.72741 43.1494 6.35011V310.875C43.1494 312.498 43.7932 314.054 44.9396 315.203C46.086 316.351 47.6412 316.998 49.2639 317.001H265.897C267.521 316.998 269.077 316.352 270.225 315.203C271.373 314.055 272.02 312.499 272.023 310.875V6.35011C272.02 4.72638 271.373 3.17 270.225 2.02185C269.077 0.873691 267.521 0.227352 265.897 0.224387H49.2639Z" fill="#E6E6E6"/>
<path d="M508.581 317.281H291.937C290.239 317.278 288.611 316.602 287.41 315.402C286.21 314.201 285.534 312.573 285.531 310.875V6.35011C285.548 4.66174 286.231 3.04837 287.43 1.8597C288.629 0.671035 290.248 0.002859 291.937 0H508.581C510.267 0.00583907 511.882 0.67568 513.077 1.86434C514.272 3.053 514.95 4.6647 514.965 6.35011V310.875C514.965 312.57 514.293 314.196 513.097 315.397C511.9 316.598 510.276 317.275 508.581 317.281ZM291.937 0.224387C290.313 0.227352 288.757 0.873691 287.609 2.02185C286.461 3.17 285.814 4.72638 285.811 6.35011V310.875C285.814 312.499 286.461 314.055 287.609 315.203C288.757 316.352 290.313 316.998 291.937 317.001H508.581C510.205 316.998 511.761 316.352 512.91 315.203C514.058 314.055 514.704 312.499 514.707 310.875V6.35011C514.704 4.72638 514.058 3.17 512.91 2.02185C511.761 0.873691 510.205 0.227352 508.581 0.224387H291.937Z" fill="#E6E6E6"/>
<path d="M470.11 214.412H391.497V367.319H470.11V214.412Z" fill="#F5F5F5"/>
<path d="M470.11 214.412H463.625V367.319H470.11V214.412Z" fill="#F0F0F0"/>
<path d="M216.554 251.806L397.555 251.806V218.776L216.554 218.776V251.806Z" fill="#E0E0E0"/>
<path d="M292.027 367.432H214.423C214.125 367.432 213.84 367.313 213.63 367.103C213.419 366.893 213.301 366.607 213.301 366.31C213.301 366.012 213.419 365.727 213.63 365.516C213.84 365.306 214.125 365.188 214.423 365.188H292.027C303.246 365.188 304.738 361.912 304.738 348.92V185.118C304.738 184.821 304.856 184.535 305.067 184.325C305.277 184.115 305.563 183.996 305.86 183.996C306.158 183.996 306.443 184.115 306.653 184.325C306.864 184.535 306.982 184.821 306.982 185.118V348.92C306.982 362.809 304.828 367.432 292.027 367.432Z" fill="#E0E0E0"/>
<path d="M223.511 226.472L468.338 226.472V215.006L223.511 215.006V226.472Z" fill="#F0F0F0"/>
<path d="M225.283 214.412H146.67V367.319H225.283V214.412Z" fill="#F5F5F5"/>
<path d="M225.272 214.412H218.787V367.319H225.272V214.412Z" fill="#F0F0F0"/>
<path d="M169.613 367.319L169.613 95.0272H102.152L102.152 367.319H169.613Z" fill="#FAFAFA"/>
<path d="M165.911 163.039V102.982H105.854V163.039H165.911Z" fill="#F5F5F5"/>
<path d="M122.582 102.174H149.217C149.217 103.825 148.561 105.409 147.393 106.577C146.225 107.745 144.641 108.401 142.99 108.401H128.854C128.032 108.407 127.218 108.25 126.457 107.94C125.696 107.629 125.005 107.172 124.422 106.593C123.839 106.014 123.376 105.326 123.06 104.567C122.745 103.809 122.582 102.995 122.582 102.174Z" fill="#E0E0E0"/>
<path d="M165.9 228.481V168.424H105.843V228.481H165.9Z" fill="#F5F5F5"/>
<path d="M165.911 293.923V233.866H105.854V293.923H165.911Z" fill="#F5F5F5"/>
<path d="M165.911 359.376V299.319H105.854V359.376H165.911Z" fill="#F5F5F5"/>
<path d="M122.582 167.627H149.217C149.214 169.278 148.557 170.86 147.39 172.027C146.222 173.194 144.64 173.851 142.99 173.854H128.854C128.033 173.859 127.219 173.701 126.459 173.39C125.699 173.079 125.008 172.621 124.425 172.043C123.842 171.464 123.38 170.777 123.063 170.019C122.747 169.261 122.583 168.448 122.582 167.627Z" fill="#E0E0E0"/>
<path d="M122.582 233.069H149.217C149.217 234.721 148.561 236.304 147.393 237.472C146.225 238.64 144.641 239.296 142.99 239.296H128.854C128.032 239.302 127.218 239.145 126.457 238.835C125.696 238.525 125.005 238.067 124.422 237.488C123.839 236.909 123.376 236.221 123.06 235.463C122.745 234.704 122.582 233.891 122.582 233.069Z" fill="#E0E0E0"/>
<path d="M122.582 298.512H149.217C149.217 300.163 148.561 301.747 147.393 302.915C146.225 304.082 144.641 304.738 142.99 304.738H128.854C128.032 304.744 127.218 304.588 126.457 304.277C125.696 303.967 125.005 303.509 124.422 302.93C123.839 302.352 123.376 301.663 123.06 300.905C122.745 300.146 122.582 299.333 122.582 298.512Z" fill="#E0E0E0"/>
<path d="M102.151 367.319L102.151 95.0272H68.4599L68.4599 367.319H102.151Z" fill="#F0F0F0"/>
<path d="M296.627 214.412H279.674L283.792 181.405H300.755L296.627 214.412Z" fill="#F0F0F0"/>
<path d="M300.385 214.412H283.421L287.55 181.405H304.502L300.385 214.412Z" fill="#F5F5F5"/>
<path d="M336.758 214.412H324.495L322.15 210.676H334.402L336.758 214.412Z" fill="#F0F0F0"/>
<path d="M402.458 214.412H328.243L325.898 210.676H392.451L402.458 214.412Z" fill="#FAFAFA"/>
<path d="M242.853 204.943H248.215C250.727 204.943 253.135 205.94 254.911 207.716C256.687 209.492 257.684 211.9 257.684 214.412H233.361C233.361 213.166 233.607 211.933 234.084 210.783C234.561 209.633 235.261 208.588 236.142 207.708C237.024 206.829 238.071 206.132 239.222 205.657C240.373 205.182 241.607 204.94 242.853 204.943Z" fill="#F0F0F0"/>
<path d="M302.438 197.908H285.486L287.55 181.405H304.503L302.438 197.908Z" fill="#F0F0F0"/>
<path d="M240.093 193.959H360.139C360.375 193.959 360.609 193.909 360.824 193.812C361.04 193.715 361.232 193.573 361.388 193.396C361.544 193.218 361.661 193.01 361.73 192.784C361.799 192.558 361.819 192.32 361.788 192.085L352.544 118.128C352.494 117.725 352.299 117.355 351.996 117.086C351.692 116.817 351.3 116.669 350.894 116.669H230.882C230.647 116.669 230.414 116.719 230.2 116.816C229.985 116.912 229.793 117.053 229.638 117.229C229.482 117.405 229.365 117.612 229.295 117.837C229.225 118.061 229.204 118.298 229.233 118.532L238.477 192.5C238.526 192.897 238.716 193.263 239.013 193.531C239.31 193.799 239.693 193.951 240.093 193.959Z" fill="#F0F0F0"/>
<path d="M241.91 193.959H361.878C362.114 193.959 362.348 193.909 362.563 193.812C362.779 193.715 362.971 193.573 363.127 193.396C363.283 193.218 363.399 193.01 363.468 192.784C363.537 192.558 363.557 192.32 363.527 192.085L354.282 118.128C354.231 117.726 354.035 117.357 353.732 117.089C353.429 116.821 353.038 116.672 352.633 116.669H232.665C232.43 116.669 232.198 116.719 231.983 116.816C231.769 116.912 231.577 117.053 231.421 117.229C231.265 117.405 231.149 117.612 231.079 117.837C231.009 118.061 230.988 118.298 231.016 118.532L240.261 192.5C240.31 192.903 240.505 193.274 240.809 193.542C241.113 193.811 241.505 193.959 241.91 193.959Z" fill="#F5F5F5"/>
<path d="M359.657 189.864L351.007 120.641C350.99 120.528 350.933 120.425 350.847 120.351C350.76 120.276 350.649 120.236 350.535 120.237H235.347C235.281 120.235 235.215 120.247 235.155 120.273C235.094 120.299 235.04 120.338 234.996 120.387C234.952 120.436 234.919 120.495 234.9 120.558C234.882 120.621 234.877 120.688 234.887 120.753L243.537 189.987C243.551 190.099 243.605 190.202 243.69 190.277C243.775 190.351 243.884 190.392 243.997 190.391H359.197C359.263 190.39 359.328 190.375 359.387 190.347C359.447 190.32 359.5 190.28 359.544 190.23C359.587 190.18 359.62 190.122 359.639 190.059C359.659 189.996 359.664 189.929 359.657 189.864Z" fill="#E0E0E0"/>
<path d="M315.812 214.412H288.19V214.064C288.19 213.335 288.479 212.636 288.995 212.12C289.51 211.605 290.21 211.315 290.939 211.315H313.063C313.792 211.315 314.491 211.605 315.007 212.12C315.522 212.636 315.812 213.335 315.812 214.064V214.412Z" fill="#FAFAFA"/>
<path d="M291.41 214.412H272.674V214.064C272.674 213.335 272.963 212.636 273.479 212.12C273.994 211.605 274.693 211.315 275.422 211.315H288.661C289.39 211.315 290.089 211.605 290.605 212.12C291.12 212.636 291.41 213.335 291.41 214.064V214.412Z" fill="#F0F0F0"/>
<path d="M130.66 64.2752V64.2191C130.918 63.3553 131.165 62.4802 131.378 61.6051C131.758 62.21 132.275 62.717 132.886 63.0854C133.498 63.4537 134.188 63.673 134.901 63.7255H135.204C137.077 63.546 138.872 61.7285 140.006 58.8675C140.027 58.8161 140.039 58.7608 140.039 58.7049C140.039 58.649 140.027 58.5936 140.006 58.5422C139.951 58.4397 139.858 58.3631 139.747 58.329C138.403 57.9882 137.001 57.9349 135.634 58.1727C134.267 58.4105 132.966 58.934 131.815 59.709C131.984 58.8788 132.13 58.0373 132.253 57.2071C132.549 57.2642 132.849 57.2942 133.151 57.2968C136.202 57.2968 138.446 54.5706 138.558 54.4359C138.598 54.3865 138.625 54.3284 138.638 54.2665C138.651 54.2045 138.649 54.1404 138.633 54.0793C138.617 54.0181 138.586 53.9617 138.544 53.9145C138.502 53.8673 138.449 53.8307 138.39 53.8077C137.681 53.4557 136.906 53.2578 136.115 53.2268C135.324 53.1959 134.536 53.3327 133.801 53.6281C133.018 54.0268 132.384 54.6683 131.995 55.4569C131.423 53.7013 130.378 52.1375 128.975 50.9379C127.571 49.7383 125.864 48.9493 124.041 48.658C123.984 48.6446 123.925 48.6448 123.868 48.6584C123.812 48.6721 123.759 48.6988 123.715 48.7365C123.668 48.7696 123.629 48.8132 123.602 48.8638C123.575 48.9145 123.56 48.9708 123.558 49.0282C123.401 51.7994 123.491 55.1988 125.566 56.8144C126.435 57.4547 127.495 57.7792 128.573 57.7344C129.539 57.7111 130.497 57.5602 131.423 57.2856C131.126 59.2907 130.695 61.2735 130.133 63.2206C128.102 60.4541 125.222 58.4286 121.931 57.4539C121.827 57.4297 121.718 57.4465 121.626 57.5008C121.534 57.5552 121.467 57.6428 121.438 57.7456C120.809 60.1353 121.135 62.0763 122.369 63.3553C122.996 63.9191 123.731 64.3507 124.529 64.6244C125.327 64.8981 126.172 65.0083 127.014 64.9484C127.918 64.9427 128.82 64.8487 129.706 64.6679C129.19 66.3059 128.584 67.9103 128.012 69.4361C126.767 68.3142 123.098 65.5318 119.104 66.6986C118.997 66.7341 118.908 66.8108 118.857 66.9118C118.835 66.9632 118.824 67.0185 118.824 67.0745C118.824 67.1304 118.835 67.1857 118.857 67.2371C119.979 69.8849 121.18 71.3546 122.728 71.8595C123.14 71.9955 123.572 72.0637 124.007 72.0614C125.192 72.0111 126.348 71.6722 127.373 71.0741C126.52 73.1048 125.611 75.0009 124.747 76.6838C123.722 75.6381 122.434 74.8882 121.018 74.5131C119.602 74.1379 118.112 74.1514 116.703 74.5521C116.607 74.5712 116.521 74.6255 116.463 74.7043C116.405 74.7832 116.379 74.881 116.389 74.9784C116.488 75.8269 116.809 76.6344 117.319 77.3197C117.829 78.005 118.51 78.5441 119.295 78.8827C119.886 79.1372 120.524 79.2671 121.168 79.2642C122.062 79.253 122.94 79.0259 123.726 78.6023C122.851 80.2291 122.043 81.5866 121.415 82.6188H113.786C112.574 80.5432 111.172 77.9628 109.803 75.0682C110.441 75.2585 111.101 75.3605 111.767 75.3711C112.585 75.3813 113.394 75.2029 114.132 74.8498C114.871 74.4968 115.517 73.9785 116.023 73.3351C116.529 72.6918 116.879 71.9407 117.048 71.14C117.216 70.3394 117.198 69.5106 116.995 68.7181C116.969 68.626 116.91 68.5467 116.829 68.4951C116.748 68.4434 116.652 68.423 116.557 68.4376C114.999 68.5895 113.501 69.1144 112.188 69.9678C110.876 70.8212 109.789 71.978 109.018 73.3404C108.12 71.321 107.245 69.1781 106.482 66.9679C107.453 67.5204 108.541 67.8356 109.657 67.8879C110.1 67.8929 110.541 67.8208 110.959 67.6747C113.203 66.9342 114.493 64.2304 115.592 61.4255C115.617 61.3749 115.63 61.3193 115.63 61.2629C115.63 61.2065 115.617 61.1508 115.592 61.1002C115.567 61.0487 115.53 61.0031 115.486 60.9664C115.441 60.9297 115.39 60.9027 115.334 60.887C110.847 59.6305 107.155 63.9499 106.011 65.4981C105.413 63.63 104.915 61.7313 104.519 59.81C105.462 59.9945 106.419 60.0921 107.38 60.1017C108.334 60.1715 109.293 60.0441 110.196 59.7276C111.1 59.4111 111.928 58.9121 112.63 58.2617C113.988 56.8256 114.313 54.6715 113.584 52.0462C113.571 51.9948 113.548 51.9464 113.516 51.9042C113.484 51.862 113.443 51.8267 113.397 51.8005C113.351 51.7742 113.3 51.7576 113.247 51.7517C113.195 51.7457 113.141 51.7505 113.09 51.7657C109.51 52.883 106.394 55.1407 104.216 58.1944L104.048 57.1734C104.036 57.0851 103.997 57.0027 103.936 56.9378C103.751 56.274 103.428 55.6564 102.99 55.125C102.551 54.5935 102.006 54.16 101.389 53.8525C100.579 53.5403 99.7131 53.4028 98.8468 53.4492C97.9806 53.4956 97.1339 53.7248 96.3625 54.1218C96.3032 54.1474 96.2504 54.1859 96.2077 54.2344C96.165 54.2829 96.1336 54.3402 96.1157 54.4023C96.1019 54.4632 96.1029 54.5266 96.1185 54.587C96.1341 54.6475 96.1639 54.7034 96.2055 54.7501C96.3177 54.8959 98.7859 57.8129 102.107 57.8129C102.465 57.8083 102.822 57.7708 103.173 57.7007C103.318 58.6544 103.498 59.608 103.7 60.5504C102.421 59.7082 100.977 59.1467 99.4648 58.903C97.9525 58.6594 96.4057 58.739 94.9265 59.1368C94.8156 59.1709 94.7228 59.2475 94.6684 59.35C94.6462 59.4033 94.6348 59.4605 94.6348 59.5183C94.6348 59.576 94.6462 59.6332 94.6684 59.6866C95.9586 62.8055 97.9557 64.7801 100.02 64.9484H100.301C101.344 64.9484 102.758 64.466 104.194 62.5475C104.759 64.7289 105.441 66.8786 106.236 68.9873C104.295 68.0674 99.9303 66.4854 96.8113 68.8976C96.7684 68.9286 96.7323 68.9679 96.705 69.0132C96.6777 69.0586 96.6599 69.1089 96.6525 69.1613C96.6452 69.2137 96.6485 69.2671 96.6623 69.3181C96.6761 69.3692 96.7001 69.417 96.7328 69.4586C98.7522 72.2073 100.615 73.5424 102.443 73.5424C103.958 73.5424 105.405 72.5887 106.853 70.7039C107.683 72.7682 108.58 74.7428 109.467 76.5604C107.526 75.3599 105.394 75.5506 102.881 77.1325C102.823 77.1674 102.775 77.2167 102.741 77.2757C102.708 77.3347 102.69 77.4013 102.69 77.4691C102.686 77.5351 102.699 77.6012 102.728 77.6604C102.758 77.7196 102.803 77.7698 102.859 77.8057C104.355 78.8846 106.123 79.5255 107.963 79.6569C108.913 79.6757 109.844 79.3929 110.622 78.8491C111.34 80.2291 112.047 81.4968 112.698 82.63H109.231V84.6046H110.488L111.531 95.0609H126.89L127.922 84.6046H129.19V82.63H122.29C123.053 81.3622 124.029 79.6681 125.073 77.6823C125.104 77.6423 125.127 77.5966 125.14 77.5477C125.409 77.0428 125.667 76.5267 125.937 75.9882C126.393 76.6785 127.008 77.2496 127.73 77.6537C128.452 78.0577 129.261 78.2829 130.088 78.3106C130.26 78.3217 130.432 78.3217 130.604 78.3106C131.518 78.207 132.385 77.8524 133.11 77.286C133.835 76.7196 134.389 75.9637 134.71 75.1019C134.743 75.0133 134.743 74.9158 134.71 74.8271C134.677 74.7385 134.614 74.6647 134.531 74.6194C133.354 73.9549 132.037 73.5798 130.687 73.5252C129.337 73.4706 127.993 73.738 126.767 74.3053C127.35 73.0824 127.889 71.7697 128.472 70.4122C128.516 70.3618 128.544 70.2992 128.551 70.2327C128.708 69.8512 128.854 69.4698 129.011 69.1108C130.346 70.7936 131.67 71.6239 133.05 71.6239C134.721 71.6239 136.415 70.3898 138.233 67.843C138.296 67.7579 138.323 67.6514 138.308 67.5464C138.294 67.4415 138.238 67.3465 138.154 67.282C135.293 65.1391 131.423 66.6089 129.605 67.4615C129.976 66.4518 130.312 65.4308 130.626 64.3874L130.66 64.2752Z" fill="#E0E0E0"/>
<path d="M451.542 59.5408H394.167V122.537H451.542V59.5408Z" fill="#E0E0E0"/>
<path d="M444.463 62.1211C444.415 62.1325 444.365 62.1325 444.317 62.1211C444.183 62.0313 430.63 53.9759 426.367 53.9759C422.103 53.9759 409.145 62.0313 409.01 62.1099C408.98 62.1301 408.945 62.1438 408.909 62.1503C408.873 62.1567 408.836 62.1557 408.8 62.1473C408.765 62.1389 408.731 62.1233 408.701 62.1014C408.672 62.0795 408.647 62.0519 408.629 62.0201C408.591 61.9574 408.579 61.8824 408.596 61.8111C408.613 61.7398 408.657 61.6779 408.719 61.6387C409.257 61.3021 421.901 53.4149 426.367 53.4149C430.832 53.4149 444.093 61.2684 444.654 61.6387C444.686 61.657 444.713 61.6817 444.735 61.7112C444.757 61.7407 444.773 61.7743 444.781 61.81C444.79 61.8457 444.791 61.8828 444.784 61.9189C444.778 61.9551 444.764 61.9895 444.744 62.0201C444.712 62.0627 444.669 62.095 444.619 62.113C444.569 62.1309 444.515 62.1337 444.463 62.1211Z" fill="#EBEBEB"/>
<path d="M457.747 59.5408H398.486V122.537H457.747V59.5408Z" fill="#F5F5F5"/>
<path d="M452.788 117.567V64.4996H403.456V117.567H452.788Z" fill="white"/>
<path d="M437.677 100.593C442.956 95.3138 442.956 86.7539 437.677 81.4743C432.397 76.1947 423.837 76.1948 418.558 81.4743C413.278 86.7539 413.278 95.3138 418.558 100.593C423.837 105.873 432.397 105.873 437.677 100.593Z" fill="#E0E0E0"/>
<path d="M426.972 290.86H477.257C481.871 290.864 486.302 289.057 489.598 285.828C492.894 282.6 494.791 278.206 494.882 273.593L496.767 181.528C496.801 179.82 496.494 178.121 495.864 176.533C495.234 174.944 494.293 173.498 493.097 172.277C491.901 171.057 490.473 170.088 488.897 169.426C487.322 168.764 485.63 168.424 483.921 168.424H452.395C449.241 168.423 446.197 169.584 443.844 171.684C441.491 173.784 439.994 176.678 439.638 179.812L426.972 290.86Z" fill="#E6E6E6"/>
<path d="M454.415 290.86H400.831C400.165 290.86 399.526 290.595 399.054 290.124C398.583 289.653 398.318 289.013 398.318 288.347V288.111C398.318 286.284 399.044 284.532 400.336 283.24C401.628 281.948 403.38 281.223 405.207 281.223H454.415V290.86Z" fill="#E6E6E6"/>
<path d="M450.185 368.576C449.924 368.582 449.669 368.496 449.465 368.335C449.26 368.173 449.118 367.945 449.063 367.69L433.356 291.982H405.981L390.274 367.69C390.213 367.987 390.036 368.248 389.783 368.415C389.529 368.583 389.22 368.642 388.922 368.581C388.625 368.52 388.363 368.344 388.196 368.09C388.029 367.837 387.969 367.527 388.03 367.23L403.939 290.635C403.992 290.378 404.133 290.148 404.338 289.984C404.543 289.82 404.799 289.733 405.061 289.738H434.231C434.494 289.733 434.75 289.82 434.955 289.984C435.16 290.148 435.301 290.378 435.353 290.635L451.251 367.23C451.311 367.52 451.253 367.821 451.092 368.069C450.93 368.317 450.677 368.491 450.387 368.553C450.321 368.569 450.253 368.577 450.185 368.576Z" fill="#E6E6E6"/>
<path d="M433.12 368.576C433.046 368.587 432.97 368.587 432.896 368.576C432.751 368.546 432.614 368.489 432.492 368.406C432.37 368.324 432.265 368.218 432.184 368.095C432.103 367.972 432.047 367.835 432.019 367.69C431.99 367.545 431.991 367.396 432.021 367.252L447.93 290.658C447.982 290.401 448.123 290.17 448.328 290.006C448.533 289.842 448.789 289.755 449.052 289.76H478.222C478.484 289.755 478.74 289.842 478.945 290.006C479.15 290.17 479.291 290.401 479.344 290.658L495.241 367.252C495.272 367.399 495.273 367.551 495.244 367.699C495.216 367.847 495.158 367.987 495.075 368.113C494.993 368.238 494.886 368.346 494.761 368.431C494.637 368.515 494.497 368.574 494.349 368.604C494.202 368.634 494.05 368.635 493.903 368.607C493.755 368.578 493.614 368.521 493.489 368.438C493.363 368.355 493.255 368.248 493.171 368.124C493.087 367.999 493.028 367.859 492.998 367.712L477.291 292.004H449.893L434.186 367.712C434.129 367.954 433.993 368.17 433.801 368.326C433.608 368.482 433.368 368.57 433.12 368.576Z" fill="#E6E6E6"/>
<path d="M280.482 417.986C400.621 417.986 498.013 412.299 498.013 405.285C498.013 398.271 400.621 392.585 280.482 392.585C160.343 392.585 62.9517 398.271 62.9517 405.285C62.9517 412.299 160.343 417.986 280.482 417.986Z" fill="#F5F5F5"/>
<path d="M299.678 394.919C299.327 394.918 298.986 394.796 298.714 394.573C298.442 394.35 298.256 394.04 298.186 393.696L276.869 288.728H239.745L218.428 393.696C218.327 394.07 218.087 394.391 217.757 394.595C217.427 394.798 217.032 394.868 216.652 394.791C216.272 394.714 215.936 394.495 215.712 394.179C215.487 393.863 215.392 393.474 215.444 393.09L237.007 286.899C237.079 286.556 237.266 286.247 237.538 286.025C237.809 285.802 238.149 285.679 238.5 285.677H278.104C278.455 285.677 278.796 285.799 279.067 286.022C279.339 286.245 279.526 286.555 279.596 286.899L301.17 393.09C301.25 393.486 301.169 393.897 300.946 394.233C300.724 394.57 300.377 394.804 299.981 394.885L299.678 394.919Z" fill="#407BFF"/>
<path d="M240.092 394.919C239.741 394.916 239.402 394.793 239.131 394.571C238.859 394.348 238.672 394.039 238.6 393.696L217.284 288.728H180.159L158.842 393.696C158.814 393.903 158.744 394.101 158.636 394.28C158.528 394.459 158.384 394.613 158.214 394.734C158.044 394.855 157.851 394.94 157.647 394.983C157.442 395.026 157.231 395.027 157.027 394.985C156.822 394.944 156.629 394.861 156.457 394.741C156.286 394.622 156.141 394.469 156.032 394.291C155.922 394.113 155.85 393.915 155.82 393.708C155.791 393.502 155.803 393.291 155.858 393.09L177.433 286.899C177.503 286.555 177.689 286.245 177.961 286.022C178.233 285.799 178.573 285.677 178.925 285.677H218.529C218.879 285.678 219.218 285.8 219.488 286.023C219.758 286.246 219.942 286.556 220.01 286.899L241.585 393.09C241.664 393.486 241.584 393.897 241.361 394.233C241.138 394.57 240.791 394.804 240.395 394.885L240.092 394.919Z" fill="#407BFF"/>
<path d="M248.428 287.214H180.215C173.954 287.215 167.942 284.761 163.47 280.379C158.998 275.997 156.422 270.036 156.296 263.776L153.76 160.11C153.712 157.793 154.127 155.49 154.981 153.335C155.834 151.18 157.109 149.217 158.731 147.561C160.352 145.905 162.288 144.589 164.424 143.691C166.561 142.792 168.855 142.329 171.172 142.328H213.94C218.22 142.331 222.35 143.908 225.542 146.759C228.735 149.61 230.767 153.535 231.252 157.788L248.428 287.214Z" fill="#407BFF"/>
<path d="M211.225 274.087H277.98C280.458 274.087 282.836 275.072 284.588 276.824C286.341 278.577 287.325 280.954 287.325 283.433V283.758C287.325 284.651 286.971 285.507 286.34 286.138C285.708 286.769 284.852 287.124 283.96 287.124H211.225V274.087Z" fill="#407BFF"/>
<g opacity="0.3">
<path d="M299.678 394.919C299.327 394.918 298.986 394.796 298.714 394.573C298.442 394.35 298.256 394.04 298.186 393.696L276.869 288.728H239.745L218.428 393.696C218.327 394.07 218.087 394.391 217.757 394.594C217.427 394.798 217.032 394.868 216.652 394.791C216.272 394.714 215.936 394.495 215.712 394.179C215.487 393.863 215.392 393.474 215.444 393.09L237.007 286.899C237.079 286.556 237.266 286.247 237.538 286.025C237.809 285.802 238.149 285.679 238.5 285.677H278.104C278.455 285.677 278.796 285.799 279.067 286.022C279.339 286.245 279.526 286.555 279.596 286.899L301.17 393.09C301.25 393.486 301.169 393.897 300.946 394.233C300.724 394.569 300.377 394.804 299.981 394.885L299.678 394.919Z" fill="black"/>
<path d="M240.092 394.919C239.741 394.916 239.402 394.793 239.131 394.57C238.859 394.348 238.672 394.039 238.6 393.696L217.284 288.728H180.159L158.842 393.696C158.814 393.903 158.744 394.101 158.636 394.28C158.528 394.459 158.384 394.613 158.214 394.734C158.044 394.855 157.851 394.939 157.647 394.983C157.442 395.026 157.231 395.027 157.027 394.985C156.822 394.944 156.629 394.861 156.457 394.741C156.286 394.622 156.141 394.469 156.032 394.291C155.922 394.113 155.85 393.915 155.82 393.708C155.791 393.502 155.803 393.291 155.858 393.09L177.433 286.899C177.503 286.555 177.689 286.245 177.961 286.022C178.233 285.799 178.573 285.677 178.925 285.677H218.529C218.879 285.678 219.218 285.8 219.488 286.023C219.758 286.246 219.942 286.556 220.01 286.899L241.585 393.09C241.664 393.486 241.584 393.897 241.361 394.233C241.138 394.569 240.791 394.804 240.395 394.885L240.092 394.919Z" fill="black"/>
<path d="M248.428 287.214H180.215C173.954 287.215 167.942 284.761 163.47 280.379C158.998 275.997 156.422 270.036 156.296 263.776L153.76 160.11C153.712 157.793 154.127 155.49 154.981 153.335C155.834 151.18 157.109 149.217 158.731 147.561C160.352 145.905 162.288 144.589 164.424 143.691C166.561 142.792 168.855 142.329 171.172 142.328H213.94C218.22 142.331 222.35 143.908 225.542 146.759C228.735 149.61 230.767 153.535 231.252 157.788L248.428 287.214Z" fill="url(#paint0_linear_2037_2443)"/>
<path d="M211.225 274.087H277.98C280.458 274.087 282.836 275.072 284.588 276.824C286.341 278.577 287.325 280.954 287.325 283.433V283.758C287.325 284.651 286.971 285.507 286.34 286.138C285.708 286.769 284.852 287.124 283.96 287.124H211.225V274.087Z" fill="black"/>
</g>
<path d="M229.445 136.606C229.445 136.606 238.982 149.06 232.811 173.854C226.641 198.649 194.8 185.186 192.871 162.837C190.627 136.494 220.201 154.658 225.406 131.232L229.445 136.606Z" fill="#263238"/>
<path d="M222.523 129.213C218.383 132.13 216.745 136.37 221.323 140.522C225.9 144.673 232.43 144.538 234.404 142.833C236.379 141.127 235.986 132.466 235.986 132.466L222.523 129.213Z" fill="#407BFF"/>
<path opacity="0.8" d="M222.523 129.213C218.383 132.13 216.745 136.37 221.323 140.522C225.9 144.673 232.43 144.538 234.404 142.833C236.379 141.127 235.986 132.466 235.986 132.466L222.523 129.213Z" fill="white"/>
<path d="M274.805 184.4C274.917 184.905 275.108 185.69 275.287 186.352L275.826 188.462C276.207 189.875 276.622 191.289 277.06 192.702C277.89 195.552 278.81 198.391 279.775 201.229C280.74 204.068 281.727 206.839 282.804 209.711C283.332 211.113 283.859 212.527 284.42 213.929L285.071 215.612C285.201 215.9 285.371 216.168 285.575 216.409C287.173 218.024 289.118 219.252 291.264 219.999C293.884 221.054 296.585 221.894 299.342 222.512C302.191 223.174 305.119 223.724 308.081 224.184C311.043 224.644 314.084 225.014 317.001 225.306L317.102 231.342C310.701 232.004 304.25 232.004 297.849 231.342C294.504 230.997 291.196 230.355 287.965 229.423C286.215 228.895 284.511 228.223 282.872 227.415C280.984 226.498 279.256 225.281 277.756 223.814C276.885 222.946 276.13 221.97 275.512 220.908C275.344 220.638 275.198 220.336 275.041 220.055L274.749 219.449L274.233 218.327C273.537 216.902 272.842 215.478 272.202 214.03C270.901 211.136 269.633 208.219 268.5 205.246C267.367 202.273 266.256 199.277 265.313 196.27C264.853 194.722 264.405 193.185 263.99 191.603L263.373 189.236C263.193 188.383 263.025 187.676 262.845 186.667L274.805 184.4Z" fill="#E58A7B"/>
<path d="M270.99 171.655C275.803 172.878 279.158 192.669 279.158 192.669L265.908 201.644C265.908 201.644 253.196 181.674 256.932 176.39C260.758 170.959 263.967 169.905 270.99 171.655Z" fill="#407BFF"/>
<path opacity="0.5" d="M270.99 171.655C275.803 172.878 279.158 192.669 279.158 192.669L265.908 201.644C265.908 201.644 253.196 181.674 256.932 176.39C260.758 170.959 263.967 169.905 270.99 171.655Z" fill="white"/>
<path opacity="0.2" d="M269.263 176.637L257.74 185.769C259.984 191.317 262.714 196.655 265.897 201.723L275.085 195.474L269.263 176.637Z" fill="#407BFF"/>
<path d="M270.99 171.655C270.99 171.655 276.6 173.607 265.381 242.078H218.013C218.809 222.792 218.832 210.9 209.621 171.307C216.254 169.941 222.977 169.056 229.737 168.659C236.905 168.148 244.099 168.148 251.267 168.659C260.512 169.546 270.99 171.655 270.99 171.655Z" fill="#407BFF"/>
<path opacity="0.5" d="M270.99 171.655C270.99 171.655 276.6 173.607 265.381 242.078H218.013C218.809 222.792 218.832 210.9 209.621 171.307C216.254 169.941 222.977 169.056 229.737 168.659C236.905 168.148 244.099 168.148 251.267 168.659C260.512 169.546 270.99 171.655 270.99 171.655Z" fill="white"/>
<path d="M315.262 225.25L323.53 216.857L324.652 228.683C324.652 228.683 318.448 232.879 314.162 230.624L315.262 225.25Z" fill="#E58A7B"/>
<path d="M333.291 215.612L333.661 225.552L324.641 228.683L323.553 216.857L333.291 215.612Z" fill="#E58A7B"/>
<path d="M319.144 384.036H330.812L332.607 357.009H320.939L319.144 384.036Z" fill="#E58A7B"/>
<path d="M273.986 384.036H285.654L289.401 357.009H277.733L273.986 384.036Z" fill="#E58A7B"/>
<path d="M286.383 382.679H273.268C273.042 382.674 272.822 382.752 272.65 382.899C272.479 383.046 272.367 383.251 272.337 383.475L270.845 393.853C270.818 394.115 270.847 394.38 270.929 394.63C271.011 394.881 271.144 395.111 271.321 395.307C271.497 395.502 271.713 395.659 271.954 395.766C272.194 395.873 272.455 395.928 272.718 395.929C277.285 395.85 279.45 395.581 285.25 395.581C288.795 395.581 297.894 395.951 302.797 395.951C307.7 395.951 307.958 391.104 305.916 390.667C296.772 388.692 291.41 385.988 288.324 383.397C287.783 382.934 287.095 382.68 286.383 382.679Z" fill="#263238"/>
<path d="M331.72 382.679H318.627C318.402 382.676 318.184 382.756 318.012 382.902C317.841 383.049 317.729 383.252 317.696 383.475L316.204 393.853C316.177 394.115 316.206 394.38 316.288 394.63C316.37 394.881 316.504 395.111 316.68 395.307C316.857 395.502 317.072 395.659 317.313 395.766C317.554 395.873 317.814 395.928 318.078 395.929C322.644 395.85 324.809 395.581 330.61 395.581C334.166 395.581 341.492 395.951 346.395 395.951C351.298 395.951 351.556 391.104 349.514 390.667C340.37 388.692 336.769 385.988 333.695 383.397C333.143 382.93 332.443 382.676 331.72 382.679Z" fill="#263238"/>
<path d="M261.69 120.854C265.886 121.123 268.017 142.171 255.71 140.948C243.402 139.725 261.69 120.854 261.69 120.854Z" fill="#263238"/>
<path d="M332.607 357.009L331.675 370.943H320.007L320.927 357.009H332.607Z" fill="#CF6F64"/>
<path d="M277.733 357.009H289.412L287.471 370.943H275.792L277.733 357.009Z" fill="#CF6F64"/>
<path opacity="0.2" d="M214.355 193.319C215.477 199.064 216.274 204.023 216.88 208.488L219.651 187.048L214.355 193.319Z" fill="#407BFF"/>
<path d="M231.869 144.471C233.226 151.393 234.584 164.082 229.737 168.704C229.737 168.704 231.633 175.728 244.502 175.728C258.649 175.728 251.233 168.704 251.233 168.704C243.503 166.864 243.705 161.131 245.052 155.757L231.869 144.471Z" fill="#E58A7B"/>
<path d="M241.944 177.231L246.252 175.683L245.68 174.505L241.944 177.231Z" fill="#263238"/>
<path d="M250.302 176.333L246.252 175.683L247.127 174.37L250.302 176.333Z" fill="#263238"/>
<path d="M231.308 165.44L228.379 168.289C228.292 168.379 228.243 168.5 228.243 168.626C228.243 168.752 228.292 168.872 228.379 168.962L240.721 183.02C241.308 179.682 243.095 176.673 245.747 174.561C235.537 170.701 232.878 166.707 231.97 165.585C231.949 165.52 231.911 165.462 231.86 165.416C231.809 165.37 231.747 165.338 231.68 165.323C231.614 165.308 231.544 165.311 231.479 165.332C231.413 165.352 231.354 165.389 231.308 165.44Z" fill="#407BFF"/>
<path d="M248.944 167.594L252.58 168.581C252.688 168.611 252.787 168.67 252.866 168.751C252.945 168.831 253.001 168.932 253.028 169.041C254.055 173.652 253.862 178.451 252.467 182.964C251.951 181.057 250.223 176.491 247.127 174.37C250.493 172.048 249.135 169.052 248.653 167.919C248.637 167.877 248.633 167.831 248.642 167.787C248.65 167.743 248.67 167.702 248.7 167.668C248.73 167.635 248.769 167.61 248.812 167.597C248.855 167.584 248.901 167.583 248.944 167.594Z" fill="#407BFF"/>
<path d="M237.265 149.071L245.119 155.746C244.792 156.997 244.571 158.273 244.457 159.561C241.506 159.134 237.456 155.903 237.142 152.829C236.95 151.579 236.992 150.305 237.265 149.071Z" fill="#CF6F64"/>
<path d="M231.117 126.228C229.782 137.728 228.963 142.575 233.675 149.441C240.743 159.774 255.171 158.899 259.917 148.027C264.191 138.244 265.65 121.101 255.328 114.549C253.058 113.1 250.454 112.255 247.765 112.095C245.077 111.936 242.391 112.466 239.965 113.636C237.539 114.807 235.453 116.578 233.904 118.782C232.355 120.986 231.396 123.549 231.117 126.228Z" fill="#E58A7B"/>
<path d="M257.415 107.234C238.398 99.7282 224.116 108.199 221.165 120.237C216.532 138.928 231.33 140.241 231.33 140.241L233.181 135.462C235.84 137.066 243.279 136.359 241.035 122.481C239.711 114.627 249.651 125.566 262.262 124.343C265.616 124.018 270.205 112.283 257.415 107.234Z" fill="#263238"/>
<path d="M263.888 111.856C261.386 108.008 256.27 104.71 245.668 103.15C245.668 103.15 251.177 104.395 252.961 108.423C254.745 112.451 266.906 116.49 263.888 111.856Z" fill="#263238"/>
<path d="M227.46 136.18C227.382 137.286 227.523 138.396 227.876 139.447C228.228 140.498 228.784 141.47 229.513 142.306C231.476 144.549 234.057 143.169 234.864 140.477C235.582 138.042 235.437 133.958 232.811 132.724C230.186 131.49 227.673 133.442 227.46 136.18Z" fill="#E58A7B"/>
<path d="M265.414 242.123C265.414 242.123 343.658 249.405 342.895 284.981C342.098 322.005 334.177 368.251 334.177 368.251H318.01C318.01 368.251 316.63 329.118 316.159 292.666C315.924 273.683 240.317 269.88 240.317 269.88L230.556 242.123H265.414Z" fill="#263238"/>
<path d="M252.893 242.123C252.893 242.123 303.459 258.896 304.738 279.652C307.083 317.865 290.287 368.284 290.287 368.284H274.367C274.367 368.284 275.276 334.851 277.172 300.228C279.573 256.72 202.811 299.622 218.013 242.157L252.893 242.123Z" fill="#263238"/>
<path d="M247.755 132.5C247.587 133.42 247.946 134.261 248.552 134.373C249.158 134.486 249.775 133.812 249.943 132.892C250.111 131.973 249.752 131.12 249.146 131.019C248.54 130.918 247.946 131.569 247.755 132.5Z" fill="#263238"/>
<path d="M258.223 134.373C258.055 135.293 258.414 136.135 259.019 136.247C259.625 136.359 260.254 135.686 260.422 134.766C260.59 133.846 260.231 132.993 259.625 132.892C259.019 132.791 258.391 133.442 258.223 134.373Z" fill="#263238"/>
<path d="M259.345 132.892L261.69 132.646C261.69 132.646 260.287 134.183 259.345 132.892Z" fill="#263238"/>
<path d="M255.171 135.462C255.62 137.723 256.375 139.912 257.415 141.969C256.887 142.209 256.313 142.334 255.732 142.334C255.152 142.334 254.578 142.209 254.049 141.969L255.171 135.462Z" fill="#DF5753"/>
<path d="M250.19 144.964C248.958 144.769 247.791 144.286 246.781 143.555C245.771 142.824 244.948 141.866 244.378 140.757C244.359 140.714 244.358 140.665 244.375 140.621C244.391 140.577 244.425 140.541 244.468 140.522C244.513 140.506 244.561 140.508 244.605 140.527C244.649 140.545 244.684 140.579 244.703 140.623C245.243 141.67 246.02 142.577 246.972 143.271C247.925 143.964 249.027 144.425 250.19 144.617C250.236 144.627 250.277 144.655 250.304 144.695C250.331 144.734 250.342 144.782 250.335 144.83C250.327 144.864 250.309 144.895 250.283 144.919C250.257 144.943 250.224 144.959 250.19 144.964Z" fill="#263238"/>
<path d="M245.298 128.36C245.249 128.362 245.201 128.353 245.156 128.333C245.112 128.314 245.072 128.285 245.04 128.248C245.006 128.216 244.979 128.178 244.96 128.136C244.942 128.093 244.932 128.047 244.932 128.001C244.932 127.955 244.942 127.909 244.96 127.866C244.979 127.824 245.006 127.786 245.04 127.754C245.644 127.164 246.382 126.727 247.19 126.481C247.998 126.235 248.854 126.187 249.685 126.34C249.773 126.367 249.847 126.425 249.893 126.505C249.939 126.584 249.953 126.678 249.932 126.767C249.921 126.812 249.902 126.855 249.875 126.892C249.847 126.93 249.813 126.962 249.773 126.986C249.733 127.01 249.689 127.026 249.643 127.032C249.597 127.039 249.55 127.037 249.505 127.025C248.789 126.898 248.052 126.945 247.357 127.162C246.662 127.379 246.029 127.759 245.511 128.27C245.451 128.321 245.377 128.353 245.298 128.36Z" fill="#263238"/>
<path d="M263.945 130.2C263.875 130.202 263.807 130.183 263.748 130.145C263.69 130.107 263.645 130.051 263.62 129.987C263.345 129.313 262.916 128.714 262.366 128.238C261.816 127.763 261.162 127.424 260.456 127.249C260.364 127.233 260.283 127.181 260.228 127.106C260.174 127.031 260.151 126.937 260.164 126.845C260.18 126.752 260.233 126.668 260.311 126.613C260.389 126.559 260.485 126.537 260.579 126.554C261.401 126.744 262.165 127.13 262.805 127.679C263.446 128.228 263.945 128.923 264.259 129.706C264.297 129.793 264.3 129.89 264.266 129.979C264.232 130.067 264.165 130.138 264.08 130.177L263.945 130.2Z" fill="#263238"/>
<path d="M216.7 188.237C215.679 191.603 214.58 194.969 213.604 198.424C212.627 201.88 211.595 205.246 210.709 208.668C209.823 212.089 208.981 215.478 208.353 218.765C208.05 220.425 207.77 222.075 207.612 223.623C207.523 224.397 207.478 225.126 207.467 225.799C207.467 225.956 207.467 225.799 207.354 225.541C207.217 225.237 207.027 224.96 206.793 224.722C206.221 224.229 206.008 224.318 206.266 224.397C206.736 224.511 207.219 224.56 207.702 224.543C209.213 224.491 210.715 224.299 212.19 223.971C215.532 223.234 218.825 222.294 222.052 221.155C228.682 218.911 235.414 216.173 241.966 213.38L244.86 218.664C238.644 222.739 232.147 226.368 225.417 229.524C221.933 231.168 218.338 232.566 214.658 233.709C212.61 234.333 210.506 234.757 208.375 234.977C207.045 235.113 205.703 235.079 204.381 234.876C203.504 234.744 202.648 234.499 201.835 234.147C200.783 233.692 199.83 233.036 199.03 232.217C197.474 230.577 196.582 228.418 196.528 226.158C196.472 225.036 196.461 223.915 196.528 222.905C196.606 220.829 196.797 218.866 197.055 216.947C197.594 213.11 198.289 209.408 199.142 205.728C199.995 202.048 200.903 198.492 201.902 194.924C202.9 191.356 203.977 187.856 205.268 184.288L216.7 188.237Z" fill="#E58A7B"/>
<path d="M290.377 384.642C289.343 384.617 288.316 384.473 287.314 384.216C287.277 384.209 287.242 384.19 287.215 384.163C287.188 384.136 287.17 384.102 287.163 384.065C287.156 384.027 287.16 383.988 287.175 383.953C287.19 383.918 287.215 383.888 287.247 383.868C287.64 383.61 291.14 381.344 292.475 381.938C292.615 382.001 292.735 382.102 292.822 382.228C292.909 382.355 292.96 382.503 292.969 382.656C293.025 382.905 293.015 383.164 292.94 383.408C292.865 383.652 292.728 383.872 292.543 384.047C291.913 384.494 291.147 384.705 290.377 384.642ZM287.853 383.946C290.018 384.395 291.645 384.339 292.273 383.756C292.41 383.623 292.511 383.457 292.566 383.275C292.62 383.092 292.628 382.899 292.587 382.712C292.583 382.624 292.555 382.539 292.505 382.465C292.456 382.392 292.387 382.334 292.307 382.297C291.454 381.916 289.087 383.184 287.853 383.946Z" fill="#407BFF"/>
<path d="M287.359 384.227H287.258C287.227 384.209 287.201 384.182 287.183 384.151C287.165 384.119 287.156 384.083 287.157 384.047C287.157 383.913 287.157 380.592 288.414 379.492C288.561 379.351 288.739 379.246 288.934 379.186C289.128 379.125 289.335 379.111 289.536 379.144C289.738 379.143 289.934 379.211 290.092 379.338C290.249 379.465 290.358 379.642 290.4 379.84C290.635 381.052 288.683 383.531 287.46 384.227H287.359ZM289.334 379.492C289.087 379.494 288.85 379.59 288.672 379.761C287.786 380.547 287.606 382.768 287.55 383.655C288.672 382.847 290.175 380.805 289.985 379.896C289.985 379.75 289.872 379.56 289.468 379.503L289.334 379.492Z" fill="#407BFF"/>
<path d="M336.107 384.642C334.874 384.615 333.646 384.476 332.439 384.227C332.399 384.217 332.363 384.195 332.335 384.166C332.308 384.136 332.289 384.099 332.282 384.058C332.276 384.017 332.283 383.975 332.304 383.939C332.324 383.902 332.355 383.873 332.394 383.857C332.91 383.587 337.521 381.231 338.923 381.994C339.045 382.062 339.148 382.159 339.223 382.276C339.297 382.394 339.341 382.528 339.35 382.667C339.381 382.901 339.355 383.139 339.273 383.36C339.19 383.581 339.055 383.779 338.878 383.935C338.062 384.48 337.085 384.73 336.107 384.642ZM333.089 383.946C334.593 384.204 337.577 384.575 338.609 383.655C338.738 383.534 338.837 383.385 338.897 383.219C338.958 383.054 338.978 382.876 338.957 382.701C338.956 382.625 338.935 382.55 338.895 382.485C338.856 382.42 338.8 382.367 338.733 382.331C337.813 381.837 334.716 383.15 333.089 383.946Z" fill="#407BFF"/>
<path d="M332.483 384.227C332.447 384.238 332.408 384.238 332.371 384.227C332.344 384.205 332.322 384.178 332.306 384.147C332.291 384.116 332.282 384.082 332.281 384.047C332.281 383.913 332.562 380.805 333.998 379.56C334.199 379.388 334.433 379.26 334.686 379.183C334.939 379.105 335.205 379.081 335.468 379.111C336.186 379.178 336.387 379.537 336.444 379.818C336.646 381.108 333.93 383.576 332.562 384.193L332.483 384.227ZM335.254 379.492C334.886 379.491 334.53 379.627 334.256 379.874C333.201 380.749 332.831 382.847 332.719 383.688C334.189 382.869 336.197 380.76 336.085 379.896C336.085 379.806 336.085 379.56 335.468 379.504L335.254 379.492Z" fill="#407BFF"/>
<path d="M241.697 213.559L252.759 210.754L247.486 221.379C247.486 221.379 240.003 221.704 237.534 217.531L241.697 213.559Z" fill="#E58A7B"/>
<path d="M261.701 214.782L256.809 223.443L247.486 221.379L252.759 210.754L261.701 214.782Z" fill="#E58A7B"/>
<path d="M248.866 131.019L251.211 130.772C251.211 130.772 249.764 132.309 248.866 131.019Z" fill="#263238"/>
<path d="M217.306 239.341L216.925 243.582C216.767 243.918 217.149 244.255 217.699 244.255H265.65C266.076 244.255 266.424 244.042 266.458 243.773L266.884 239.532C266.884 239.24 266.536 238.993 266.076 238.993H218.08C217.932 238.981 217.783 239.006 217.648 239.067C217.513 239.128 217.395 239.222 217.306 239.341Z" fill="#407BFF"/>
<path d="M223.757 244.715H222.467C222.209 244.715 222.018 244.58 222.029 244.423L222.635 238.903C222.635 238.746 222.882 238.612 223.14 238.612H224.385C224.643 238.612 224.834 238.746 224.823 238.903L224.217 244.423C224.228 244.58 224.004 244.715 223.757 244.715Z" fill="#263238"/>
<path d="M262.038 244.715H260.747C260.489 244.715 260.299 244.58 260.31 244.423L260.916 238.903C260.916 238.746 261.162 238.612 261.42 238.612H262.699C262.958 238.612 263.148 238.746 263.137 238.903L262.531 244.423C262.531 244.58 262.284 244.715 262.038 244.715Z" fill="#263238"/>
<path d="M242.897 244.715H241.607C241.349 244.715 241.158 244.58 241.17 244.423L241.775 238.903C241.775 238.746 242.022 238.612 242.28 238.612H243.559C243.817 238.612 244.008 238.746 243.997 238.903L243.391 244.423C243.369 244.58 243.155 244.715 242.897 244.715Z" fill="#263238"/>
<path d="M209.621 171.352C204.864 172.799 199.164 189.146 199.164 189.146L214.479 204.101C214.479 204.101 224.307 188.675 222.332 182.538C220.234 176.143 215.04 169.714 209.621 171.352Z" fill="#407BFF"/>
<path opacity="0.5" d="M209.621 171.352C204.864 172.799 199.164 189.146 199.164 189.146L214.479 204.101C214.479 204.101 224.307 188.675 222.332 182.538C220.234 176.143 215.04 169.714 209.621 171.352Z" fill="white"/>
<path d="M464.097 230.466H374.836V404.085H464.097V230.466Z" fill="#407BFF"/>
<path opacity="0.6" d="M464.097 230.466H374.836V404.085H464.097V230.466Z" fill="url(#paint1_linear_2037_2443)"/>
<path d="M291.174 230.466H201.914V404.085H291.174V230.466Z" fill="#407BFF"/>
<path opacity="0.6" d="M291.174 230.466H201.914V404.085H291.174V230.466Z" fill="url(#paint2_linear_2037_2443)"/>
<path d="M467.44 230.466H460.081V404.085H467.44V230.466Z" fill="#407BFF"/>
<path opacity="0.3" d="M467.44 230.466H460.081V404.085H467.44V230.466Z" fill="black"/>
<path d="M292.24 243.492L469.718 243.492V230.466L292.24 230.466V243.492Z" fill="#407BFF"/>
<path opacity="0.3" d="M292.24 243.492L469.718 243.492V230.466L292.24 230.466V243.492Z" fill="black"/>
<path d="M294.529 230.466H287.169V404.085H294.529V230.466Z" fill="#407BFF"/>
<path opacity="0.3" d="M294.529 230.466H287.169V404.085H294.529V230.466Z" fill="black"/>
<path d="M291.814 272H463.76V234.494L291.814 234.494V272Z" fill="#407BFF"/>
<path opacity="0.3" d="M291.814 272H463.76V234.494L291.814 234.494V272Z" fill="url(#paint3_linear_2037_2443)"/>
<path d="M464.142 409.133H414.586C411.222 409.131 407.996 407.793 405.617 405.414C403.238 403.035 401.9 399.809 401.897 396.444V240.093C401.897 237.117 400.715 234.263 398.611 232.159C396.507 230.055 393.654 228.873 390.678 228.873H375.846V227.751H390.667C393.94 227.751 397.079 229.052 399.393 231.366C401.708 233.68 403.008 236.819 403.008 240.093V396.444C403.011 399.511 404.231 402.452 406.399 404.62C408.568 406.789 411.508 408.009 414.575 408.012H464.142C464.985 408.013 465.808 407.748 466.492 407.255C467.176 406.762 467.687 406.065 467.952 405.264C468.217 404.463 468.222 403.599 467.967 402.795C467.712 401.991 467.21 401.288 466.532 400.786L467.194 399.889C468.059 400.531 468.701 401.43 469.026 402.458C469.352 403.486 469.345 404.59 469.007 405.613C468.669 406.637 468.017 407.528 467.144 408.16C466.27 408.792 465.22 409.133 464.142 409.133Z" fill="#407BFF"/>
<path opacity="0.3" d="M464.142 409.133H414.586C411.222 409.131 407.996 407.793 405.617 405.414C403.238 403.035 401.9 399.809 401.897 396.444V240.093C401.897 237.117 400.715 234.263 398.611 232.159C396.507 230.055 393.654 228.873 390.678 228.873H375.846V227.751H390.667C393.94 227.751 397.079 229.052 399.393 231.366C401.708 233.68 403.008 236.819 403.008 240.093V396.444C403.011 399.511 404.231 402.452 406.399 404.62C408.568 406.789 411.508 408.009 414.575 408.012H464.142C464.985 408.013 465.808 407.748 466.492 407.255C467.176 406.762 467.687 406.065 467.952 405.264C468.217 404.463 468.222 403.599 467.967 402.795C467.712 401.991 467.21 401.288 466.532 400.786L467.194 399.889C468.059 400.531 468.701 401.43 469.026 402.458C469.352 403.486 469.345 404.59 469.007 405.613C468.669 406.637 468.017 407.528 467.144 408.16C466.27 408.792 465.22 409.133 464.142 409.133Z" fill="black"/>
<path d="M471.367 281.694H470.245V303.381H471.367V281.694Z" fill="#407BFF"/>
<path opacity="0.3" d="M471.367 281.694H470.245V303.381H471.367V281.694Z" fill="black"/>
<path d="M471.367 268.892H470.245V274.592H471.367V268.892Z" fill="#407BFF"/>
<path opacity="0.3" d="M471.367 268.892H470.245V274.592H471.367V268.892Z" fill="black"/>
<path d="M389.197 178.633H306.017L293.968 227.752H377.136L389.197 178.633Z" fill="#407BFF"/>
<path opacity="0.4" d="M389.197 178.633H306.017L293.968 227.752H377.136L389.197 178.633Z" fill="white"/>
<path d="M296.514 227.752L296.178 230.467H263.541L263.877 227.752H296.514Z" fill="#407BFF"/>
<path opacity="0.4" d="M296.514 227.752L296.178 230.467H263.541L263.877 227.752H296.514Z" fill="white"/>
<path d="M379.694 227.752L379.358 230.467H296.178L296.514 227.752H379.694Z" fill="#407BFF"/>
<path opacity="0.5" d="M379.694 227.752L379.358 230.467H296.178L296.514 227.752H379.694Z" fill="black"/>
<path d="M391.755 178.633H308.575L296.526 227.752H379.694L391.755 178.633Z" fill="#407BFF"/>
<path opacity="0.5" d="M391.755 178.633H308.575L296.526 227.752H379.694L391.755 178.633Z" fill="url(#paint4_linear_2037_2443)"/>
<path d="M423.876 218.092C423.876 218.092 411.635 196.988 428.577 180.193C428.577 180.193 433.008 183.088 432.941 186.925C432.874 190.762 428.195 191.794 429.194 195.025C430.192 198.256 434.624 201.454 431.718 204.135C428.812 206.816 432.189 209.195 431.987 212.471C431.785 215.747 423.876 218.092 423.876 218.092Z" fill="url(#paint5_linear_2037_2443)"/>
<path d="M424.807 220.021C424.807 220.021 429.766 196.136 408.36 185.556C408.36 185.556 405.061 189.696 406.351 193.409C407.642 197.123 412.387 196.528 412.455 199.928C412.522 203.327 409.336 207.725 412.937 209.352C416.538 210.979 414.059 214.311 415.304 217.363C416.55 220.414 424.807 220.021 424.807 220.021Z" fill="#407BFF"/>
<path opacity="0.5" d="M424.807 220.021C424.807 220.021 429.766 196.136 408.36 185.556C408.36 185.556 405.061 189.696 406.351 193.409C407.642 197.123 412.387 196.528 412.455 199.928C412.522 203.327 409.336 207.725 412.937 209.352C416.538 210.979 414.059 214.311 415.304 217.363C416.55 220.414 424.807 220.021 424.807 220.021Z" fill="black"/>
<path d="M406.048 214.726C406.048 214.726 406.463 230.433 422.069 230.433C437.675 230.433 438.079 214.726 438.079 214.726H406.048Z" fill="#407BFF"/>
<path opacity="0.5" d="M406.048 214.726C406.048 214.726 406.463 230.433 422.069 230.433C437.675 230.433 438.079 214.726 438.079 214.726H406.048Z" fill="black"/>
<path d="M322.162 111.811L308.833 94.5898L295.505 111.811H301.776V134.104H315.89V111.811H322.162Z" fill="url(#paint6_linear_2037_2443)"/>
<path d="M361.261 132.062C361.261 123.731 364.571 115.74 370.462 109.849C376.353 103.958 384.343 100.648 392.675 100.648V108.827C389.626 108.826 386.606 109.425 383.788 110.591C380.971 111.757 378.411 113.466 376.254 115.622C374.097 117.778 372.386 120.337 371.219 123.154C370.052 125.971 369.451 128.99 369.451 132.04L361.261 132.062Z" fill="#407BFF"/>
<path d="M361.261 132.062H369.451C369.451 138.221 371.898 144.129 376.253 148.484C380.609 152.839 386.516 155.286 392.675 155.286C396.75 155.294 400.754 154.217 404.276 152.167L408.382 159.314C403.606 162.071 398.189 163.522 392.675 163.522C387.16 163.522 381.743 162.071 376.967 159.313C372.192 156.556 368.226 152.59 365.469 147.815C362.712 143.039 361.261 137.621 361.261 132.107V132.062Z" fill="#407BFF"/>
<path opacity="0.5" d="M361.261 132.062H369.451C369.451 138.221 371.898 144.129 376.253 148.484C380.609 152.839 386.516 155.286 392.675 155.286C396.75 155.294 400.754 154.217 404.276 152.167L408.382 159.314C403.606 162.071 398.189 163.522 392.675 163.522C387.16 163.522 381.743 162.071 376.967 159.313C372.192 156.556 368.226 152.59 365.469 147.815C362.712 143.039 361.261 137.621 361.261 132.107V132.062Z" fill="white"/>
<path d="M392.675 108.827V100.626C399.612 100.599 406.363 102.87 411.875 107.083C417.386 111.297 421.347 117.216 423.141 123.918C424.934 130.619 424.459 137.726 421.789 144.129C419.119 150.532 414.405 155.872 408.382 159.314L404.287 152.212C408.747 149.673 412.24 145.726 414.22 140.99C416.199 136.254 416.553 130.996 415.226 126.038C413.899 121.079 410.965 116.701 406.885 113.587C402.805 110.473 397.808 108.799 392.675 108.827Z" fill="#407BFF"/>
<path opacity="0.7" d="M392.675 108.827V100.626C399.612 100.599 406.363 102.87 411.875 107.083C417.386 111.297 421.347 117.216 423.141 123.918C424.934 130.619 424.459 137.726 421.789 144.129C419.119 150.532 414.405 155.872 408.382 159.314L404.287 152.212C408.747 149.673 412.24 145.726 414.22 140.99C416.199 136.254 416.553 130.996 415.226 126.038C413.899 121.079 410.965 116.701 406.885 113.587C402.805 110.473 397.808 108.799 392.675 108.827Z" fill="black"/>
<path d="M363.179 54.9745H334.559C333.538 54.9745 332.56 55.3799 331.838 56.1016C331.116 56.8233 330.711 57.8021 330.711 58.8227V111.744C330.72 112.759 331.129 113.729 331.85 114.443C332.57 115.158 333.544 115.559 334.559 115.559H371.19C372.209 115.556 373.184 115.149 373.904 114.428C374.623 113.706 375.027 112.729 375.027 111.71V66.8333L363.179 54.9745Z" fill="#263238"/>
<path d="M361.497 110.297H337.7C337.254 110.297 336.826 110.12 336.51 109.804C336.195 109.488 336.018 109.06 336.018 108.614C336.021 108.17 336.199 107.744 336.514 107.431C336.83 107.118 337.256 106.942 337.7 106.942H361.508C361.952 106.942 362.379 107.118 362.694 107.431C363.009 107.744 363.188 108.17 363.191 108.614C363.188 109.061 363.008 109.489 362.691 109.805C362.373 110.12 361.944 110.297 361.497 110.297Z" fill="#407BFF"/>
<path d="M350.277 63.647H337.7C337.256 63.647 336.83 63.4712 336.514 63.1581C336.199 62.8449 336.021 62.4197 336.018 61.9753C336.018 61.529 336.195 61.1009 336.51 60.7853C336.826 60.4697 337.254 60.2924 337.7 60.2924H350.289C350.735 60.2924 351.163 60.4697 351.479 60.7853C351.794 61.1009 351.971 61.529 351.971 61.9753C351.97 62.1963 351.925 62.4149 351.839 62.6185C351.753 62.8221 351.628 63.0068 351.471 63.162C351.313 63.3173 351.127 63.44 350.922 63.5232C350.717 63.6064 350.498 63.6485 350.277 63.647Z" fill="#407BFF"/>
<path d="M358.501 70.3113H337.7C337.256 70.3113 336.83 70.1355 336.514 69.8224C336.199 69.5092 336.021 69.084 336.018 68.6396C336.018 68.1933 336.195 67.7652 336.51 67.4496C336.826 67.134 337.254 66.9567 337.7 66.9567H358.512C358.957 66.9597 359.382 67.1383 359.695 67.4536C360.008 67.7689 360.184 68.1952 360.184 68.6396C360.184 68.8601 360.14 69.0784 360.056 69.2819C359.971 69.4855 359.847 69.6703 359.69 69.8256C359.534 69.981 359.348 70.1039 359.144 70.1873C358.94 70.2706 358.721 70.3128 358.501 70.3113Z" fill="#407BFF"/>
<path d="M368.06 76.9755H337.7C337.256 76.9755 336.83 76.7998 336.514 76.4866C336.199 76.1734 336.021 75.7482 336.018 75.3039C336.018 74.8575 336.195 74.4295 336.51 74.1139C336.826 73.7983 337.254 73.621 337.7 73.621H368.071C368.517 73.621 368.945 73.7983 369.261 74.1139C369.577 74.4295 369.754 74.8575 369.754 75.3039C369.752 75.5249 369.708 75.7434 369.622 75.947C369.536 76.1506 369.41 76.3353 369.253 76.4906C369.096 76.6458 368.909 76.7685 368.705 76.8517C368.5 76.9349 368.281 76.977 368.06 76.9755Z" fill="#407BFF"/>
<path d="M368.06 83.6399H350.401C349.956 83.6399 349.53 83.4641 349.215 83.1509C348.899 82.8377 348.721 82.4126 348.718 81.9682C348.718 81.5218 348.895 81.0938 349.211 80.7782C349.526 80.4626 349.954 80.2853 350.401 80.2853H368.06C368.506 80.2853 368.934 80.4626 369.25 80.7782C369.565 81.0938 369.743 81.5218 369.743 81.9682C369.74 82.4126 369.561 82.8377 369.246 83.1509C368.931 83.4641 368.504 83.6399 368.06 83.6399Z" fill="#407BFF"/>
<path d="M342.3 83.6399H337.7C337.256 83.6399 336.83 83.4641 336.514 83.1509C336.199 82.8377 336.021 82.4126 336.018 81.9682C336.018 81.5218 336.195 81.0938 336.51 80.7782C336.826 80.4626 337.254 80.2853 337.7 80.2853H342.312C342.758 80.2853 343.186 80.4626 343.502 80.7782C343.817 81.0938 343.994 81.5218 343.994 81.9682C343.993 82.1892 343.948 82.4077 343.862 82.6113C343.776 82.815 343.651 82.9996 343.494 83.1549C343.336 83.3101 343.15 83.4328 342.945 83.516C342.741 83.5993 342.521 83.6413 342.3 83.6399Z" fill="#407BFF"/>
<path d="M368.06 90.3039H337.7C337.254 90.3039 336.826 90.1266 336.51 89.811C336.195 89.4954 336.018 89.0674 336.018 88.621C336.021 88.1766 336.199 87.7514 336.514 87.4383C336.83 87.1251 337.256 86.9493 337.7 86.9493H368.071C368.515 86.9493 368.942 87.1251 369.257 87.4383C369.572 87.7514 369.751 88.1766 369.754 88.621C369.754 88.843 369.71 89.0627 369.625 89.2676C369.54 89.4725 369.415 89.6586 369.257 89.815C369.1 89.9714 368.913 90.0951 368.707 90.179C368.502 90.263 368.282 90.3054 368.06 90.3039Z" fill="#407BFF"/>
<path d="M356.336 96.9682H337.7C337.254 96.9682 336.826 96.7909 336.51 96.4753C336.195 96.1597 336.018 95.7316 336.018 95.2853C336.021 94.8409 336.199 94.4158 336.514 94.1026C336.83 93.7894 337.256 93.6136 337.7 93.6136H356.347C356.791 93.6136 357.218 93.7894 357.533 94.1026C357.848 94.4158 358.027 94.8409 358.03 95.2853C358.03 95.5073 357.986 95.727 357.901 95.9319C357.815 96.1369 357.69 96.3229 357.533 96.4793C357.375 96.6357 357.189 96.7594 356.983 96.8433C356.778 96.9272 356.558 96.9697 356.336 96.9682Z" fill="#407BFF"/>
<path d="M368.06 96.9682H363.078C362.634 96.9652 362.209 96.7866 361.896 96.4713C361.582 96.1561 361.407 95.7297 361.407 95.2853C361.407 94.842 361.583 94.4168 361.896 94.1033C362.21 93.7898 362.635 93.6136 363.078 93.6136H368.06C368.504 93.6136 368.931 93.7894 369.246 94.1026C369.561 94.4158 369.74 94.8409 369.743 95.2853C369.743 95.7316 369.565 96.1597 369.25 96.4753C368.934 96.7909 368.506 96.9682 368.06 96.9682Z" fill="#407BFF"/>
<path d="M368.06 103.633H337.7C337.254 103.633 336.826 103.455 336.51 103.14C336.195 102.824 336.018 102.396 336.018 101.95C336.021 101.505 336.199 101.08 336.514 100.767C336.83 100.454 337.256 100.278 337.7 100.278H368.071C368.515 100.278 368.942 100.454 369.257 100.767C369.572 101.08 369.751 101.505 369.754 101.95C369.754 102.172 369.71 102.391 369.625 102.596C369.54 102.801 369.415 102.987 369.257 103.144C369.1 103.3 368.913 103.424 368.707 103.508C368.502 103.592 368.282 103.634 368.06 103.633Z" fill="#407BFF"/>
<g opacity="0.5">
<path d="M361.497 110.297H337.7C337.254 110.297 336.826 110.12 336.51 109.804C336.195 109.488 336.018 109.06 336.018 108.614C336.021 108.17 336.199 107.744 336.514 107.431C336.83 107.118 337.256 106.942 337.7 106.942H361.508C361.952 106.942 362.379 107.118 362.694 107.431C363.009 107.744 363.188 108.17 363.191 108.614C363.188 109.061 363.008 109.489 362.691 109.805C362.373 110.12 361.944 110.297 361.497 110.297Z" fill="white"/>
</g>
<g opacity="0.5">
<path d="M350.277 63.647H337.7C337.256 63.647 336.83 63.4712 336.514 63.1581C336.199 62.8449 336.021 62.4197 336.018 61.9753C336.018 61.529 336.195 61.1009 336.51 60.7853C336.826 60.4697 337.254 60.2924 337.7 60.2924H350.289C350.735 60.2924 351.163 60.4697 351.479 60.7853C351.794 61.1009 351.971 61.529 351.971 61.9753C351.97 62.1963 351.925 62.4149 351.839 62.6185C351.753 62.8221 351.628 63.0068 351.471 63.162C351.313 63.3173 351.127 63.44 350.922 63.5232C350.717 63.6064 350.498 63.6485 350.277 63.647Z" fill="white"/>
</g>
<g opacity="0.5">
<path d="M358.501 70.3113H337.7C337.256 70.3113 336.83 70.1355 336.514 69.8224C336.199 69.5092 336.021 69.084 336.018 68.6396C336.018 68.1933 336.195 67.7652 336.51 67.4496C336.826 67.134 337.254 66.9567 337.7 66.9567H358.512C358.957 66.9597 359.382 67.1383 359.695 67.4536C360.008 67.7689 360.184 68.1952 360.184 68.6396C360.184 68.8601 360.14 69.0784 360.056 69.2819C359.971 69.4855 359.847 69.6703 359.69 69.8256C359.534 69.981 359.348 70.1039 359.144 70.1873C358.94 70.2706 358.721 70.3128 358.501 70.3113Z" fill="white"/>
</g>
<g opacity="0.5">
<path d="M368.06 76.9755H337.7C337.256 76.9755 336.83 76.7998 336.514 76.4866C336.199 76.1734 336.021 75.7482 336.018 75.3039C336.018 74.8575 336.195 74.4295 336.51 74.1139C336.826 73.7983 337.254 73.621 337.7 73.621H368.071C368.517 73.621 368.945 73.7983 369.261 74.1139C369.577 74.4295 369.754 74.8575 369.754 75.3039C369.752 75.5249 369.708 75.7434 369.622 75.947C369.536 76.1506 369.41 76.3353 369.253 76.4906C369.096 76.6458 368.909 76.7685 368.705 76.8517C368.5 76.9349 368.281 76.977 368.06 76.9755Z" fill="white"/>
</g>
<g opacity="0.5">
<path d="M368.06 83.6399H350.401C349.956 83.6399 349.53 83.4641 349.215 83.1509C348.899 82.8377 348.721 82.4126 348.718 81.9682C348.718 81.5218 348.895 81.0938 349.211 80.7782C349.526 80.4626 349.954 80.2853 350.401 80.2853H368.06C368.506 80.2853 368.934 80.4626 369.25 80.7782C369.565 81.0938 369.743 81.5218 369.743 81.9682C369.74 82.4126 369.561 82.8377 369.246 83.1509C368.931 83.4641 368.504 83.6399 368.06 83.6399Z" fill="white"/>
</g>
<g opacity="0.5">
<path d="M342.3 83.6399H337.7C337.256 83.6399 336.83 83.4641 336.514 83.1509C336.199 82.8377 336.021 82.4126 336.018 81.9682C336.018 81.5218 336.195 81.0938 336.51 80.7782C336.826 80.4626 337.254 80.2853 337.7 80.2853H342.312C342.758 80.2853 343.186 80.4626 343.502 80.7782C343.817 81.0938 343.994 81.5218 343.994 81.9682C343.993 82.1892 343.948 82.4077 343.862 82.6113C343.776 82.815 343.651 82.9996 343.494 83.1549C343.336 83.3101 343.15 83.4328 342.945 83.516C342.741 83.5993 342.521 83.6413 342.3 83.6399Z" fill="white"/>
</g>
<g opacity="0.5">
<path d="M368.06 90.3039H337.7C337.254 90.3039 336.826 90.1266 336.51 89.811C336.195 89.4954 336.018 89.0674 336.018 88.621C336.021 88.1766 336.199 87.7514 336.514 87.4383C336.83 87.1251 337.256 86.9493 337.7 86.9493H368.071C368.515 86.9493 368.942 87.1251 369.257 87.4383C369.572 87.7514 369.751 88.1766 369.754 88.621C369.754 88.843 369.71 89.0627 369.625 89.2676C369.54 89.4725 369.415 89.6586 369.257 89.815C369.1 89.9714 368.913 90.0951 368.707 90.179C368.502 90.263 368.282 90.3054 368.06 90.3039Z" fill="white"/>
</g>
<g opacity="0.5">
<path d="M356.336 96.9682H337.7C337.254 96.9682 336.826 96.7909 336.51 96.4753C336.195 96.1597 336.018 95.7316 336.018 95.2853C336.021 94.8409 336.199 94.4158 336.514 94.1026C336.83 93.7894 337.256 93.6136 337.7 93.6136H356.347C356.791 93.6136 357.218 93.7894 357.533 94.1026C357.848 94.4158 358.027 94.8409 358.03 95.2853C358.03 95.5073 357.986 95.727 357.901 95.9319C357.815 96.1369 357.69 96.3229 357.533 96.4793C357.375 96.6357 357.189 96.7594 356.983 96.8433C356.778 96.9272 356.558 96.9697 356.336 96.9682Z" fill="white"/>
</g>
<g opacity="0.5">
<path d="M368.06 96.9682H363.078C362.634 96.9652 362.209 96.7866 361.896 96.4713C361.582 96.1561 361.407 95.7297 361.407 95.2853C361.407 94.842 361.583 94.4168 361.896 94.1033C362.21 93.7898 362.635 93.6136 363.078 93.6136H368.06C368.504 93.6136 368.931 93.7894 369.246 94.1026C369.561 94.4158 369.74 94.8409 369.743 95.2853C369.743 95.7316 369.565 96.1597 369.25 96.4753C368.934 96.7909 368.506 96.9682 368.06 96.9682Z" fill="white"/>
</g>
<g opacity="0.5">
<path d="M368.06 103.633H337.7C337.254 103.633 336.826 103.455 336.51 103.14C336.195 102.824 336.018 102.396 336.018 101.95C336.021 101.505 336.199 101.08 336.514 100.767C336.83 100.454 337.256 100.278 337.7 100.278H368.071C368.515 100.278 368.942 100.454 369.257 100.767C369.572 101.08 369.751 101.505 369.754 101.95C369.754 102.172 369.71 102.391 369.625 102.596C369.54 102.801 369.415 102.987 369.257 103.144C369.1 103.3 368.913 103.424 368.707 103.508C368.502 103.592 368.282 103.634 368.06 103.633Z" fill="white"/>
</g>
<path d="M363.179 54.9745V62.9851C363.178 63.4908 363.277 63.9919 363.469 64.4595C363.662 64.927 363.946 65.3518 364.303 65.7095C364.661 66.0671 365.086 66.3505 365.553 66.5434C366.021 66.7362 366.522 66.8348 367.028 66.8333H375.027L363.179 54.9745Z" fill="#407BFF"/>
<path opacity="0.5" d="M363.179 54.9745V62.9851C363.178 63.4908 363.277 63.9919 363.469 64.4595C363.662 64.927 363.946 65.3518 364.303 65.7095C364.661 66.0671 365.086 66.3505 365.553 66.5434C366.021 66.7362 366.522 66.8348 367.028 66.8333H375.027L363.179 54.9745Z" fill="white"/>
<defs>
<linearGradient id="paint0_linear_2037_2443" x1="153.756" y1="214.771" x2="248.428" y2="214.771" gradientUnits="userSpaceOnUse">
<stop stop-color="#5D3DAF"/>
<stop offset="1" stop-color="#5598F7"/>
</linearGradient>
<linearGradient id="paint1_linear_2037_2443" x1="374.836" y1="317.276" x2="464.097" y2="317.276" gradientUnits="userSpaceOnUse">
<stop stop-color="#5D3DAF"/>
<stop offset="1" stop-color="#5598F7"/>
</linearGradient>
<linearGradient id="paint2_linear_2037_2443" x1="201.914" y1="317.276" x2="291.174" y2="317.276" gradientUnits="userSpaceOnUse">
<stop stop-color="#5D3DAF"/>
<stop offset="1" stop-color="#5598F7"/>
</linearGradient>
<linearGradient id="paint3_linear_2037_2443" x1="463.76" y1="253.247" x2="291.814" y2="253.247" gradientUnits="userSpaceOnUse">
<stop stop-color="#5D3DAF"/>
<stop offset="1" stop-color="#5598F7"/>
</linearGradient>
<linearGradient id="paint4_linear_2037_2443" x1="296.526" y1="203.192" x2="391.755" y2="203.192" gradientUnits="userSpaceOnUse">
<stop stop-color="#5D3DAF"/>
<stop offset="1" stop-color="#5598F7"/>
</linearGradient>
<linearGradient id="paint5_linear_2037_2443" x1="419.6" y1="199.142" x2="432.942" y2="199.142" gradientUnits="userSpaceOnUse">
<stop stop-color="#5D3DAF"/>
<stop offset="1" stop-color="#5598F7"/>
</linearGradient>
<linearGradient id="paint6_linear_2037_2443" x1="295.505" y1="114.347" x2="322.162" y2="114.347" gradientUnits="userSpaceOnUse">
<stop stop-color="#5D3DAF"/>
<stop offset="1" stop-color="#5598F7"/>
</linearGradient>
</defs>
</svg>
