<svg width="1600" height="394" viewBox="0 0 1600 394" fill="none" xmlns="http://www.w3.org/2000/svg">
<path d="M-40 394V222.285C-8.12671 258.851 31.4846 206.68 85.4636 234.509H1891.93C1923.32 234.509 1967.28 239.597 2007 234.509V95.4601V0C1691.31 0 1826.51 24.374 1750.4 65.6573C1730.25 76.5877 1619.63 140.864 1607.5 151C1664.42 136.687 1613.5 149.491 1607.5 151C1530.92 170.242 1459.98 162.124 1377.09 151.893C1309.16 143.517 1230.62 134.23 1127.5 138.736C926.508 147.525 942.047 195.201 730.144 208.571C581.709 217.943 554.09 195.807 214.643 179.342C89.6708 173.277 10.8499 172.281 -40 173.713V394Z" fill="white"/>
</svg>
